<?xml version="1.0" encoding="UTF-8" standalone="no"?>
<!-- Created with Inkscape (http://www.inkscape.org/) -->

<svg
   version="1.1"
   id="svg1"
   width="180"
   height="53.333332"
   viewBox="0 0 180 53.333332"
   sodipodi:docname="get_on_googleplay.svg"
   inkscape:version="1.3.2 (091e20ef0f, 2023-11-25, custom)"
   xmlns:inkscape="http://www.inkscape.org/namespaces/inkscape"
   xmlns:sodipodi="http://sodipodi.sourceforge.net/DTD/sodipodi-0.dtd"
   xmlns="http://www.w3.org/2000/svg"
   xmlns:svg="http://www.w3.org/2000/svg">
  <defs
     id="defs1" />
  <sodipodi:namedview
     id="namedview1"
     pagecolor="#505050"
     bordercolor="#ffffff"
     borderopacity="1"
     inkscape:showpageshadow="0"
     inkscape:pageopacity="0"
     inkscape:pagecheckerboard="1"
     inkscape:deskcolor="#d1d1d1"
     inkscape:zoom="6.8406331"
     inkscape:cx="83.325621"
     inkscape:cy="40.493328"
     inkscape:window-width="1996"
     inkscape:window-height="2053"
     inkscape:window-x="2924"
     inkscape:window-y="0"
     inkscape:window-maximized="0"
     inkscape:current-layer="g1">
    <inkscape:page
       x="0"
       y="0"
       inkscape:label="1"
       id="page1"
       width="180"
       height="53.333332"
       margin="0"
       bleed="0" />
  </sodipodi:namedview>
  <g
     id="g1"
     inkscape:groupmode="layer"
     inkscape:label="1">
    <g
       id="g13">
      <path
         id="path2"
         d="M 173.33333,53.333333 H 6.6666665 C 2.9999999,53.333333 0,50.333333 0,46.666667 V 6.6666675 C 0,3.0000009 2.9999999,1e-6 6.6666665,1e-6 H 173.33333 C 177,1e-6 180,3.0000009 180,6.6666675 V 46.666667 c 0,3.666666 -3,6.666666 -6.66667,6.666666"
         style="fill:#100f0d;fill-opacity:1;fill-rule:nonzero;stroke:none;stroke-width:0.133333" />
      <path
         id="path3"
         d="M 173.33333,1e-6 H 6.6666665 C 2.9999999,1e-6 0,3.0000009 0,6.6666675 V 46.666667 c 0,3.666666 2.9999999,6.666666 6.6666665,6.666666 H 173.33333 c 3.66667,0 6.66667,-3 6.66667,-6.666666 V 6.6666675 C 180,3.0000009 177,1e-6 173.33333,1e-6 Z m 0,1.0661333 c 3.088,0 5.6,2.5125333 5.6,5.6005332 V 46.666667 c 0,3.088026 -2.512,5.600521 -5.6,5.600521 H 6.6666665 c -3.0880266,0 -5.5994785,-2.512495 -5.5994785,-5.600521 V 6.6666675 c 0,-3.0879999 2.5114519,-5.6005332 5.5994785,-5.6005332 H 173.33333"
         style="fill:#a2a2a1;fill-opacity:1;fill-rule:nonzero;stroke:none;stroke-width:0.133333" />
    </g>
    <g
       id="g10">
      <path
         id="path4"
         d="m 63.175781,13.050781 h -3.890625 v 0.96875 h 2.90625 c -0.07813,0.78125 -0.390625,1.390625 -0.90625,1.84375 -0.53125,0.4375 -1.203125,0.671875 -2,0.671875 -0.859375,0 -1.609375,-0.3125 -2.203125,-0.90625 -0.59375,-0.625 -0.890625,-1.375 -0.890625,-2.296875 0,-0.921875 0.296875,-1.671875 0.890625,-2.296875 0.59375,-0.59375 1.34375,-0.890625 2.203125,-0.890625 0.453125,0 0.875,0.07813 1.265625,0.234375 0.390625,0.171875 0.703125,0.40625 0.953125,0.703125 l 0.734375,-0.734375 c -0.328125,-0.3749999 -0.75,-0.6718749 -1.28125,-0.8749999 -0.53125,-0.21875 -1.078125,-0.3125 -1.671875,-0.3125 -1.15625,0 -2.140625,0.390625 -2.9375,1.2031249 -0.8125,0.796875 -1.21875,1.796875 -1.21875,2.96875 0,1.171875 0.40625,2.171875 1.21875,2.96875 0.796875,0.8125 1.78125,1.203125 2.9375,1.203125 1.21875,0 2.203125,-0.390625 2.9375,-1.171875 0.671875,-0.671875 1,-1.5625 1,-2.671875 0,-0.1875 -0.01563,-0.390625 -0.04687,-0.609375 z m 1.515625,-3.7187499 v 7.9999999 h 4.671875 v -0.984375 h -3.640625 v -2.53125 h 3.28125 v -0.96875 h -3.28125 v -2.53125 h 3.640625 V 9.3320311 Z M 75.937499,10.316406 V 9.3320311 h -5.5 v 0.9843749 h 2.234375 v 7.015625 h 1.031251 v -7.015625 z m 5.003907,-0.9843749 h -1.031251 v 7.9999999 h 1.031251 z M 87.73828,10.316406 V 9.3320311 h -5.5 v 0.9843749 h 2.234375 v 7.015625 h 1.031251 v -7.015625 z m 10.402344,0.0625 C 97.343749,9.5507811 96.374999,9.1601561 95.218749,9.1601561 c -1.171876,0 -2.140625,0.390625 -2.9375,1.2031249 -0.796876,0.796875 -1.1875,1.78125 -1.1875,2.96875 0,1.1875 0.390624,2.171875 1.1875,2.96875 0.796875,0.8125 1.765624,1.203125 2.9375,1.203125 1.140624,0 2.125,-0.390625 2.921875,-1.203125 0.796875,-0.796875 1.1875,-1.78125 1.1875,-2.96875 0,-1.171875 -0.390625,-2.171875 -1.1875,-2.953125 z m -5.125,0.65625 c 0.593749,-0.59375 1.328125,-0.890625 2.203125,-0.890625 0.859375,0 1.59375,0.296875 2.171875,0.890625 0.593749,0.59375 0.875,1.375 0.875,2.296875 0,0.921875 -0.281251,1.703125 -0.875,2.296875 -0.578125,0.59375 -1.3125,0.90625 -2.171875,0.90625 -0.875,0 -1.609376,-0.3125 -2.203125,-0.90625 -0.578125,-0.609375 -0.859375,-1.375 -0.859375,-2.296875 0,-0.921875 0.28125,-1.6875 0.859375,-2.296875 z m 8.773436,1.3125 -0.0469,-1.546875 h 0.0469 l 4.07813,6.53125 h 1.0625 V 9.3320311 h -1.03125 v 4.6874999 l 0.0469,1.53125 h -0.0469 l -3.875,-6.2187499 h -1.26563 v 7.9999999 h 1.03125 z m 0,0"
         style="fill:#ffffff;fill-opacity:1;fill-rule:nonzero;stroke:none;stroke-width:1.33333"
         aria-label="GET IT ON" />
      <path
         id="path5"
         d="m 63.156798,13.060401 h -3.870799 v 0.9584 h 2.899999 c -0.0772,0.7812 -0.3896,1.395733 -0.914666,1.8416 -0.524934,0.445866 -1.193734,0.6688 -1.985333,0.6688 -0.870934,0 -1.6084,-0.3 -2.210534,-0.902134 -0.5916,-0.614533 -0.8916,-1.372933 -0.8916,-2.287466 0,-0.916667 0.3,-1.675067 0.8916,-2.287467 0.602134,-0.604267 1.3396,-0.904267 2.210534,-0.904267 0.445733,0 0.868666,0.07707 1.260399,0.245867 0.3896,0.166667 0.702,0.4 0.947867,0.702133 l 0.735467,-0.735466 c -0.333334,-0.3792002 -0.7584,-0.6708002 -1.281334,-0.8833336 -0.524933,-0.2104 -1.072933,-0.3104 -1.662399,-0.3104 -1.160534,0 -2.143867,0.4 -2.945867,1.2041336 -0.804133,0.804133 -1.206267,1.795866 -1.206267,2.9688 0,1.1708 0.402134,2.164533 1.206267,2.966666 0.802,0.804134 1.785333,1.206267 2.945867,1.206267 1.214533,0 2.185333,-0.391733 2.933333,-1.183333 0.658266,-0.6584 0.993733,-1.55 0.993733,-2.666667 0,-0.1896 -0.02293,-0.391733 -0.05627,-0.602133 z m 1.542134,-3.7166669 v 7.9895999 h 4.662533 v -0.9812 h -3.637467 v -2.533333 h 3.2812 v -0.960534 h -3.2812 v -2.5312 h 3.637467 V 9.3437341 Z M 75.931731,10.327067 V 9.3437341 h -5.489599 v 0.9833329 h 2.231333 v 7.006267 h 1.024933 v -7.006267 z m 5.009467,-0.9833329 h -1.025067 v 7.9895999 h 1.025067 z m 6.79,0.9833329 V 9.3437341 h -5.489467 v 0.9833329 h 2.2312 v 7.006267 h 1.024934 v -7.006267 z m 10.398,0.05413 C 97.337464,9.5666674 96.366664,9.1666674 95.206264,9.1666674 c -1.1604,0 -2.1312,0.4 -2.922933,1.2041336 -0.7916,0.791733 -1.183333,1.785466 -1.183333,2.9688 0,1.1812 0.391733,2.174933 1.183333,2.966666 0.791733,0.804134 1.762533,1.206267 2.922933,1.206267 1.15,0 2.1312,-0.402133 2.922934,-1.206267 0.793733,-0.791733 1.183333,-1.785466 1.183333,-2.966666 0,-1.172934 -0.3896,-2.164667 -1.183333,-2.9584 z m -5.1104,0.670933 c 0.5916,-0.604267 1.316666,-0.904267 2.187466,-0.904267 0.8708,0 1.595867,0.3 2.177067,0.904267 0.5896,0.5916 0.8812,1.3604 0.8812,2.287467 0,0.924933 -0.2916,1.695866 -0.8812,2.287466 -0.5812,0.602134 -1.306267,0.902134 -2.177067,0.902134 -0.8708,0 -1.595866,-0.3 -2.187466,-0.902134 -0.5792,-0.604133 -0.8688,-1.362533 -0.8688,-2.287466 0,-0.927067 0.2896,-1.685467 0.8688,-2.287467 z m 8.772932,1.304133 -0.0439,-1.5396 h 0.0439 l 4.0624,6.516667 h 1.07093 V 9.3437341 h -1.0272 v 4.6750669 l 0.0459,1.539466 h -0.0459 l -3.88333,-6.2145329 h -1.24787 v 7.9895999 h 1.02507 z"
         style="fill:none;stroke:#ffffff;stroke-width:0.266667;stroke-linecap:butt;stroke-linejoin:miter;stroke-miterlimit:10;stroke-dasharray:none;stroke-opacity:1" />
    </g>
    <g
       id="g11">
      <path
         id="path6"
         d="m 142.58133,40 h 2.488 V 23.3312 h -2.488 z m 22.40933,-10.664 -2.852,7.226533 h -0.0853 l -2.96,-7.226533 h -2.68 l 4.44,10.1 -2.532,5.618693 H 160.916 L 167.75733,29.336 Z M 150.88,38.1068 c -0.81334,0 -1.95067,-0.407867 -1.95067,-1.4156 0,-1.286533 1.416,-1.779733 2.63733,-1.779733 1.09334,0 1.60934,0.235466 2.27334,0.557333 -0.19334,1.544267 -1.52267,2.638 -2.96,2.638 z m 0.30133,-9.135466 c -1.80133,0 -3.66667,0.793733 -4.43867,2.552133 l 2.208,0.921867 c 0.472,-0.921867 1.35067,-1.221867 2.27334,-1.221867 1.28666,0 2.59466,0.771333 2.616,2.144266 v 0.171334 c -0.45067,-0.257333 -1.416,-0.6432 -2.59467,-0.6432 -2.38133,0 -4.804,1.307733 -4.804,3.752533 0,2.230267 1.952,3.667227 4.13867,3.667227 1.672,0 2.596,-0.75056 3.17333,-1.63016 h 0.0867 v 1.287466 h 2.40266 v -6.3912 c 0,-2.959333 -2.21066,-4.610399 -5.06133,-4.610399 z m -15.376,2.393733 h -3.53867 V 25.6516 h 3.53867 c 1.86,0 2.916,1.5396 2.916,2.856667 0,1.291733 -1.056,2.8568 -2.916,2.8568 z m -0.064,-8.033867 h -5.9616 V 40 h 2.48693 v -6.315067 h 3.47467 c 2.75733,0 5.468,-1.995866 5.468,-5.176666 0,-3.180133 -2.71067,-5.177067 -5.468,-5.177067 z M 103.2328,38.109867 c -1.7188,0 -3.15734,-1.4396 -3.15734,-3.415067 0,-1.9984 1.43854,-3.4584 3.15734,-3.4584 1.69693,0 3.02866,1.46 3.02866,3.4584 0,1.975467 -1.33173,3.415067 -3.02866,3.415067 z m 2.8568,-7.840533 h -0.086 c -0.55827,-0.665734 -1.6328,-1.2672 -2.98534,-1.2672 -2.836,0 -5.434929,2.492133 -5.434929,5.692666 0,3.178667 2.598929,5.648947 5.434929,5.648947 1.35254,0 2.42707,-0.601614 2.98534,-1.288547 h 0.086 v 0.8156 c 0,2.170347 -1.15987,3.32972 -3.02867,3.32972 -1.52453,0 -2.46973,-1.095307 -2.8568,-2.018747 l -2.169199,0.90208 c 0.6224,1.50312 2.275999,3.35104 5.025999,3.35104 2.92187,0 5.39213,-1.718746 5.39213,-5.907826 v -10.1812 H 106.0896 Z M 110.17186,40 h 2.49067 V 23.3312 h -2.49067 z m 6.16414,-5.498933 c -0.0641,-2.1912 1.69786,-3.307867 2.96453,-3.307867 0.98853,0 1.82547,0.494267 2.10573,1.202667 z m 7.7328,-1.890667 c -0.4724,-1.266666 -1.91147,-3.608266 -4.85427,-3.608266 -2.92187,0 -5.34893,2.2984 -5.34893,5.670799 0,3.1792 2.40626,5.670814 5.6276,5.670814 2.59893,0 4.1032,-1.58908 4.72653,-2.51308 L 122.2864,36.5416 c -0.64467,0.945333 -1.52494,1.568267 -2.7932,1.568267 -1.26667,0 -2.1692,-0.580134 -2.7484,-1.718667 l 7.58173,-3.136 z M 63.658398,30.742134 v 2.405733 h 5.756667 c -0.171867,1.3532 -0.622933,2.3412 -1.3104,3.028666 -0.838,0.837467 -2.1484,1.761467 -4.446267,1.761467 -3.5444,0 -6.315199,-2.8568 -6.315199,-6.401066 0,-3.544267 2.770799,-6.401467 6.315199,-6.401467 1.911867,0 3.307734,0.752 4.338934,1.718667 L 69.694798,25.1568 c -1.4396,-1.374533 -3.351066,-2.427066 -6.0364,-2.427066 -4.855333,0 -8.936533,3.952533 -8.936533,8.8072 0,4.854266 4.0812,8.806813 8.936533,8.806813 2.620267,0 4.5968,-0.859347 6.1432,-2.47028 1.5896,-1.5896 2.083867,-3.823467 2.083867,-5.628133 0,-0.557867 -0.04333,-1.073467 -0.1292,-1.5032 z m 14.771867,7.367733 c -1.7188,0 -3.201067,-1.417734 -3.201067,-3.436934 0,-2.040666 1.482267,-3.436533 3.201067,-3.436533 1.718133,0 3.2004,1.395867 3.2004,3.436533 0,2.0192 -1.482267,3.436934 -3.2004,3.436934 z m 0,-9.107733 c -3.137067,0 -5.6928,2.384266 -5.6928,5.670799 0,3.265067 2.555733,5.670814 5.6928,5.670814 3.135866,0 5.692133,-2.405747 5.692133,-5.670814 0,-3.286533 -2.556267,-5.670799 -5.692133,-5.670799 z m 12.417066,9.107733 c -1.7176,0 -3.2004,-1.417734 -3.2004,-3.436934 0,-2.040666 1.4828,-3.436533 3.2004,-3.436533 1.7188,0 3.200533,1.395867 3.200533,3.436533 0,2.0192 -1.481733,3.436934 -3.200533,3.436934 z m 0,-9.107733 c -3.135867,0 -5.6916,2.384266 -5.6916,5.670799 0,3.265067 2.555733,5.670814 5.6916,5.670814 3.137067,0 5.6928,-2.405747 5.6928,-5.670814 0,-3.286533 -2.555733,-5.670799 -5.6928,-5.670799"
         style="fill:#ffffff;fill-opacity:1;fill-rule:nonzero;stroke:none;stroke-width:0.133333" />
    </g>
    <g
       id="g12">
      <path
         id="path7"
         d="M 27.622933,25.898934 13.4276,40.965627 c 5.33e-4,0.0031 0.0016,0.0057 0.0021,0.0089 0.435333,1.635933 1.9296,2.840627 3.703067,2.840627 0.708933,0 1.374533,-0.191667 1.945333,-0.528134 l 0.04533,-0.02656 15.978666,-9.22028 -7.479199,-8.141199"
         style="fill:#eb3131;fill-opacity:1;fill-rule:nonzero;stroke:none;stroke-width:0.133333" />
      <path
         id="path8"
         d="m 41.984399,23.333334 -0.0136,-0.0093 -6.8984,-3.999066 -7.771866,6.915733 7.798933,7.797866 6.862,-3.959333 c 1.203066,-0.649466 2.019733,-1.917733 2.019733,-3.380266 0,-1.452 -0.805733,-2.714 -1.9968,-3.3656"
         style="fill:#f6b60b;fill-opacity:1;fill-rule:nonzero;stroke:none;stroke-width:0.133333" />
      <path
         id="path9"
         d="m 13.427066,12.369734 c -0.08533,0.314667 -0.130186,0.644267 -0.130186,0.986533 v 26.623466 c 0,0.341627 0.04432,0.672347 0.13072,0.985894 L 28.111466,26.2844 13.427066,12.369734"
         style="fill:#5778c5;fill-opacity:1;fill-rule:nonzero;stroke:none;stroke-width:0.133333" />
      <path
         id="path10"
         d="m 27.727599,26.667734 7.347467,-7.345333 -15.960533,-9.2536 C 18.5344,9.7213341 17.857333,9.5208008 17.1328,9.5208008 c -1.773467,0 -3.269734,1.2068002 -3.7052,2.8448002 -5.34e-4,0.0016 -5.34e-4,0.0027 -5.34e-4,0.0041 l 14.300533,14.298"
         style="fill:#3bad49;fill-opacity:1;fill-rule:nonzero;stroke:none;stroke-width:0.133333" />
    </g>
  </g>
</svg>
