<?xml version="1.0" encoding="UTF-8" standalone="no"?>
<svg
   version="1.1"
   width="203"
   height="203"
   viewBox="0 0 203 203"
   shape-rendering="crispEdges"
   id="svg1"
   sodipodi:docname="bitcoin.svg"
   inkscape:version="1.3.2 (091e20ef0f, 2023-11-25, custom)"
   xmlns:inkscape="http://www.inkscape.org/namespaces/inkscape"
   xmlns:sodipodi="http://sodipodi.sourceforge.net/DTD/sodipodi-0.dtd"
   xmlns="http://www.w3.org/2000/svg"
   xmlns:svg="http://www.w3.org/2000/svg">
  <defs
     id="defs1" />
  <sodipodi:namedview
     id="namedview1"
     pagecolor="#505050"
     bordercolor="#ffffff"
     borderopacity="1"
     inkscape:showpageshadow="0"
     inkscape:pageopacity="0"
     inkscape:pagecheckerboard="1"
     inkscape:deskcolor="#d1d1d1"
     inkscape:zoom="2.2539668"
     inkscape:cx="151.73249"
     inkscape:cy="153.50714"
     inkscape:window-width="3840"
     inkscape:window-height="2053"
     inkscape:window-x="1080"
     inkscape:window-y="0"
     inkscape:window-maximized="1"
     inkscape:current-layer="svg1" />
  <path
     class="qrcode"
     fill="#000000"
     d="M 0,0 H 7 V 7 H 0 V 0 m 7,0 h 7 V 7 H 7 V 0 m 7,0 h 7 V 7 H 14 V 0 m 7,0 h 7 V 7 H 21 V 0 m 7,0 h 7 V 7 H 28 V 0 m 7,0 h 7 V 7 H 35 V 0 m 7,0 h 7 V 7 H 42 V 0 m 14,0 h 7 V 7 H 56 V 0 m 7,0 h 7 V 7 H 63 V 0 m 21,0 h 7 V 7 H 84 V 0 m 21,0 h 7 v 7 h -7 V 0 m 7,0 h 7 v 7 h -7 V 0 m 7,0 h 7 v 7 h -7 V 0 m 14,0 h 7 v 7 h -7 V 0 m 21,0 h 7 v 7 h -7 V 0 m 7,0 h 7 v 7 h -7 V 0 m 7,0 h 7 v 7 h -7 V 0 m 7,0 h 7 v 7 h -7 V 0 m 7,0 h 7 v 7 h -7 V 0 m 7,0 h 7 v 7 h -7 V 0 m 7,0 h 7 v 7 h -7 V 0 M 0,7 h 7 v 7 H 0 V 7 m 42,0 h 7 v 7 H 42 V 7 m 21,0 h 7 v 7 H 63 V 7 m 7,0 h 7 v 7 H 70 V 7 m 14,0 h 7 v 7 H 84 V 7 m 7,0 h 7 v 7 H 91 V 7 m 7,0 h 7 v 7 H 98 V 7 m 14,0 h 7 v 7 h -7 V 7 m 28,0 h 7 v 7 h -7 V 7 m 14,0 h 7 v 7 h -7 V 7 m 42,0 h 7 v 7 h -7 V 7 M 0,14 h 7 v 7 H 0 v -7 m 14,0 h 7 v 7 h -7 v -7 m 7,0 h 7 v 7 h -7 v -7 m 7,0 h 7 v 7 h -7 v -7 m 14,0 h 7 v 7 h -7 v -7 m 14,0 h 7 v 7 h -7 v -7 m 21,0 h 7 v 7 h -7 v -7 m 7,0 h 7 v 7 h -7 v -7 m 14,0 h 7 v 7 h -7 v -7 m 7,0 h 7 v 7 h -7 v -7 m 7,0 h 7 v 7 h -7 v -7 m 7,0 h 7 v 7 h -7 v -7 m 7,0 h 7 v 7 h -7 v -7 m 28,0 h 7 v 7 h -7 v -7 m 14,0 h 7 v 7 h -7 v -7 m 7,0 h 7 v 7 h -7 v -7 m 7,0 h 7 v 7 h -7 v -7 m 14,0 h 7 v 7 h -7 V 14 M 0,21 h 7 v 7 H 0 v -7 m 14,0 h 7 v 7 h -7 v -7 m 7,0 h 7 v 7 h -7 v -7 m 7,0 h 7 v 7 h -7 v -7 m 14,0 h 7 v 7 h -7 v -7 m 28,0 h 7 v 7 h -7 v -7 m 14,0 h 7 v 7 h -7 v -7 m 14,0 h 7 v 7 h -7 v -7 m 28,0 h 7 v 7 h -7 v -7 m 14,0 h 7 v 7 h -7 v -7 m 14,0 h 7 v 7 h -7 v -7 m 14,0 h 7 v 7 h -7 v -7 m 7,0 h 7 v 7 h -7 v -7 m 7,0 h 7 v 7 h -7 v -7 m 14,0 h 7 v 7 h -7 V 21 M 0,28 h 7 v 7 H 0 v -7 m 14,0 h 7 v 7 h -7 v -7 m 7,0 h 7 v 7 h -7 v -7 m 7,0 h 7 v 7 h -7 v -7 m 14,0 h 7 v 7 h -7 v -7 m 21,0 h 7 v 7 h -7 v -7 m 7,0 h 7 v 7 h -7 v -7 m 14,0 h 7 v 7 h -7 v -7 m 7,0 h 7 v 7 h -7 v -7 m 7,0 h 7 v 7 h -7 v -7 m 7,0 h 7 v 7 h -7 v -7 m 14,0 h 7 v 7 h -7 v -7 m 14,0 h 7 v 7 h -7 v -7 m 21,0 h 7 v 7 h -7 v -7 m 14,0 h 7 v 7 h -7 v -7 m 7,0 h 7 v 7 h -7 v -7 m 7,0 h 7 v 7 h -7 v -7 m 14,0 h 7 v 7 h -7 V 28 M 0,35 h 7 v 7 H 0 v -7 m 42,0 h 7 v 7 h -7 v -7 m 14,0 h 7 v 7 h -7 v -7 m 7,0 h 7 v 7 h -7 v -7 m 14,0 h 7 v 7 h -7 v -7 m 28,0 h 7 v 7 h -7 v -7 m 14,0 h 7 v 7 h -7 v -7 m 7,0 h 7 v 7 h -7 v -7 m 28,0 h 7 v 7 h -7 v -7 m 42,0 h 7 v 7 h -7 V 35 M 0,42 h 7 v 7 H 0 v -7 m 7,0 h 7 v 7 H 7 v -7 m 7,0 h 7 v 7 h -7 v -7 m 7,0 h 7 v 7 h -7 v -7 m 7,0 h 7 v 7 h -7 v -7 m 7,0 h 7 v 7 h -7 v -7 m 7,0 h 7 v 7 h -7 v -7 m 14,0 h 7 v 7 h -7 v -7 m 14,0 h 7 v 7 h -7 v -7 m 14,0 h 7 v 7 h -7 v -7 m 14,0 h 7 v 7 h -7 v -7 m 14,0 h 7 v 7 h -7 v -7 m 14,0 h 7 v 7 h -7 v -7 m 14,0 h 7 v 7 h -7 v -7 m 14,0 h 7 v 7 h -7 v -7 m 7,0 h 7 v 7 h -7 v -7 m 7,0 h 7 v 7 h -7 v -7 m 7,0 h 7 v 7 h -7 v -7 m 7,0 h 7 v 7 h -7 v -7 m 7,0 h 7 v 7 h -7 v -7 m 7,0 h 7 v 7 h -7 v -7 m -98,7 h 7 v 7 h -7 v -7 m 7,0 h 7 v 7 h -7 v -7 m 7,0 h 7 v 7 h -7 V 49 M 0,56 h 7 v 7 H 0 v -7 m 14,0 h 7 v 7 h -7 v -7 m 28,0 h 7 v 7 h -7 v -7 m 7,0 h 7 v 7 h -7 v -7 m 14,0 h 7 v 7 h -7 v -7 m 7,0 h 7 v 7 h -7 v -7 m 7,0 h 7 v 7 h -7 v -7 m 7,0 h 7 v 7 h -7 v -7 m 7,0 h 7 v 7 h -7 v -7 m 7,0 h 7 v 7 h -7 v -7 m 14,0 h 7 v 7 h -7 v -7 m 14,0 h 7 v 7 h -7 v -7 m 7,0 h 7 v 7 h -7 v -7 m 28,0 h 7 v 7 h -7 v -7 m 21,0 h 7 v 7 h -7 v -7 m 14,0 h 7 v 7 h -7 V 56 M 0,63 h 7 v 7 H 0 v -7 m 7,0 h 7 v 7 H 7 v -7 m 7,0 h 7 v 7 h -7 v -7 m 7,0 h 7 v 7 h -7 v -7 m 14,0 h 7 v 7 h -7 v -7 m 14,0 h 7 v 7 h -7 v -7 m 7,0 h 7 v 7 h -7 v -7 m 14,0 h 7 v 7 h -7 v -7 m 21,0 h 7 v 7 h -7 v -7 m 7,0 h 7 v 7 h -7 v -7 m 28,0 h 7 v 7 h -7 v -7 m 14,0 h 7 v 7 h -7 v -7 m 14,0 h 7 v 7 h -7 v -7 m 7,0 h 7 v 7 h -7 v -7 m 14,0 h 7 v 7 h -7 v -7 m 7,0 h 7 v 7 h -7 v -7 m 14,0 h 7 v 7 h -7 V 63 M 0,70 h 7 v 7 H 0 v -7 m 7,0 h 7 v 7 H 7 v -7 m 7,0 h 7 v 7 h -7 v -7 m 7,0 h 7 v 7 h -7 v -7 m 21,0 h 7 v 7 h -7 v -7 m 7,0 h 7 v 7 h -7 v -7 m 21,0 h 7 v 7 h -7 v -7 m 14,0 h 7 v 7 h -7 v -7 m 21,0 h 7 v 7 h -7 v -7 m 7,0 h 7 v 7 h -7 v -7 m 7,0 h 7 v 7 h -7 v -7 m 14,0 h 7 v 7 h -7 v -7 m 21,0 h 7 v 7 h -7 v -7 m 14,0 h 7 v 7 h -7 v -7 m 28,0 h 7 v 7 h -7 V 70 M 0,77 h 7 v 7 H 0 v -7 m 21,0 h 7 v 7 h -7 v -7 m 14,0 h 7 v 7 h -7 v -7 m 14,0 h 7 v 7 h -7 v -7 m 7,0 h 7 v 7 h -7 v -7 m 7,0 h 7 v 7 h -7 v -7 m 21,0 h 7 v 7 h -7 v -7 m 7,0 h 7 v 7 h -7 v -7 m 14,0 h 7 v 7 h -7 v -7 m 28,0 h 7 v 7 h -7 v -7 m 14,0 h 7 v 7 h -7 v -7 m 14,0 h 7 v 7 h -7 v -7 m 14,0 h 7 v 7 h -7 v -7 m 14,0 h 7 v 7 h -7 v -7 m 7,0 h 7 v 7 h -7 V 77 M 7,84 h 7 v 7 H 7 v -7 m 7,0 h 7 v 7 h -7 v -7 m 7,0 h 7 v 7 h -7 v -7 m 7,0 h 7 v 7 h -7 v -7 m 14,0 h 7 v 7 h -7 v -7 m 7,0 h 7 v 7 h -7 v -7 m 42,0 h 7 v 7 h -7 v -7 m 14,0 h 7 v 7 h -7 v -7 m 28,0 h 7 v 7 h -7 v -7 m 21,0 h 7 v 7 h -7 v -7 m 7,0 h 7 v 7 h -7 v -7 m 14,0 h 7 v 7 h -7 v -7 m 14,0 h 7 v 7 h -7 v -7 m 7,0 h 7 v 7 h -7 V 84 M 14,91 h 7 v 7 h -7 v -7 m 7,0 h 7 v 7 h -7 v -7 m 7,0 h 7 v 7 h -7 v -7 m 28,0 h 7 v 7 h -7 v -7 m 7,0 h 7 v 7 h -7 v -7 m 42,0 h 7 v 7 h -7 v -7 m 7,0 h 7 v 7 h -7 v -7 m 21,0 h 7 v 7 h -7 v -7 m 21,0 h 7 v 7 h -7 v -7 m 7,0 h 7 v 7 h -7 v -7 m 21,0 h 7 v 7 h -7 v -7 m 14,0 h 7 v 7 h -7 V 91 M 0,98 h 7 v 7 H 0 v -7 m 7,0 h 7 v 7 H 7 v -7 m 7,0 h 7 v 7 h -7 v -7 m 14,0 h 7 v 7 h -7 v -7 m 7,0 h 7 v 7 h -7 v -7 m 7,0 h 7 v 7 h -7 v -7 m 7,0 h 7 v 7 h -7 v -7 m 14,0 h 7 v 7 h -7 v -7 m 14,0 h 7 v 7 h -7 v -7 m 7,0 h 7 v 7 h -7 v -7 m 7,0 h 7 v 7 h -7 v -7 m 7,0 h 7 v 7 h -7 v -7 m 7,0 h 7 v 7 h -7 v -7 m 7,0 h 7 v 7 h -7 v -7 m 7,0 h 7 v 7 h -7 v -7 m 14,0 h 7 v 7 h -7 v -7 m 7,0 h 7 v 7 h -7 v -7 m 21,0 h 7 v 7 h -7 v -7 m 7,0 h 7 v 7 h -7 v -7 m 7,0 h 7 v 7 h -7 v -7 m 7,0 h 7 v 7 h -7 v -7 m 14,0 h 7 v 7 h -7 v -7 m -168,7 h 7 v 7 h -7 v -7 m 7,0 h 7 v 7 h -7 v -7 m 35,0 h 7 v 7 h -7 v -7 m 28,0 h 7 v 7 h -7 v -7 m 7,0 h 7 v 7 h -7 v -7 m 28,0 h 7 v 7 h -7 v -7 m 21,0 h 7 v 7 h -7 v -7 m 7,0 h 7 v 7 h -7 v -7 m 7,0 h 7 v 7 h -7 v -7 m 7,0 h 7 v 7 h -7 v -7 M 7,112 h 7 v 7 H 7 v -7 m 7,0 h 7 v 7 h -7 v -7 m 14,0 h 7 v 7 h -7 v -7 m 14,0 h 7 v 7 h -7 v -7 m 35,0 h 7 v 7 h -7 v -7 m 14,0 h 7 v 7 h -7 v -7 m 7,0 h 7 v 7 h -7 v -7 m 35,0 h 7 v 7 h -7 v -7 m 21,0 h 7 v 7 h -7 v -7 m 7,0 h 7 v 7 h -7 v -7 m 7,0 h 7 v 7 h -7 v -7 m 28,0 h 7 v 7 h -7 v -7 m -182,7 h 7 v 7 h -7 v -7 m 14,0 h 7 v 7 h -7 v -7 m 7,0 h 7 v 7 h -7 v -7 m 14,0 h 7 v 7 h -7 v -7 m 7,0 h 7 v 7 h -7 v -7 m 7,0 h 7 v 7 h -7 v -7 m 7,0 h 7 v 7 h -7 v -7 m 14,0 h 7 v 7 h -7 v -7 m 7,0 h 7 v 7 h -7 v -7 m 7,0 h 7 v 7 h -7 v -7 m 7,0 h 7 v 7 h -7 v -7 m 7,0 h 7 v 7 h -7 v -7 m 14,0 h 7 v 7 h -7 v -7 m 14,0 h 7 v 7 h -7 v -7 m 7,0 h 7 v 7 h -7 v -7 m 14,0 h 7 v 7 h -7 v -7 m 28,0 h 7 v 7 h -7 v -7 m 7,0 h 7 v 7 h -7 v -7 M 0,126 h 7 v 7 H 0 v -7 m 7,0 h 7 v 7 H 7 v -7 m 7,0 h 7 v 7 h -7 v -7 m 7,0 h 7 v 7 h -7 v -7 m 7,0 h 7 v 7 h -7 v -7 m 7,0 h 7 v 7 h -7 v -7 m 7,0 h 7 v 7 h -7 v -7 m 7,0 h 7 v 7 h -7 v -7 m 21,0 h 7 v 7 h -7 v -7 m 7,0 h 7 v 7 h -7 v -7 m 7,0 h 7 v 7 h -7 v -7 m 21,0 h 7 v 7 h -7 v -7 m 7,0 h 7 v 7 h -7 v -7 m 21,0 h 7 v 7 h -7 v -7 m 14,0 h 7 v 7 h -7 v -7 m 21,0 h 7 v 7 h -7 v -7 m 7,0 h 7 v 7 h -7 v -7 m 7,0 h 7 v 7 h -7 v -7 m 7,0 h 7 v 7 h -7 v -7 m 7,0 h 7 v 7 h -7 v -7 m -182,7 h 7 v 7 h -7 v -7 m 21,0 h 7 v 7 h -7 v -7 m 14,0 h 7 v 7 h -7 v -7 m 7,0 h 7 v 7 h -7 v -7 m 7,0 h 7 v 7 h -7 v -7 m 14,0 h 7 v 7 h -7 v -7 m 7,0 h 7 v 7 h -7 v -7 m 7,0 h 7 v 7 h -7 v -7 m 35,0 h 7 v 7 h -7 v -7 m 14,0 h 7 v 7 h -7 v -7 m 14,0 h 7 v 7 h -7 v -7 m 21,0 h 7 v 7 h -7 v -7 m 14,0 h 7 v 7 h -7 v -7 M 0,140 h 7 v 7 H 0 v -7 m 7,0 h 7 v 7 H 7 v -7 m 21,0 h 7 v 7 h -7 v -7 m 14,0 h 7 v 7 h -7 v -7 m 7,0 h 7 v 7 h -7 v -7 m 14,0 h 7 v 7 h -7 v -7 m 28,0 h 7 v 7 h -7 v -7 m 21,0 h 7 v 7 h -7 v -7 m 14,0 h 7 v 7 h -7 v -7 m 7,0 h 7 v 7 h -7 v -7 m 7,0 h 7 v 7 h -7 v -7 m 7,0 h 7 v 7 h -7 v -7 m 7,0 h 7 v 7 h -7 v -7 m 7,0 h 7 v 7 h -7 v -7 m 7,0 h 7 v 7 h -7 v -7 m 21,0 h 7 v 7 h -7 v -7 m 7,0 h 7 v 7 h -7 v -7 m -140,7 h 7 v 7 h -7 v -7 m 28,0 h 7 v 7 h -7 v -7 m 28,0 h 7 v 7 h -7 v -7 m 14,0 h 7 v 7 h -7 v -7 m 7,0 h 7 v 7 h -7 v -7 m 7,0 h 7 v 7 h -7 v -7 m 28,0 h 7 v 7 h -7 v -7 m 7,0 h 7 v 7 h -7 v -7 m 14,0 h 7 v 7 h -7 v -7 m 7,0 h 7 v 7 h -7 v -7 M 0,154 h 7 v 7 H 0 v -7 m 7,0 h 7 v 7 H 7 v -7 m 7,0 h 7 v 7 h -7 v -7 m 7,0 h 7 v 7 h -7 v -7 m 7,0 h 7 v 7 h -7 v -7 m 7,0 h 7 v 7 h -7 v -7 m 7,0 h 7 v 7 h -7 v -7 m 14,0 h 7 v 7 h -7 v -7 m 7,0 h 7 v 7 h -7 v -7 m 28,0 h 7 v 7 h -7 v -7 m 7,0 h 7 v 7 h -7 v -7 m 7,0 h 7 v 7 h -7 v -7 m 7,0 h 7 v 7 h -7 v -7 m 7,0 h 7 v 7 h -7 v -7 m 7,0 h 7 v 7 h -7 v -7 m 14,0 h 7 v 7 h -7 v -7 m 14,0 h 7 v 7 h -7 v -7 m 14,0 h 7 v 7 h -7 v -7 m 14,0 h 7 v 7 h -7 v -7 m 7,0 h 7 v 7 h -7 v -7 m 7,0 h 7 v 7 h -7 v -7 M 0,161 h 7 v 7 H 0 v -7 m 42,0 h 7 v 7 h -7 v -7 m 35,0 h 7 v 7 h -7 v -7 m 7,0 h 7 v 7 h -7 v -7 m 14,0 h 7 v 7 h -7 v -7 m 14,0 h 7 v 7 h -7 v -7 m 14,0 h 7 v 7 h -7 v -7 m 14,0 h 7 v 7 h -7 v -7 m 28,0 h 7 v 7 h -7 v -7 m 28,0 h 7 v 7 h -7 v -7 M 0,168 h 7 v 7 H 0 v -7 m 14,0 h 7 v 7 h -7 v -7 m 7,0 h 7 v 7 h -7 v -7 m 7,0 h 7 v 7 h -7 v -7 m 14,0 h 7 v 7 h -7 v -7 m 21,0 h 7 v 7 h -7 v -7 m 14,0 h 7 v 7 h -7 v -7 m 7,0 h 7 v 7 h -7 v -7 m 7,0 h 7 v 7 h -7 v -7 m 7,0 h 7 v 7 h -7 v -7 m 7,0 h 7 v 7 h -7 v -7 m 28,0 h 7 v 7 h -7 v -7 m 7,0 h 7 v 7 h -7 v -7 m 7,0 h 7 v 7 h -7 v -7 m 7,0 h 7 v 7 h -7 v -7 m 7,0 h 7 v 7 h -7 v -7 m 7,0 h 7 v 7 h -7 v -7 m 21,0 h 7 v 7 h -7 v -7 m 7,0 h 7 v 7 h -7 v -7 M 0,175 h 7 v 7 H 0 v -7 m 14,0 h 7 v 7 h -7 v -7 m 7,0 h 7 v 7 h -7 v -7 m 7,0 h 7 v 7 h -7 v -7 m 14,0 h 7 v 7 h -7 v -7 m 21,0 h 7 v 7 h -7 v -7 m 7,0 h 7 v 7 h -7 v -7 m 14,0 h 7 v 7 h -7 v -7 m 7,0 h 7 v 7 h -7 v -7 m 7,0 h 7 v 7 h -7 v -7 m 7,0 h 7 v 7 h -7 v -7 m 7,0 h 7 v 7 h -7 v -7 m 14,0 h 7 v 7 h -7 v -7 m 21,0 h 7 v 7 h -7 v -7 m 14,0 h 7 v 7 h -7 v -7 m 21,0 h 7 v 7 h -7 v -7 m 14,0 h 7 v 7 h -7 v -7 M 0,182 h 7 v 7 H 0 v -7 m 14,0 h 7 v 7 h -7 v -7 m 7,0 h 7 v 7 h -7 v -7 m 7,0 h 7 v 7 h -7 v -7 m 14,0 h 7 v 7 h -7 v -7 m 14,0 h 7 v 7 h -7 v -7 m 28,0 h 7 v 7 h -7 v -7 m 21,0 h 7 v 7 h -7 v -7 m 7,0 h 7 v 7 h -7 v -7 m 7,0 h 7 v 7 h -7 v -7 m 7,0 h 7 v 7 h -7 v -7 m 42,0 h 7 v 7 h -7 v -7 m 14,0 h 7 v 7 h -7 v -7 m 7,0 h 7 v 7 h -7 v -7 m 7,0 h 7 v 7 h -7 v -7 M 0,189 h 7 v 7 H 0 v -7 m 42,0 h 7 v 7 h -7 v -7 m 28,0 h 7 v 7 h -7 v -7 m 7,0 h 7 v 7 h -7 v -7 m 7,0 h 7 v 7 h -7 v -7 m 7,0 h 7 v 7 h -7 v -7 m 7,0 h 7 v 7 h -7 v -7 m 28,0 h 7 v 7 h -7 v -7 M 0,196 h 7 v 7 H 0 v -7 m 7,0 h 7 v 7 H 7 v -7 m 7,0 h 7 v 7 h -7 v -7 m 7,0 h 7 v 7 h -7 v -7 m 7,0 h 7 v 7 h -7 v -7 m 7,0 h 7 v 7 h -7 v -7 m 7,0 h 7 v 7 h -7 v -7 m 14,0 h 7 v 7 h -7 v -7 m 7,0 h 7 v 7 h -7 v -7 m 21,0 h 7 v 7 h -7 v -7 m 35,0 h 7 v 7 h -7 v -7 m 21,0 h 7 v 7 h -7 v -7 m 28,0 h 7 v 7 h -7 v -7 m 28,0 h 7 v 7 h -7 v -7"
     id="path1" />
  <g
     id="_1421344023328"
     transform="matrix(0.01710961,0,0,0.01710768,66.500016,66.49999)"
     style="stroke-width:58.4499">
    <path
       fill="#f7931a"
       fill-rule="nonzero"
       d="M 4030.06,2540.77 C 3756.82,3636.78 2646.74,4303.79 1550.6,4030.48 454.92,3757.24 -212.09,2647.09 61.27,1551.17 334.39,455.04 1444.47,-212.02 2540.27,61.22 3636.33,334.46 4303.3,1444.73 4030.03,2540.79 l 0.02,-0.02 z"
       id="path1-5"
       style="stroke-width:58.4499" />
    <path
       fill="#ffffff"
       fill-rule="nonzero"
       d="m 2947.77,1754.38 c 40.72,-272.26 -166.56,-418.61 -450,-516.24 l 91.95,-368.8 -224.5,-55.94 -89.51,359.09 c -59.02,-14.72 -119.63,-28.59 -179.87,-42.34 l 90.16,-361.46 -224.36,-55.94 -92,368.68 c -48.84,-11.12 -96.81,-22.11 -143.35,-33.69 l 0.26,-1.16 -309.59,-77.31 -59.72,239.78 c 0,0 166.56,38.18 163.05,40.53 90.91,22.69 107.35,82.87 104.62,130.57 l -104.74,420.15 c 6.26,1.59 14.38,3.89 23.34,7.49 -7.49,-1.86 -15.46,-3.89 -23.73,-5.87 l -146.81,588.57 c -11.11,27.62 -39.31,69.07 -102.87,53.33 2.25,3.26 -163.17,-40.72 -163.17,-40.72 l -111.46,256.98 292.15,72.83 c 54.35,13.63 107.61,27.89 160.06,41.3 l -92.9,373.03 224.24,55.94 92,-369.07 c 61.26,16.63 120.71,31.97 178.91,46.43 l -91.69,367.33 224.51,55.94 92.89,-372.33 c 382.82,72.45 670.67,43.24 791.83,-303.02 97.63,-278.78 -4.86,-439.58 -206.26,-544.44 146.69,-33.83 257.18,-130.31 286.64,-329.61 l -0.07,-0.05 z m -512.93,719.26 c -69.38,278.78 -538.76,128.08 -690.94,90.29 l 123.28,-494.2 c 152.17,37.99 640.17,113.17 567.67,403.91 z m 69.43,-723.3 c -63.29,253.58 -453.96,124.75 -580.69,93.16 l 111.77,-448.21 c 126.73,31.59 534.85,90.55 468.94,355.05 z"
       id="path2"
       style="stroke-width:58.4499" />
  </g>
</svg>
