<?xml version="1.0" encoding="UTF-8" standalone="no"?>
<svg
   version="1.1"
   width="203"
   height="203"
   viewBox="0 0 203 203"
   shape-rendering="crispEdges"
   id="svg1"
   sodipodi:docname="ethereum.svg"
   inkscape:version="1.3.2 (091e20ef0f, 2023-11-25, custom)"
   xmlns:inkscape="http://www.inkscape.org/namespaces/inkscape"
   xmlns:sodipodi="http://sodipodi.sourceforge.net/DTD/sodipodi-0.dtd"
   xmlns="http://www.w3.org/2000/svg"
   xmlns:svg="http://www.w3.org/2000/svg">
  <defs
     id="defs1" />
  <sodipodi:namedview
     id="namedview1"
     pagecolor="#505050"
     bordercolor="#ffffff"
     borderopacity="1"
     inkscape:showpageshadow="0"
     inkscape:pageopacity="0"
     inkscape:pagecheckerboard="1"
     inkscape:deskcolor="#d1d1d1"
     inkscape:zoom="3.1922244"
     inkscape:cx="68.290938"
     inkscape:cy="157.57038"
     inkscape:window-width="3840"
     inkscape:window-height="2053"
     inkscape:window-x="1080"
     inkscape:window-y="0"
     inkscape:window-maximized="1"
     inkscape:current-layer="svg1" />
  <path
     class="qrcode"
     fill="#000000"
     d="M 0,0 H 7 V 7 H 0 V 0 m 7,0 h 7 V 7 H 7 V 0 m 7,0 h 7 V 7 H 14 V 0 m 7,0 h 7 V 7 H 21 V 0 m 7,0 h 7 V 7 H 28 V 0 m 7,0 h 7 V 7 H 35 V 0 m 7,0 h 7 V 7 H 42 V 0 m 84,0 h 7 v 7 h -7 V 0 m 7,0 h 7 v 7 h -7 V 0 m 7,0 h 7 v 7 h -7 V 0 m 14,0 h 7 v 7 h -7 V 0 m 7,0 h 7 v 7 h -7 V 0 m 7,0 h 7 v 7 h -7 V 0 m 7,0 h 7 v 7 h -7 V 0 m 7,0 h 7 v 7 h -7 V 0 m 7,0 h 7 v 7 h -7 V 0 m 7,0 h 7 v 7 h -7 V 0 M 0,7 h 7 v 7 H 0 V 7 m 42,0 h 7 v 7 H 42 V 7 m 21,0 h 7 v 7 H 63 V 7 m 7,0 h 7 v 7 H 70 V 7 m 14,0 h 7 v 7 H 84 V 7 m 28,0 h 7 v 7 h -7 V 7 m 14,0 h 7 v 7 h -7 V 7 m 14,0 h 7 v 7 h -7 V 7 m 14,0 h 7 v 7 h -7 V 7 m 42,0 h 7 v 7 h -7 V 7 M 0,14 h 7 v 7 H 0 v -7 m 14,0 h 7 v 7 h -7 v -7 m 7,0 h 7 v 7 h -7 v -7 m 7,0 h 7 v 7 h -7 v -7 m 14,0 h 7 v 7 h -7 v -7 m 14,0 h 7 v 7 h -7 v -7 m 49,0 h 7 v 7 h -7 v -7 m 28,0 h 7 v 7 h -7 v -7 m 21,0 h 7 v 7 h -7 v -7 m 14,0 h 7 v 7 h -7 v -7 m 7,0 h 7 v 7 h -7 v -7 m 7,0 h 7 v 7 h -7 v -7 m 14,0 h 7 v 7 h -7 V 14 M 0,21 h 7 v 7 H 0 v -7 m 14,0 h 7 v 7 h -7 v -7 m 7,0 h 7 v 7 h -7 v -7 m 7,0 h 7 v 7 h -7 v -7 m 14,0 h 7 v 7 h -7 v -7 m 14,0 h 7 v 7 h -7 v -7 m 14,0 h 7 v 7 h -7 v -7 m 14,0 h 7 v 7 h -7 v -7 m 7,0 h 7 v 7 h -7 v -7 m 14,0 h 7 v 7 h -7 v -7 m 21,0 h 7 v 7 h -7 v -7 m 28,0 h 7 v 7 h -7 v -7 m 14,0 h 7 v 7 h -7 v -7 m 7,0 h 7 v 7 h -7 v -7 m 7,0 h 7 v 7 h -7 v -7 m 14,0 h 7 v 7 h -7 V 21 M 0,28 h 7 v 7 H 0 v -7 m 14,0 h 7 v 7 h -7 v -7 m 7,0 h 7 v 7 h -7 v -7 m 7,0 h 7 v 7 h -7 v -7 m 14,0 h 7 v 7 h -7 v -7 m 14,0 h 7 v 7 h -7 v -7 m 14,0 h 7 v 7 h -7 v -7 m 42,0 h 7 v 7 h -7 v -7 m 28,0 h 7 v 7 h -7 v -7 m 14,0 h 7 v 7 h -7 v -7 m 14,0 h 7 v 7 h -7 v -7 m 7,0 h 7 v 7 h -7 v -7 m 7,0 h 7 v 7 h -7 v -7 m 14,0 h 7 v 7 h -7 V 28 M 0,35 h 7 v 7 H 0 v -7 m 42,0 h 7 v 7 h -7 v -7 m 14,0 h 7 v 7 h -7 v -7 m 14,0 h 7 v 7 h -7 v -7 m 21,0 h 7 v 7 h -7 v -7 m 14,0 h 7 v 7 h -7 v -7 m 21,0 h 7 v 7 h -7 v -7 m 14,0 h 7 v 7 h -7 v -7 m 14,0 h 7 v 7 h -7 v -7 m 42,0 h 7 v 7 h -7 V 35 M 0,42 h 7 v 7 H 0 v -7 m 7,0 h 7 v 7 H 7 v -7 m 7,0 h 7 v 7 h -7 v -7 m 7,0 h 7 v 7 h -7 v -7 m 7,0 h 7 v 7 h -7 v -7 m 7,0 h 7 v 7 h -7 v -7 m 7,0 h 7 v 7 h -7 v -7 m 14,0 h 7 v 7 h -7 v -7 m 14,0 h 7 v 7 h -7 v -7 m 14,0 h 7 v 7 h -7 v -7 m 14,0 h 7 v 7 h -7 v -7 m 14,0 h 7 v 7 h -7 v -7 m 14,0 h 7 v 7 h -7 v -7 m 14,0 h 7 v 7 h -7 v -7 m 14,0 h 7 v 7 h -7 v -7 m 7,0 h 7 v 7 h -7 v -7 m 7,0 h 7 v 7 h -7 v -7 m 7,0 h 7 v 7 h -7 v -7 m 7,0 h 7 v 7 h -7 v -7 m 7,0 h 7 v 7 h -7 v -7 m 7,0 h 7 v 7 h -7 V 42 M 56,49 h 7 v 7 h -7 v -7 m 28,0 h 7 v 7 h -7 v -7 m 14,0 h 7 v 7 h -7 v -7 m 28,0 h 7 v 7 h -7 v -7 m 7,0 h 7 v 7 h -7 V 49 M 0,56 h 7 v 7 H 0 v -7 m 14,0 h 7 v 7 h -7 v -7 m 7,0 h 7 v 7 h -7 v -7 m 7,0 h 7 v 7 h -7 v -7 m 7,0 h 7 v 7 h -7 v -7 m 7,0 h 7 v 7 h -7 v -7 m 21,0 h 7 v 7 h -7 v -7 m 21,0 h 7 v 7 h -7 v -7 m 21,0 h 7 v 7 h -7 v -7 m 7,0 h 7 v 7 h -7 v -7 m 14,0 h 7 v 7 h -7 v -7 m 14,0 h 7 v 7 h -7 v -7 m 14,0 h 7 v 7 h -7 v -7 m 7,0 h 7 v 7 h -7 v -7 m 7,0 h 7 v 7 h -7 v -7 m 7,0 h 7 v 7 h -7 v -7 m 7,0 h 7 v 7 h -7 V 56 M 7,63 h 7 v 7 H 7 v -7 m 21,0 h 7 v 7 h -7 v -7 m 7,0 h 7 v 7 h -7 v -7 m 14,0 h 7 v 7 h -7 v -7 m 7,0 h 7 v 7 h -7 v -7 m 14,0 h 7 v 7 h -7 v -7 m 28,0 h 7 v 7 h -7 v -7 m 35,0 h 7 v 7 h -7 v -7 m 14,0 h 7 v 7 h -7 v -7 m 14,0 h 7 v 7 h -7 v -7 m 7,0 h 7 v 7 h -7 v -7 m 7,0 h 7 v 7 h -7 v -7 m 21,0 h 7 v 7 h -7 V 63 M 0,70 h 7 v 7 H 0 v -7 m 14,0 h 7 v 7 h -7 v -7 m 28,0 h 7 v 7 h -7 v -7 m 7,0 h 7 v 7 h -7 v -7 m 14,0 h 7 v 7 h -7 v -7 m 7,0 h 7 v 7 h -7 v -7 m 14,0 h 7 v 7 h -7 v -7 m 7,0 h 7 v 7 h -7 v -7 m 14,0 h 7 v 7 h -7 v -7 m 7,0 h 7 v 7 h -7 v -7 m 14,0 h 7 v 7 h -7 v -7 m 14,0 h 7 v 7 h -7 v -7 m 35,0 h 7 v 7 h -7 v -7 m 7,0 h 7 v 7 h -7 v -7 m 7,0 h 7 v 7 h -7 V 70 M 21,77 h 7 v 7 h -7 v -7 m 35,0 h 7 v 7 h -7 v -7 m 7,0 h 7 v 7 h -7 v -7 m 7,0 h 7 v 7 h -7 v -7 m 28,0 h 7 v 7 h -7 v -7 m 21,0 h 7 v 7 h -7 v -7 m 7,0 h 7 v 7 h -7 v -7 m 14,0 h 7 v 7 h -7 v -7 m 21,0 h 7 v 7 h -7 v -7 m 7,0 h 7 v 7 h -7 V 77 M 0,84 h 7 v 7 H 0 v -7 m 7,0 h 7 v 7 H 7 v -7 m 7,0 h 7 v 7 h -7 v -7 m 14,0 h 7 v 7 h -7 v -7 m 7,0 h 7 v 7 h -7 v -7 m 7,0 h 7 v 7 h -7 v -7 m 7,0 h 7 v 7 h -7 v -7 m 14,0 h 7 v 7 h -7 v -7 m 7,0 h 7 v 7 h -7 v -7 m 7,0 h 7 v 7 h -7 v -7 m 7,0 h 7 v 7 h -7 v -7 m 7,0 h 7 v 7 h -7 v -7 m 21,0 h 7 v 7 h -7 v -7 m 7,0 h 7 v 7 h -7 v -7 m 21,0 h 7 v 7 h -7 v -7 m 7,0 h 7 v 7 h -7 v -7 m 28,0 h 7 v 7 h -7 v -7 m 7,0 h 7 v 7 h -7 v -7 m 7,0 h 7 v 7 h -7 V 84 M 0,91 h 7 v 7 H 0 v -7 m 14,0 h 7 v 7 h -7 v -7 m 7,0 h 7 v 7 h -7 v -7 m 28,0 h 7 v 7 h -7 v -7 m 7,0 h 7 v 7 h -7 v -7 m 14,0 h 7 v 7 h -7 v -7 m 7,0 h 7 v 7 h -7 v -7 m 14,0 h 7 v 7 h -7 v -7 m 14,0 h 7 v 7 h -7 v -7 m 7,0 h 7 v 7 h -7 v -7 m 7,0 h 7 v 7 h -7 v -7 m 14,0 h 7 v 7 h -7 v -7 m 21,0 h 7 v 7 h -7 v -7 m 7,0 h 7 v 7 h -7 v -7 m 7,0 h 7 v 7 h -7 v -7 m 21,0 h 7 v 7 h -7 V 91 M 21,98 h 7 v 7 h -7 v -7 m 7,0 h 7 v 7 h -7 v -7 m 14,0 h 7 v 7 h -7 v -7 m 7,0 h 7 v 7 h -7 v -7 m 14,0 h 7 v 7 h -7 v -7 m 7,0 h 7 v 7 h -7 v -7 m 56,0 h 7 v 7 h -7 v -7 m 14,0 h 7 v 7 h -7 v -7 m 7,0 h 7 v 7 h -7 v -7 m 7,0 h 7 v 7 h -7 v -7 m 14,0 h 7 v 7 h -7 v -7 m 7,0 h 7 v 7 h -7 v -7 m 7,0 h 7 v 7 h -7 V 98 M 0,105 h 7 v 7 H 0 v -7 m 7,0 h 7 v 7 H 7 v -7 m 7,0 h 7 v 7 h -7 v -7 m 14,0 h 7 v 7 h -7 v -7 m 21,0 h 7 v 7 h -7 v -7 m 35,0 h 7 v 7 h -7 v -7 m 7,0 h 7 v 7 h -7 v -7 m 7,0 h 7 v 7 h -7 v -7 m 63,0 h 7 v 7 h -7 v -7 m 7,0 h 7 v 7 h -7 v -7 m 7,0 h 7 v 7 h -7 v -7 m 14,0 h 7 v 7 h -7 v -7 M 0,112 h 7 v 7 H 0 v -7 m 7,0 h 7 v 7 H 7 v -7 m 14,0 h 7 v 7 h -7 v -7 m 14,0 h 7 v 7 h -7 v -7 m 7,0 h 7 v 7 h -7 v -7 m 7,0 h 7 v 7 h -7 v -7 m 28,0 h 7 v 7 h -7 v -7 m 7,0 h 7 v 7 h -7 v -7 m 7,0 h 7 v 7 h -7 v -7 m 14,0 h 7 v 7 h -7 v -7 m 14,0 h 7 v 7 h -7 v -7 m 28,0 h 7 v 7 h -7 v -7 m 14,0 h 7 v 7 h -7 v -7 m 28,0 h 7 v 7 h -7 v -7 m 7,0 h 7 v 7 h -7 v -7 M 0,119 h 7 v 7 H 0 v -7 m 21,0 h 7 v 7 h -7 v -7 m 7,0 h 7 v 7 h -7 v -7 m 7,0 h 7 v 7 h -7 v -7 m 14,0 h 7 v 7 h -7 v -7 m 14,0 h 7 v 7 h -7 v -7 m 7,0 h 7 v 7 h -7 v -7 m 7,0 h 7 v 7 h -7 v -7 m 21,0 h 7 v 7 h -7 v -7 m 28,0 h 7 v 7 h -7 v -7 m 7,0 h 7 v 7 h -7 v -7 m 7,0 h 7 v 7 h -7 v -7 m 14,0 h 7 v 7 h -7 v -7 m 14,0 h 7 v 7 h -7 v -7 m 28,0 h 7 v 7 h -7 v -7 M 0,126 h 7 v 7 H 0 v -7 m 21,0 h 7 v 7 h -7 v -7 m 14,0 h 7 v 7 h -7 v -7 m 7,0 h 7 v 7 h -7 v -7 m 7,0 h 7 v 7 h -7 v -7 m 14,0 h 7 v 7 h -7 v -7 m 7,0 h 7 v 7 h -7 v -7 m 7,0 h 7 v 7 h -7 v -7 m 28,0 h 7 v 7 h -7 v -7 m 42,0 h 7 v 7 h -7 v -7 m 21,0 h 7 v 7 h -7 v -7 m 14,0 h 7 v 7 h -7 v -7 M 0,133 h 7 v 7 H 0 v -7 m 14,0 h 7 v 7 h -7 v -7 m 7,0 h 7 v 7 h -7 v -7 m 35,0 h 7 v 7 h -7 v -7 m 21,0 h 7 v 7 h -7 v -7 m 14,0 h 7 v 7 h -7 v -7 m 7,0 h 7 v 7 h -7 v -7 m 7,0 h 7 v 7 h -7 v -7 m 21,0 h 7 v 7 h -7 v -7 m 14,0 h 7 v 7 h -7 v -7 m 28,0 h 7 v 7 h -7 v -7 m 21,0 h 7 v 7 h -7 v -7 M 0,140 h 7 v 7 H 0 v -7 m 14,0 h 7 v 7 h -7 v -7 m 7,0 h 7 v 7 h -7 v -7 m 14,0 h 7 v 7 h -7 v -7 m 7,0 h 7 v 7 h -7 v -7 m 14,0 h 7 v 7 h -7 v -7 m 7,0 h 7 v 7 h -7 v -7 m 7,0 h 7 v 7 h -7 v -7 m 21,0 h 7 v 7 h -7 v -7 m 14,0 h 7 v 7 h -7 v -7 m 7,0 h 7 v 7 h -7 v -7 m 14,0 h 7 v 7 h -7 v -7 m 14,0 h 7 v 7 h -7 v -7 m 7,0 h 7 v 7 h -7 v -7 m 7,0 h 7 v 7 h -7 v -7 m 7,0 h 7 v 7 h -7 v -7 m 7,0 h 7 v 7 h -7 v -7 m 7,0 h 7 v 7 h -7 v -7 m 7,0 h 7 v 7 h -7 v -7 m 7,0 h 7 v 7 h -7 v -7 m -133,7 h 7 v 7 h -7 v -7 m 21,0 h 7 v 7 h -7 v -7 m 7,0 h 7 v 7 h -7 v -7 m 14,0 h 7 v 7 h -7 v -7 m 7,0 h 7 v 7 h -7 v -7 m 21,0 h 7 v 7 h -7 v -7 m 7,0 h 7 v 7 h -7 v -7 m 7,0 h 7 v 7 h -7 v -7 m 28,0 h 7 v 7 h -7 v -7 m 28,0 h 7 v 7 h -7 v -7 M 0,154 h 7 v 7 H 0 v -7 m 7,0 h 7 v 7 H 7 v -7 m 7,0 h 7 v 7 h -7 v -7 m 7,0 h 7 v 7 h -7 v -7 m 7,0 h 7 v 7 h -7 v -7 m 7,0 h 7 v 7 h -7 v -7 m 7,0 h 7 v 7 h -7 v -7 m 21,0 h 7 v 7 h -7 v -7 m 21,0 h 7 v 7 h -7 v -7 m 21,0 h 7 v 7 h -7 v -7 m 14,0 h 7 v 7 h -7 v -7 m 7,0 h 7 v 7 h -7 v -7 m 7,0 h 7 v 7 h -7 v -7 m 7,0 h 7 v 7 h -7 v -7 m 14,0 h 7 v 7 h -7 v -7 m 14,0 h 7 v 7 h -7 v -7 m 7,0 h 7 v 7 h -7 v -7 m 14,0 h 7 v 7 h -7 v -7 M 0,161 h 7 v 7 H 0 v -7 m 42,0 h 7 v 7 h -7 v -7 m 14,0 h 7 v 7 h -7 v -7 m 7,0 h 7 v 7 h -7 v -7 m 21,0 h 7 v 7 h -7 v -7 m 21,0 h 7 v 7 h -7 v -7 m 7,0 h 7 v 7 h -7 v -7 m 28,0 h 7 v 7 h -7 v -7 m 28,0 h 7 v 7 h -7 v -7 m 28,0 h 7 v 7 h -7 v -7 M 0,168 h 7 v 7 H 0 v -7 m 14,0 h 7 v 7 h -7 v -7 m 7,0 h 7 v 7 h -7 v -7 m 7,0 h 7 v 7 h -7 v -7 m 14,0 h 7 v 7 h -7 v -7 m 14,0 h 7 v 7 h -7 v -7 m 14,0 h 7 v 7 h -7 v -7 m 14,0 h 7 v 7 h -7 v -7 m 21,0 h 7 v 7 h -7 v -7 m 14,0 h 7 v 7 h -7 v -7 m 21,0 h 7 v 7 h -7 v -7 m 7,0 h 7 v 7 h -7 v -7 m 7,0 h 7 v 7 h -7 v -7 m 7,0 h 7 v 7 h -7 v -7 m 7,0 h 7 v 7 h -7 v -7 m 7,0 h 7 v 7 h -7 v -7 m 7,0 h 7 v 7 h -7 v -7 M 0,175 h 7 v 7 H 0 v -7 m 14,0 h 7 v 7 h -7 v -7 m 7,0 h 7 v 7 h -7 v -7 m 7,0 h 7 v 7 h -7 v -7 m 14,0 h 7 v 7 h -7 v -7 m 14,0 h 7 v 7 h -7 v -7 m 21,0 h 7 v 7 h -7 v -7 m 7,0 h 7 v 7 h -7 v -7 m 7,0 h 7 v 7 h -7 v -7 m 21,0 h 7 v 7 h -7 v -7 m 14,0 h 7 v 7 h -7 v -7 m 14,0 h 7 v 7 h -7 v -7 m 21,0 h 7 v 7 h -7 v -7 m 14,0 h 7 v 7 h -7 v -7 M 0,182 h 7 v 7 H 0 v -7 m 14,0 h 7 v 7 h -7 v -7 m 7,0 h 7 v 7 h -7 v -7 m 7,0 h 7 v 7 h -7 v -7 m 14,0 h 7 v 7 h -7 v -7 m 14,0 h 7 v 7 h -7 v -7 m 7,0 h 7 v 7 h -7 v -7 m 7,0 h 7 v 7 h -7 v -7 m 28,0 h 7 v 7 h -7 v -7 m 7,0 h 7 v 7 h -7 v -7 m 7,0 h 7 v 7 h -7 v -7 m 14,0 h 7 v 7 h -7 v -7 m 7,0 h 7 v 7 h -7 v -7 m 14,0 h 7 v 7 h -7 v -7 m 21,0 h 7 v 7 h -7 v -7 m 21,0 h 7 v 7 h -7 v -7 M 0,189 h 7 v 7 H 0 v -7 m 42,0 h 7 v 7 h -7 v -7 m 21,0 h 7 v 7 h -7 v -7 m 21,0 h 7 v 7 h -7 v -7 m 14,0 h 7 v 7 h -7 v -7 m 7,0 h 7 v 7 h -7 v -7 m 28,0 h 7 v 7 h -7 v -7 m 7,0 h 7 v 7 h -7 v -7 m 7,0 h 7 v 7 h -7 v -7 m 28,0 h 7 v 7 h -7 v -7 m 14,0 h 7 v 7 h -7 v -7 M 0,196 h 7 v 7 H 0 v -7 m 7,0 h 7 v 7 H 7 v -7 m 7,0 h 7 v 7 h -7 v -7 m 7,0 h 7 v 7 h -7 v -7 m 7,0 h 7 v 7 h -7 v -7 m 7,0 h 7 v 7 h -7 v -7 m 7,0 h 7 v 7 h -7 v -7 m 14,0 h 7 v 7 h -7 v -7 m 14,0 h 7 v 7 h -7 v -7 m 7,0 h 7 v 7 h -7 v -7 m 14,0 h 7 v 7 h -7 v -7 m 14,0 h 7 v 7 h -7 v -7 m 7,0 h 7 v 7 h -7 v -7 m 7,0 h 7 v 7 h -7 v -7 m 7,0 h 7 v 7 h -7 v -7 m 42,0 h 7 v 7 h -7 v -7"
     id="path1" />
  <g
     transform="matrix(0.32600629,0,0,0.32600629,-332.20915,-105.99476)"
     id="g6"
     style="clip-rule:evenodd;fill-rule:evenodd;stroke-width:3.06743;stroke-linecap:round;stroke-linejoin:round;stroke-miterlimit:7">
    <g
       id="Ethereum"
       style="stroke-width:3.06743">
      <g
         id="Bottom"
         style="stroke-width:3.06743">
        <g
           id="Purple2"
           transform="matrix(1.08181,0,0,-1.03277,-108.829,1366.48)"
           style="stroke-width:3.06743">
          <g
             id="path1-2"
             style="stroke-width:3.06743">
            <path
               style="color:#000000;clip-rule:nonzero;fill:#c8b2f5;fill-rule:nonzero;stroke-width:3.06743;stroke-linecap:butt;stroke-linejoin:miter;-inkscape-stroke:none"
               d="m 1394.74,693.463 -64.38,-89.439 v 50.214 z"
               id="path7" />
            <path
               style="color:#000000;clip-rule:nonzero;fill:#3441c0;fill-rule:nonzero;stroke-width:3.06743;stroke-linecap:butt;stroke-linejoin:miter;-inkscape-stroke:none"
               d="m 1330.0117,602.94336 a 1.1351135,1.1351135 0 0 0 -0.7871,1.08008 v 50.21484 a 1.1351135,1.1351135 0 0 0 0.5449,0.96875 l 64.3809,39.22461 a 1.1351135,1.1351135 0 0 0 1.5117,-1.63086 l -64.3808,-89.43945 a 1.1351135,1.1351135 0 0 0 -1.2696,-0.41797 z m 1.4824,4.59961 59.0508,82.03515 -59.0508,-35.97851 z"
               id="path8" />
          </g>
        </g>
        <g
           id="Yellow2"
           transform="matrix(-1.08181,0,0,-1.03277,2769.57,1366.48)"
           style="stroke-width:3.06743">
          <g
             id="path2"
             style="stroke-width:3.06743">
            <path
               style="color:#000000;clip-rule:nonzero;fill:#eecbc0;fill-rule:nonzero;stroke-width:3.06743;stroke-linecap:butt;stroke-linejoin:miter;-inkscape-stroke:none"
               d="m 1394.74,693.463 -64.38,-89.439 v 50.214 z"
               id="path9" />
            <path
               style="color:#000000;clip-rule:nonzero;fill:#3441c0;fill-rule:nonzero;stroke-width:3.06743;stroke-linecap:butt;stroke-linejoin:miter;-inkscape-stroke:none"
               d="m 1330.0117,602.94336 a 1.1351135,1.1351135 0 0 0 -0.7871,1.08008 v 50.21484 a 1.1351135,1.1351135 0 0 0 0.5449,0.96875 l 64.3809,39.22461 a 1.1351135,1.1351135 0 0 0 1.5117,-1.63086 l -64.3808,-89.43945 a 1.1351135,1.1351135 0 0 0 -1.2696,-0.41797 z m 1.4824,4.59961 59.0508,82.03515 -59.0508,-35.97851 z"
               id="path10" />
          </g>
        </g>
      </g>
      <g
         id="Top"
         style="stroke-width:3.06743">
        <g
           id="Blue1"
           transform="matrix(-1,0,0,1,2659.32,-0.0263692)"
           style="stroke-width:3.06743">
          <g
             id="path3"
             style="stroke-width:3.06743">
            <path
               style="color:#000000;clip-rule:nonzero;fill:#87a9f0;fill-rule:nonzero;stroke-width:3.06743;stroke-linecap:butt;stroke-linejoin:miter;-inkscape-stroke:none"
               d="m 1398.61,639.614 -69.66,-30.973 v 70.608 z"
               id="path11" />
            <path
               style="color:#000000;clip-rule:nonzero;fill:#3441c0;fill-rule:nonzero;stroke-width:3.06743;stroke-linecap:butt;stroke-linejoin:miter;-inkscape-stroke:none"
               d="m 1329.4375,607.54492 a 1.20012,1.20012 0 0 0 -1.6875,1.0957 v 70.60743 a 1.20012,1.20012 0 0 0 1.793,1.04297 l 69.6601,-39.63477 a 1.20012,1.20012 0 0 0 -0.1054,-2.13867 z m 0.7129,2.94336 65.8008,29.25781 -65.8008,37.43946 z"
               id="path12" />
          </g>
        </g>
        <g
           id="Purple1"
           transform="translate(1.41643,-0.0263692)"
           style="stroke-width:3.06743">
          <g
             id="path4"
             style="stroke-width:3.06743">
            <path
               style="color:#000000;clip-rule:nonzero;fill:#cab3f5;fill-rule:nonzero;stroke-width:3.06743;stroke-linecap:butt;stroke-linejoin:miter;-inkscape-stroke:none"
               d="m 1398.61,639.614 -69.66,-30.973 v 70.608 z"
               id="path13" />
            <path
               style="color:#000000;clip-rule:nonzero;fill:#3441c0;fill-rule:nonzero;stroke-width:3.06743;stroke-linecap:butt;stroke-linejoin:miter;-inkscape-stroke:none"
               d="m 1329.4375,607.54492 a 1.20012,1.20012 0 0 0 -1.6875,1.0957 v 70.60743 a 1.20012,1.20012 0 0 0 1.793,1.04297 l 69.6601,-39.63477 a 1.20012,1.20012 0 0 0 -0.1054,-2.13867 z m 0.7129,2.94336 65.8008,29.25781 -65.8008,37.43946 z"
               id="path14" />
          </g>
        </g>
        <g
           id="Yellow1"
           transform="matrix(-1.08181,0,0,1.03277,2769.57,-93.5314)"
           style="stroke-width:3.06743">
          <g
             id="path5"
             style="stroke-width:3.06743">
            <path
               style="color:#000000;clip-rule:nonzero;fill:#eecbc0;fill-rule:nonzero;stroke-width:3.06743;stroke-linecap:butt;stroke-linejoin:miter;-inkscape-stroke:none"
               d="m 1394.74,709.855 -64.38,-105.831 v 75.841 z"
               id="path15" />
            <path
               style="color:#000000;clip-rule:nonzero;fill:#3441c0;fill-rule:nonzero;stroke-width:3.06743;stroke-linecap:butt;stroke-linejoin:miter;-inkscape-stroke:none"
               d="m 1330.0547,602.93164 a 1.1351135,1.1351135 0 0 0 -0.8301,1.0918 v 75.84179 a 1.1351135,1.1351135 0 0 0 0.6563,1.0293 l 64.3789,29.99024 a 1.1351135,1.1351135 0 0 0 1.4492,-1.61915 l -64.3789,-105.83203 a 1.1351135,1.1351135 0 0 0 -1.2754,-0.50195 z m 1.4394,5.13867 60.3282,99.17383 -60.3282,-28.10156 z"
               id="path16" />
          </g>
        </g>
        <g
           id="Green1"
           transform="matrix(1.08181,0,0,1.03277,-108.829,-93.5314)"
           style="stroke-width:3.06743">
          <g
             id="path6"
             style="stroke-width:3.06743">
            <path
               style="color:#000000;clip-rule:nonzero;fill:#b8fbf6;fill-rule:nonzero;stroke-width:3.06743;stroke-linecap:butt;stroke-linejoin:miter;-inkscape-stroke:none"
               d="m 1394.74,709.855 -64.38,-105.831 v 75.841 z"
               id="path17" />
            <path
               style="color:#000000;clip-rule:nonzero;fill:#3441c0;fill-rule:nonzero;stroke-width:3.06743;stroke-linecap:butt;stroke-linejoin:miter;-inkscape-stroke:none"
               d="m 1330.0547,602.93164 a 1.1351135,1.1351135 0 0 0 -0.8301,1.0918 v 75.84179 a 1.1351135,1.1351135 0 0 0 0.6563,1.0293 l 64.3789,29.99024 a 1.1351135,1.1351135 0 0 0 1.4492,-1.61915 l -64.3789,-105.83203 a 1.1351135,1.1351135 0 0 0 -1.2754,-0.50195 z m 1.4394,5.13867 60.3282,99.17383 -60.3282,-28.10156 z"
               id="path18" />
          </g>
        </g>
      </g>
    </g>
  </g>
</svg>
