<?xml version="1.0" encoding="UTF-8" standalone="no"?>
<svg
   version="1.1"
   width="231"
   height="231"
   viewBox="0 0 231 231"
   shape-rendering="crispEdges"
   id="svg1"
   sodipodi:docname="solana.svg"
   inkscape:version="1.3.2 (091e20ef0f, 2023-11-25, custom)"
   xmlns:inkscape="http://www.inkscape.org/namespaces/inkscape"
   xmlns:sodipodi="http://sodipodi.sourceforge.net/DTD/sodipodi-0.dtd"
   xmlns="http://www.w3.org/2000/svg"
   xmlns:svg="http://www.w3.org/2000/svg">
  <defs
     id="defs1">
    <radialGradient
       id="paint1_radial_478:878"
       cx="0"
       cy="0"
       r="1"
       gradientUnits="userSpaceOnUse"
       gradientTransform="matrix(0,21,-21,0,115.5,115.5)">
      <stop
         id="stop7" />
      <stop
         offset="1"
         stop-opacity="0"
         id="stop8" />
    </radialGradient>
    <linearGradient
       id="paint0_linear_478878"
       x1="1.21526"
       y1="40.8722"
       x2="42.729099"
       y2="3.5104101"
       gradientUnits="userSpaceOnUse"
       gradientTransform="matrix(1.75,0,0,1.75,80.5,80.5)">
      <stop
         stop-color="#9945FF"
         id="stop1" />
      <stop
         offset="0.14"
         stop-color="#8A53F4"
         id="stop2" />
      <stop
         offset="0.42"
         stop-color="#6377D6"
         id="stop3" />
      <stop
         offset="0.79"
         stop-color="#24B0A7"
         id="stop4" />
      <stop
         offset="0.99"
         stop-color="#00D18C"
         id="stop5" />
      <stop
         offset="1"
         stop-color="#00D18C"
         id="stop6" />
    </linearGradient>
  </defs>
  <sodipodi:namedview
     id="namedview1"
     pagecolor="#505050"
     bordercolor="#ffffff"
     borderopacity="1"
     inkscape:showpageshadow="0"
     inkscape:pageopacity="0"
     inkscape:pagecheckerboard="1"
     inkscape:deskcolor="#d1d1d1"
     inkscape:zoom="6.369338"
     inkscape:cx="115.71061"
     inkscape:cy="115.71061"
     inkscape:window-width="3840"
     inkscape:window-height="2053"
     inkscape:window-x="1080"
     inkscape:window-y="0"
     inkscape:window-maximized="1"
     inkscape:current-layer="svg1" />
  <path
     class="qrcode"
     fill="#000000"
     d="M 0,0 H 7 V 7 H 0 V 0 m 7,0 h 7 V 7 H 7 V 0 m 7,0 h 7 V 7 H 14 V 0 m 7,0 h 7 V 7 H 21 V 0 m 7,0 h 7 V 7 H 28 V 0 m 7,0 h 7 V 7 H 35 V 0 m 7,0 h 7 V 7 H 42 V 0 m 21,0 h 7 V 7 H 63 V 0 m 7,0 h 7 V 7 H 70 V 0 m 21,0 h 7 V 7 H 91 V 0 m 21,0 h 7 v 7 h -7 V 0 m 7,0 h 7 v 7 h -7 V 0 m 7,0 h 7 v 7 h -7 V 0 m 7,0 h 7 v 7 h -7 V 0 m 7,0 h 7 v 7 h -7 V 0 m 14,0 h 7 v 7 h -7 V 0 m 28,0 h 7 v 7 h -7 V 0 m 7,0 h 7 v 7 h -7 V 0 m 7,0 h 7 v 7 h -7 V 0 m 7,0 h 7 v 7 h -7 V 0 m 7,0 h 7 v 7 h -7 V 0 m 7,0 h 7 v 7 h -7 V 0 m 7,0 h 7 v 7 h -7 V 0 M 0,7 h 7 v 7 H 0 V 7 m 42,0 h 7 v 7 H 42 V 7 m 28,0 h 7 v 7 H 70 V 7 m 21,0 h 7 v 7 H 91 V 7 m 7,0 h 7 v 7 H 98 V 7 m 7,0 h 7 v 7 h -7 V 7 m 14,0 h 7 v 7 h -7 V 7 m 21,0 h 7 v 7 h -7 V 7 m 14,0 h 7 v 7 h -7 V 7 m 14,0 h 7 v 7 h -7 V 7 m 14,0 h 7 v 7 h -7 V 7 m 42,0 h 7 v 7 h -7 V 7 M 0,14 h 7 v 7 H 0 v -7 m 14,0 h 7 v 7 h -7 v -7 m 7,0 h 7 v 7 h -7 v -7 m 7,0 h 7 v 7 h -7 v -7 m 14,0 h 7 v 7 h -7 v -7 m 14,0 h 7 v 7 h -7 v -7 m 14,0 h 7 v 7 h -7 v -7 m 7,0 h 7 v 7 h -7 v -7 m 14,0 h 7 v 7 h -7 v -7 m 21,0 h 7 v 7 h -7 v -7 m 7,0 h 7 v 7 h -7 v -7 m 7,0 h 7 v 7 h -7 v -7 m 14,0 h 7 v 7 h -7 v -7 m 21,0 h 7 v 7 h -7 v -7 m 7,0 h 7 v 7 h -7 v -7 m 14,0 h 7 v 7 h -7 v -7 m 14,0 h 7 v 7 h -7 v -7 m 7,0 h 7 v 7 h -7 v -7 m 7,0 h 7 v 7 h -7 v -7 m 14,0 h 7 v 7 h -7 V 14 M 0,21 h 7 v 7 H 0 v -7 m 14,0 h 7 v 7 h -7 v -7 m 7,0 h 7 v 7 h -7 v -7 m 7,0 h 7 v 7 h -7 v -7 m 14,0 h 7 v 7 h -7 v -7 m 14,0 h 7 v 7 h -7 v -7 m 14,0 h 7 v 7 h -7 v -7 m 14,0 h 7 v 7 h -7 v -7 m 14,0 h 7 v 7 h -7 v -7 m 14,0 h 7 v 7 h -7 v -7 m 28,0 h 7 v 7 h -7 v -7 m 7,0 h 7 v 7 h -7 v -7 m 7,0 h 7 v 7 h -7 v -7 m 7,0 h 7 v 7 h -7 v -7 m 7,0 h 7 v 7 h -7 v -7 m 14,0 h 7 v 7 h -7 v -7 m 14,0 h 7 v 7 h -7 v -7 m 7,0 h 7 v 7 h -7 v -7 m 7,0 h 7 v 7 h -7 v -7 m 14,0 h 7 v 7 h -7 V 21 M 0,28 h 7 v 7 H 0 v -7 m 14,0 h 7 v 7 h -7 v -7 m 7,0 h 7 v 7 h -7 v -7 m 7,0 h 7 v 7 h -7 v -7 m 14,0 h 7 v 7 h -7 v -7 m 14,0 h 7 v 7 h -7 v -7 m 7,0 h 7 v 7 h -7 v -7 m 7,0 h 7 v 7 h -7 v -7 m 21,0 h 7 v 7 h -7 v -7 m 14,0 h 7 v 7 h -7 v -7 m 21,0 h 7 v 7 h -7 v -7 m 42,0 h 7 v 7 h -7 v -7 m 14,0 h 7 v 7 h -7 v -7 m 14,0 h 7 v 7 h -7 v -7 m 7,0 h 7 v 7 h -7 v -7 m 7,0 h 7 v 7 h -7 v -7 m 14,0 h 7 v 7 h -7 V 28 M 0,35 h 7 v 7 H 0 v -7 m 42,0 h 7 v 7 h -7 v -7 m 14,0 h 7 v 7 h -7 v -7 m 28,0 h 7 v 7 h -7 v -7 m 14,0 h 7 v 7 h -7 v -7 m 7,0 h 7 v 7 h -7 v -7 m 7,0 h 7 v 7 h -7 v -7 m 7,0 h 7 v 7 h -7 v -7 m 7,0 h 7 v 7 h -7 v -7 m 14,0 h 7 v 7 h -7 v -7 m 7,0 h 7 v 7 h -7 v -7 m 35,0 h 7 v 7 h -7 v -7 m 42,0 h 7 v 7 h -7 V 35 M 0,42 h 7 v 7 H 0 v -7 m 7,0 h 7 v 7 H 7 v -7 m 7,0 h 7 v 7 h -7 v -7 m 7,0 h 7 v 7 h -7 v -7 m 7,0 h 7 v 7 h -7 v -7 m 7,0 h 7 v 7 h -7 v -7 m 7,0 h 7 v 7 h -7 v -7 m 14,0 h 7 v 7 h -7 v -7 m 14,0 h 7 v 7 h -7 v -7 m 14,0 h 7 v 7 h -7 v -7 m 14,0 h 7 v 7 h -7 v -7 m 14,0 h 7 v 7 h -7 v -7 m 14,0 h 7 v 7 h -7 v -7 m 14,0 h 7 v 7 h -7 v -7 m 14,0 h 7 v 7 h -7 v -7 m 14,0 h 7 v 7 h -7 v -7 m 14,0 h 7 v 7 h -7 v -7 m 7,0 h 7 v 7 h -7 v -7 m 7,0 h 7 v 7 h -7 v -7 m 7,0 h 7 v 7 h -7 v -7 m 7,0 h 7 v 7 h -7 v -7 m 7,0 h 7 v 7 h -7 v -7 m 7,0 h 7 v 7 h -7 V 42 M 56,49 h 7 v 7 h -7 v -7 m 14,0 h 7 v 7 h -7 v -7 m 7,0 h 7 v 7 h -7 v -7 m 21,0 h 7 v 7 h -7 v -7 m 7,0 h 7 v 7 h -7 v -7 m 42,0 h 7 v 7 h -7 V 49 M 0,56 h 7 v 7 H 0 v -7 m 14,0 h 7 v 7 h -7 v -7 m 7,0 h 7 v 7 h -7 v -7 m 7,0 h 7 v 7 h -7 v -7 m 7,0 h 7 v 7 h -7 v -7 m 7,0 h 7 v 7 h -7 v -7 m 21,0 h 7 v 7 h -7 v -7 m 14,0 h 7 v 7 h -7 v -7 m 21,0 h 7 v 7 h -7 v -7 m 7,0 h 7 v 7 h -7 v -7 m 14,0 h 7 v 7 h -7 v -7 m 7,0 h 7 v 7 h -7 v -7 m 21,0 h 7 v 7 h -7 v -7 m 7,0 h 7 v 7 h -7 v -7 m 14,0 h 7 v 7 h -7 v -7 m 14,0 h 7 v 7 h -7 v -7 m 7,0 h 7 v 7 h -7 v -7 m 7,0 h 7 v 7 h -7 v -7 m 7,0 h 7 v 7 h -7 v -7 m 7,0 h 7 v 7 h -7 V 56 M 7,63 h 7 v 7 H 7 v -7 m 14,0 h 7 v 7 h -7 v -7 m 7,0 h 7 v 7 h -7 v -7 m 28,0 h 7 v 7 h -7 v -7 m 7,0 h 7 v 7 h -7 v -7 m 35,0 h 7 v 7 h -7 v -7 m 7,0 h 7 v 7 h -7 v -7 m 7,0 h 7 v 7 h -7 v -7 m 28,0 h 7 v 7 h -7 v -7 m 7,0 h 7 v 7 h -7 v -7 m 14,0 h 7 v 7 h -7 v -7 m 21,0 h 7 v 7 h -7 v -7 m 21,0 h 7 v 7 h -7 v -7 m 7,0 h 7 v 7 h -7 v -7 m 7,0 h 7 v 7 h -7 v -7 m 7,0 h 7 v 7 h -7 V 63 M 0,70 h 7 v 7 H 0 v -7 m 7,0 h 7 v 7 H 7 v -7 m 7,0 h 7 v 7 h -7 v -7 m 7,0 h 7 v 7 h -7 v -7 m 7,0 h 7 v 7 h -7 v -7 m 7,0 h 7 v 7 h -7 v -7 m 7,0 h 7 v 7 h -7 v -7 m 7,0 h 7 v 7 h -7 v -7 m 21,0 h 7 v 7 h -7 v -7 m 7,0 h 7 v 7 h -7 v -7 m 7,0 h 7 v 7 h -7 v -7 m 21,0 h 7 v 7 h -7 v -7 m 21,0 h 7 v 7 h -7 v -7 m 21,0 h 7 v 7 h -7 v -7 m 28,0 h 7 v 7 h -7 v -7 m 7,0 h 7 v 7 h -7 v -7 m 14,0 h 7 v 7 h -7 v -7 m 7,0 h 7 v 7 h -7 v -7 m 14,0 h 7 v 7 h -7 V 70 M 0,77 h 7 v 7 H 0 v -7 m 14,0 h 7 v 7 h -7 v -7 m 7,0 h 7 v 7 h -7 v -7 m 14,0 h 7 v 7 h -7 v -7 m 14,0 h 7 v 7 h -7 v -7 m 7,0 h 7 v 7 h -7 v -7 m 42,0 h 7 v 7 h -7 v -7 m 49,0 h 7 v 7 h -7 v -7 m 7,0 h 7 v 7 h -7 v -7 m 7,0 h 7 v 7 h -7 v -7 m 28,0 h 7 v 7 h -7 v -7 m 14,0 h 7 v 7 h -7 v -7 m 7,0 h 7 v 7 h -7 v -7 m 7,0 h 7 v 7 h -7 v -7 m 7,0 h 7 v 7 h -7 V 77 M 21,84 h 7 v 7 h -7 v -7 m 7,0 h 7 v 7 h -7 v -7 m 14,0 h 7 v 7 h -7 v -7 m 7,0 h 7 v 7 h -7 v -7 m 7,0 h 7 v 7 h -7 v -7 m 7,0 h 7 v 7 h -7 v -7 m 14,0 h 7 v 7 h -7 v -7 m 7,0 h 7 v 7 h -7 v -7 m 21,0 h 7 v 7 h -7 v -7 m 21,0 h 7 v 7 h -7 v -7 m 7,0 h 7 v 7 h -7 v -7 m 14,0 h 7 v 7 h -7 v -7 m 28,0 h 7 v 7 h -7 v -7 m 14,0 h 7 v 7 h -7 v -7 m 14,0 h 7 v 7 h -7 v -7 m 7,0 h 7 v 7 h -7 V 84 M 7,91 h 7 v 7 H 7 v -7 m 28,0 h 7 v 7 h -7 v -7 m 21,0 h 7 v 7 h -7 v -7 m 14,0 h 7 v 7 h -7 v -7 m 7,0 h 7 v 7 h -7 v -7 m 14,0 h 7 v 7 h -7 v -7 m 7,0 h 7 v 7 h -7 v -7 m 7,0 h 7 v 7 h -7 v -7 m 7,0 h 7 v 7 h -7 v -7 m 28,0 h 7 v 7 h -7 v -7 m 14,0 h 7 v 7 h -7 v -7 m 7,0 h 7 v 7 h -7 v -7 m 7,0 h 7 v 7 h -7 v -7 m 14,0 h 7 v 7 h -7 v -7 m 42,0 h 7 v 7 h -7 V 91 M 0,98 h 7 v 7 H 0 v -7 m 21,0 h 7 v 7 h -7 v -7 m 7,0 h 7 v 7 h -7 v -7 m 14,0 h 7 v 7 h -7 v -7 m 7,0 h 7 v 7 h -7 v -7 m 21,0 h 7 v 7 h -7 v -7 m 7,0 h 7 v 7 h -7 v -7 m 7,0 h 7 v 7 h -7 v -7 m 7,0 h 7 v 7 h -7 v -7 m 28,0 h 7 v 7 h -7 v -7 m 14,0 h 7 v 7 h -7 v -7 m 14,0 h 7 v 7 h -7 v -7 m 21,0 h 7 v 7 h -7 v -7 m 49,0 h 7 v 7 h -7 v -7 m -189,7 h 7 v 7 h -7 v -7 m 21,0 h 7 v 7 h -7 v -7 m 14,0 h 7 v 7 h -7 v -7 m 14,0 h 7 v 7 h -7 v -7 m 7,0 h 7 v 7 h -7 v -7 m 7,0 h 7 v 7 h -7 v -7 m 21,0 h 7 v 7 h -7 v -7 m 14,0 h 7 v 7 h -7 v -7 m 7,0 h 7 v 7 h -7 v -7 m 7,0 h 7 v 7 h -7 v -7 m 7,0 h 7 v 7 h -7 v -7 m 14,0 h 7 v 7 h -7 v -7 m 7,0 h 7 v 7 h -7 v -7 m 14,0 h 7 v 7 h -7 v -7 m 7,0 h 7 v 7 h -7 v -7 m 14,0 h 7 v 7 h -7 v -7 m 7,0 h 7 v 7 h -7 v -7 m 14,0 h 7 v 7 h -7 v -7 M 7,112 h 7 v 7 H 7 v -7 m 7,0 h 7 v 7 h -7 v -7 m 21,0 h 7 v 7 h -7 v -7 m 7,0 h 7 v 7 h -7 v -7 m 7,0 h 7 v 7 h -7 v -7 m 7,0 h 7 v 7 h -7 v -7 m 14,0 h 7 v 7 h -7 v -7 m 7,0 h 7 v 7 h -7 v -7 m 7,0 h 7 v 7 h -7 v -7 m 7,0 h 7 v 7 h -7 v -7 m 7,0 h 7 v 7 h -7 v -7 m 21,0 h 7 v 7 h -7 v -7 m 14,0 h 7 v 7 h -7 v -7 m 14,0 h 7 v 7 h -7 v -7 m 7,0 h 7 v 7 h -7 v -7 m 21,0 h 7 v 7 h -7 v -7 m 14,0 h 7 v 7 h -7 v -7 m 7,0 h 7 v 7 h -7 v -7 M 0,119 h 7 v 7 H 0 v -7 m 14,0 h 7 v 7 h -7 v -7 m 7,0 h 7 v 7 h -7 v -7 m 14,0 h 7 v 7 h -7 v -7 m 28,0 h 7 v 7 h -7 v -7 m 7,0 h 7 v 7 h -7 v -7 m 21,0 h 7 v 7 h -7 v -7 m 21,0 h 7 v 7 h -7 v -7 m 7,0 h 7 v 7 h -7 v -7 m 21,0 h 7 v 7 h -7 v -7 m 21,0 h 7 v 7 h -7 v -7 m 21,0 h 7 v 7 h -7 v -7 m 21,0 h 7 v 7 h -7 v -7 m 7,0 h 7 v 7 h -7 v -7 m 7,0 h 7 v 7 h -7 v -7 m 7,0 h 7 v 7 h -7 v -7 M 7,126 h 7 v 7 H 7 v -7 m 35,0 h 7 v 7 h -7 v -7 m 21,0 h 7 v 7 h -7 v -7 m 7,0 h 7 v 7 h -7 v -7 m 14,0 h 7 v 7 h -7 v -7 m 14,0 h 7 v 7 h -7 v -7 m 7,0 h 7 v 7 h -7 v -7 m 14,0 h 7 v 7 h -7 v -7 m 35,0 h 7 v 7 h -7 v -7 m 28,0 h 7 v 7 h -7 v -7 m 7,0 h 7 v 7 h -7 v -7 m 7,0 h 7 v 7 h -7 v -7 m 7,0 h 7 v 7 h -7 v -7 m 14,0 h 7 v 7 h -7 v -7 M 7,133 h 7 v 7 H 7 v -7 m 7,0 h 7 v 7 h -7 v -7 m 14,0 h 7 v 7 h -7 v -7 m 7,0 h 7 v 7 h -7 v -7 m 21,0 h 7 v 7 h -7 v -7 m 21,0 h 7 v 7 h -7 v -7 m 7,0 h 7 v 7 h -7 v -7 m 7,0 h 7 v 7 h -7 v -7 m 21,0 h 7 v 7 h -7 v -7 m 7,0 h 7 v 7 h -7 v -7 m 7,0 h 7 v 7 h -7 v -7 m 7,0 h 7 v 7 h -7 v -7 m 7,0 h 7 v 7 h -7 v -7 m 35,0 h 7 v 7 h -7 v -7 m 7,0 h 7 v 7 h -7 v -7 m 7,0 h 7 v 7 h -7 v -7 m 7,0 h 7 v 7 h -7 v -7 m 7,0 h 7 v 7 h -7 v -7 m 7,0 h 7 v 7 h -7 v -7 m 14,0 h 7 v 7 h -7 v -7 M 7,140 h 7 v 7 H 7 v -7 m 7,0 h 7 v 7 h -7 v -7 m 7,0 h 7 v 7 h -7 v -7 m 7,0 h 7 v 7 h -7 v -7 m 7,0 h 7 v 7 h -7 v -7 m 7,0 h 7 v 7 h -7 v -7 m 28,0 h 7 v 7 h -7 v -7 m 7,0 h 7 v 7 h -7 v -7 m 7,0 h 7 v 7 h -7 v -7 m 7,0 h 7 v 7 h -7 v -7 m 7,0 h 7 v 7 h -7 v -7 m 7,0 h 7 v 7 h -7 v -7 m 7,0 h 7 v 7 h -7 v -7 m 28,0 h 7 v 7 h -7 v -7 m 7,0 h 7 v 7 h -7 v -7 m 7,0 h 7 v 7 h -7 v -7 m 42,0 h 7 v 7 h -7 v -7 m 7,0 h 7 v 7 h -7 v -7 M 0,147 h 7 v 7 H 0 v -7 m 28,0 h 7 v 7 h -7 v -7 m 21,0 h 7 v 7 h -7 v -7 m 28,0 h 7 v 7 h -7 v -7 m 7,0 h 7 v 7 h -7 v -7 m 14,0 h 7 v 7 h -7 v -7 m 7,0 h 7 v 7 h -7 v -7 m 21,0 h 7 v 7 h -7 v -7 m 35,0 h 7 v 7 h -7 v -7 m 7,0 h 7 v 7 h -7 v -7 m 7,0 h 7 v 7 h -7 v -7 m 7,0 h 7 v 7 h -7 v -7 m 7,0 h 7 v 7 h -7 v -7 m 28,0 h 7 v 7 h -7 v -7 m 7,0 h 7 v 7 h -7 v -7 M 0,154 h 7 v 7 H 0 v -7 m 28,0 h 7 v 7 h -7 v -7 m 7,0 h 7 v 7 h -7 v -7 m 7,0 h 7 v 7 h -7 v -7 m 14,0 h 7 v 7 h -7 v -7 m 7,0 h 7 v 7 h -7 v -7 m 7,0 h 7 v 7 h -7 v -7 m 14,0 h 7 v 7 h -7 v -7 m 7,0 h 7 v 7 h -7 v -7 m 14,0 h 7 v 7 h -7 v -7 m 7,0 h 7 v 7 h -7 v -7 m 7,0 h 7 v 7 h -7 v -7 m 7,0 h 7 v 7 h -7 v -7 m 14,0 h 7 v 7 h -7 v -7 m 7,0 h 7 v 7 h -7 v -7 m 7,0 h 7 v 7 h -7 v -7 m 21,0 h 7 v 7 h -7 v -7 m 14,0 h 7 v 7 h -7 v -7 m 7,0 h 7 v 7 h -7 v -7 m 7,0 h 7 v 7 h -7 v -7 m 7,0 h 7 v 7 h -7 v -7 M 0,161 h 7 v 7 H 0 v -7 m 35,0 h 7 v 7 h -7 v -7 m 14,0 h 7 v 7 h -7 v -7 m 14,0 h 7 v 7 h -7 v -7 m 7,0 h 7 v 7 h -7 v -7 m 21,0 h 7 v 7 h -7 v -7 m 7,0 h 7 v 7 h -7 v -7 m 7,0 h 7 v 7 h -7 v -7 m 21,0 h 7 v 7 h -7 v -7 m 21,0 h 7 v 7 h -7 v -7 m 7,0 h 7 v 7 h -7 v -7 m 7,0 h 7 v 7 h -7 v -7 m 7,0 h 7 v 7 h -7 v -7 m 14,0 h 7 v 7 h -7 v -7 m 7,0 h 7 v 7 h -7 v -7 m 14,0 h 7 v 7 h -7 v -7 m 7,0 h 7 v 7 h -7 v -7 M 0,168 h 7 v 7 H 0 v -7 m 21,0 h 7 v 7 h -7 v -7 m 7,0 h 7 v 7 h -7 v -7 m 14,0 h 7 v 7 h -7 v -7 m 21,0 h 7 v 7 h -7 v -7 m 7,0 h 7 v 7 h -7 v -7 m 28,0 h 7 v 7 h -7 v -7 m 7,0 h 7 v 7 h -7 v -7 m 14,0 h 7 v 7 h -7 v -7 m 7,0 h 7 v 7 h -7 v -7 m 14,0 h 7 v 7 h -7 v -7 m 28,0 h 7 v 7 h -7 v -7 m 7,0 h 7 v 7 h -7 v -7 m 7,0 h 7 v 7 h -7 v -7 m 7,0 h 7 v 7 h -7 v -7 m 7,0 h 7 v 7 h -7 v -7 m 7,0 h 7 v 7 h -7 v -7 m 14,0 h 7 v 7 h -7 v -7 m 7,0 h 7 v 7 h -7 v -7 m -168,7 h 7 v 7 h -7 v -7 m 7,0 h 7 v 7 h -7 v -7 m 28,0 h 7 v 7 h -7 v -7 m 21,0 h 7 v 7 h -7 v -7 m 21,0 h 7 v 7 h -7 v -7 m 14,0 h 7 v 7 h -7 v -7 m 7,0 h 7 v 7 h -7 v -7 m 7,0 h 7 v 7 h -7 v -7 m 7,0 h 7 v 7 h -7 v -7 m 28,0 h 7 v 7 h -7 v -7 m 14,0 h 7 v 7 h -7 v -7 M 0,182 h 7 v 7 H 0 v -7 m 7,0 h 7 v 7 H 7 v -7 m 7,0 h 7 v 7 h -7 v -7 m 7,0 h 7 v 7 h -7 v -7 m 7,0 h 7 v 7 h -7 v -7 m 7,0 h 7 v 7 h -7 v -7 m 7,0 h 7 v 7 h -7 v -7 m 21,0 h 7 v 7 h -7 v -7 m 28,0 h 7 v 7 h -7 v -7 m 14,0 h 7 v 7 h -7 v -7 m 7,0 h 7 v 7 h -7 v -7 m 14,0 h 7 v 7 h -7 v -7 m 21,0 h 7 v 7 h -7 v -7 m 14,0 h 7 v 7 h -7 v -7 m 7,0 h 7 v 7 h -7 v -7 m 14,0 h 7 v 7 h -7 v -7 m 14,0 h 7 v 7 h -7 v -7 m 7,0 h 7 v 7 h -7 v -7 m 7,0 h 7 v 7 h -7 v -7 m 7,0 h 7 v 7 h -7 v -7 M 0,189 h 7 v 7 H 0 v -7 m 42,0 h 7 v 7 h -7 v -7 m 14,0 h 7 v 7 h -7 v -7 m 7,0 h 7 v 7 h -7 v -7 m 21,0 h 7 v 7 h -7 v -7 m 7,0 h 7 v 7 h -7 v -7 m 7,0 h 7 v 7 h -7 v -7 m 7,0 h 7 v 7 h -7 v -7 m 35,0 h 7 v 7 h -7 v -7 m 7,0 h 7 v 7 h -7 v -7 m 7,0 h 7 v 7 h -7 v -7 m 7,0 h 7 v 7 h -7 v -7 m 7,0 h 7 v 7 h -7 v -7 m 28,0 h 7 v 7 h -7 v -7 m 7,0 h 7 v 7 h -7 v -7 m 7,0 h 7 v 7 h -7 v -7 m 7,0 h 7 v 7 h -7 v -7 M 0,196 h 7 v 7 H 0 v -7 m 14,0 h 7 v 7 h -7 v -7 m 7,0 h 7 v 7 h -7 v -7 m 7,0 h 7 v 7 h -7 v -7 m 14,0 h 7 v 7 h -7 v -7 m 14,0 h 7 v 7 h -7 v -7 m 21,0 h 7 v 7 h -7 v -7 m 14,0 h 7 v 7 h -7 v -7 m 35,0 h 7 v 7 h -7 v -7 m 21,0 h 7 v 7 h -7 v -7 m 21,0 h 7 v 7 h -7 v -7 m 7,0 h 7 v 7 h -7 v -7 m 7,0 h 7 v 7 h -7 v -7 m 7,0 h 7 v 7 h -7 v -7 m 7,0 h 7 v 7 h -7 v -7 m 14,0 h 7 v 7 h -7 v -7 m 14,0 h 7 v 7 h -7 v -7 M 0,203 h 7 v 7 H 0 v -7 m 14,0 h 7 v 7 h -7 v -7 m 7,0 h 7 v 7 h -7 v -7 m 7,0 h 7 v 7 h -7 v -7 m 14,0 h 7 v 7 h -7 v -7 m 14,0 h 7 v 7 h -7 v -7 m 14,0 h 7 v 7 h -7 v -7 m 14,0 h 7 v 7 h -7 v -7 m 14,0 h 7 v 7 h -7 v -7 m 7,0 h 7 v 7 h -7 v -7 m 7,0 h 7 v 7 h -7 v -7 m 28,0 h 7 v 7 h -7 v -7 m 7,0 h 7 v 7 h -7 v -7 m 7,0 h 7 v 7 h -7 v -7 m 21,0 h 7 v 7 h -7 v -7 m 21,0 h 7 v 7 h -7 v -7 m 7,0 h 7 v 7 h -7 v -7 m 7,0 h 7 v 7 h -7 v -7 m 14,0 h 7 v 7 h -7 v -7 M 0,210 h 7 v 7 H 0 v -7 m 14,0 h 7 v 7 h -7 v -7 m 7,0 h 7 v 7 h -7 v -7 m 7,0 h 7 v 7 h -7 v -7 m 14,0 h 7 v 7 h -7 v -7 m 14,0 h 7 v 7 h -7 v -7 m 7,0 h 7 v 7 h -7 v -7 m 35,0 h 7 v 7 h -7 v -7 m 21,0 h 7 v 7 h -7 v -7 m 14,0 h 7 v 7 h -7 v -7 m 14,0 h 7 v 7 h -7 v -7 m 7,0 h 7 v 7 h -7 v -7 m 7,0 h 7 v 7 h -7 v -7 m 7,0 h 7 v 7 h -7 v -7 m 14,0 h 7 v 7 h -7 v -7 m 28,0 h 7 v 7 h -7 v -7 M 0,217 h 7 v 7 H 0 v -7 m 42,0 h 7 v 7 h -7 v -7 m 21,0 h 7 v 7 h -7 v -7 m 7,0 h 7 v 7 h -7 v -7 m 42,0 h 7 v 7 h -7 v -7 m 21,0 h 7 v 7 h -7 v -7 m 7,0 h 7 v 7 h -7 v -7 m 7,0 h 7 v 7 h -7 v -7 m 21,0 h 7 v 7 h -7 v -7 m 21,0 h 7 v 7 h -7 v -7 m 7,0 h 7 v 7 h -7 v -7 m 7,0 h 7 v 7 h -7 v -7 m 7,0 h 7 v 7 h -7 v -7 M 0,224 h 7 v 7 H 0 v -7 m 7,0 h 7 v 7 H 7 v -7 m 7,0 h 7 v 7 h -7 v -7 m 7,0 h 7 v 7 h -7 v -7 m 7,0 h 7 v 7 h -7 v -7 m 7,0 h 7 v 7 h -7 v -7 m 7,0 h 7 v 7 h -7 v -7 m 14,0 h 7 v 7 h -7 v -7 m 56,0 h 7 v 7 h -7 v -7 m 21,0 h 7 v 7 h -7 v -7 m 7,0 h 7 v 7 h -7 v -7 m 21,0 h 7 v 7 h -7 v -7 m 7,0 h 7 v 7 h -7 v -7 m 14,0 h 7 v 7 h -7 v -7 m 14,0 h 7 v 7 h -7 v -7 m 7,0 h 7 v 7 h -7 v -7 m 14,0 h 7 v 7 h -7 v -7"
     id="path1" />
  <circle
     cx="115.5"
     cy="115.5"
     r="35"
     fill="url(#paint0_linear_478878)"
     id="circle8"
     style="fill:url(#paint0_linear_478878);stroke-width:1" />
  <path
     fill-rule="evenodd"
     clip-rule="evenodd"
     d="m 104.39333,123.46261 c 0.10815,-0.11671 0.23888,-0.21035 0.38413,-0.27562 0.14542,-0.0651 0.3024,-0.10028 0.46182,-0.1036 h 26.57796 c 0.11269,0.002 0.22207,0.0355 0.31569,0.0976 0.0936,0.0621 0.16713,0.14997 0.21193,0.25269 0.0446,0.1029 0.0586,0.21631 0.0399,0.32673 -0.0184,0.1106 -0.0686,0.21333 -0.14438,0.2961 l -5.63377,6.23105 c -0.10815,0.11655 -0.2387,0.21035 -0.38413,0.27545 -0.14525,0.0653 -0.3024,0.10045 -0.46165,0.1036 h -26.5951 c -0.11235,-0.002 -0.22207,-0.0353 -0.31552,-0.0975 -0.0936,-0.0623 -0.16713,-0.14996 -0.21193,-0.25287 -0.0446,-0.10272 -0.0584,-0.21612 -0.0401,-0.32673 0.0186,-0.11042 0.0688,-0.21332 0.14455,-0.29609 z m 27.87243,-5.16513 c 0.0758,0.0828 0.126,0.1855 0.14438,0.2961 0.0187,0.11043 0.005,0.22383 -0.0399,0.32673 -0.0448,0.1029 -0.11831,0.19057 -0.21193,0.2527 -0.0936,0.0621 -0.203,0.0961 -0.3157,0.0976 l -26.58635,0.021 c -0.15943,-0.004 -0.3164,-0.0383 -0.46182,-0.1036 -0.14525,-0.0651 -0.27598,-0.1589 -0.38413,-0.27545 l -5.67595,-6.20988 c -0.0758,-0.0828 -0.126,-0.18567 -0.14455,-0.29609 -0.0186,-0.11061 -0.005,-0.224 0.0401,-0.32673 0.0446,-0.1029 0.1183,-0.19058 0.21175,-0.25287 0.0936,-0.0621 0.20318,-0.0959 0.3157,-0.0975 l 26.58653,-0.0212 c 0.15942,0.004 0.3164,0.0385 0.46182,0.1036 0.14525,0.0653 0.27598,0.1589 0.38413,0.27562 z m -27.87243,-17.58487 c 0.10815,-0.11673 0.23888,-0.21035 0.38413,-0.27563 0.14542,-0.0651 0.3024,-0.10027 0.46182,-0.1036 l 26.59511,0.0212 c 0.11235,0.002 0.22207,0.0353 0.3157,0.0975 0.0934,0.0623 0.16712,0.14998 0.21157,0.25288 0.0446,0.10272 0.0586,0.21612 0.0403,0.32672 -0.0187,0.11043 -0.0688,0.21333 -0.14472,0.2961 l -5.65058,6.20988 c -0.10815,0.11655 -0.2387,0.21035 -0.38413,0.27545 -0.14524,0.0653 -0.30239,0.10045 -0.46165,0.1036 h -26.5951 c -0.11235,-0.002 -0.22207,-0.0353 -0.31552,-0.0975 -0.0936,-0.0623 -0.16712,-0.14997 -0.21193,-0.25287 -0.0446,-0.10272 -0.0584,-0.21613 -0.0401,-0.32673 0.0186,-0.11042 0.0688,-0.21332 0.14455,-0.2961 z"
     fill="#ffffff"
     id="path8"
     style="stroke-width:1" />
  <circle
     cx="115.5"
     cy="115.5"
     r="35"
     fill="url(#paint1_radial_478:878)"
     fill-opacity="0.6"
     style="mix-blend-mode:soft-light;fill:url(#paint1_radial_478:878);stroke-width:1"
     id="circle9" />
</svg>
