<?xml version="1.0" encoding="UTF-8" standalone="no"?>
<svg
   version="1.1"
   width="203"
   height="203"
   viewBox="0 0 203 203"
   shape-rendering="crispEdges"
   id="svg1"
   sodipodi:docname="usdt-eth-erc20.svg"
   inkscape:version="1.3.2 (091e20ef0f, 2023-11-25, custom)"
   xmlns:inkscape="http://www.inkscape.org/namespaces/inkscape"
   xmlns:sodipodi="http://sodipodi.sourceforge.net/DTD/sodipodi-0.dtd"
   xmlns="http://www.w3.org/2000/svg"
   xmlns:svg="http://www.w3.org/2000/svg">
  <defs
     id="defs1" />
  <sodipodi:namedview
     id="namedview1"
     pagecolor="#505050"
     bordercolor="#ffffff"
     borderopacity="1"
     inkscape:showpageshadow="0"
     inkscape:pageopacity="0"
     inkscape:pagecheckerboard="1"
     inkscape:deskcolor="#d1d1d1"
     inkscape:zoom="7.0579151"
     inkscape:cx="101.58807"
     inkscape:cy="101.58807"
     inkscape:window-width="3840"
     inkscape:window-height="2053"
     inkscape:window-x="1080"
     inkscape:window-y="0"
     inkscape:window-maximized="1"
     inkscape:current-layer="svg1" />
  <path
     class="qrcode"
     fill="#000000"
     d="M 0,0 H 7 V 7 H 0 V 0 m 7,0 h 7 V 7 H 7 V 0 m 7,0 h 7 V 7 H 14 V 0 m 7,0 h 7 V 7 H 21 V 0 m 7,0 h 7 V 7 H 28 V 0 m 7,0 h 7 V 7 H 35 V 0 m 7,0 h 7 V 7 H 42 V 0 m 84,0 h 7 v 7 h -7 V 0 m 7,0 h 7 v 7 h -7 V 0 m 7,0 h 7 v 7 h -7 V 0 m 14,0 h 7 v 7 h -7 V 0 m 7,0 h 7 v 7 h -7 V 0 m 7,0 h 7 v 7 h -7 V 0 m 7,0 h 7 v 7 h -7 V 0 m 7,0 h 7 v 7 h -7 V 0 m 7,0 h 7 v 7 h -7 V 0 m 7,0 h 7 v 7 h -7 V 0 M 0,7 h 7 v 7 H 0 V 7 m 42,0 h 7 v 7 H 42 V 7 m 21,0 h 7 v 7 H 63 V 7 m 7,0 h 7 v 7 H 70 V 7 m 14,0 h 7 v 7 H 84 V 7 m 28,0 h 7 v 7 h -7 V 7 m 14,0 h 7 v 7 h -7 V 7 m 14,0 h 7 v 7 h -7 V 7 m 14,0 h 7 v 7 h -7 V 7 m 42,0 h 7 v 7 h -7 V 7 M 0,14 h 7 v 7 H 0 v -7 m 14,0 h 7 v 7 h -7 v -7 m 7,0 h 7 v 7 h -7 v -7 m 7,0 h 7 v 7 h -7 v -7 m 14,0 h 7 v 7 h -7 v -7 m 14,0 h 7 v 7 h -7 v -7 m 49,0 h 7 v 7 h -7 v -7 m 28,0 h 7 v 7 h -7 v -7 m 21,0 h 7 v 7 h -7 v -7 m 14,0 h 7 v 7 h -7 v -7 m 7,0 h 7 v 7 h -7 v -7 m 7,0 h 7 v 7 h -7 v -7 m 14,0 h 7 v 7 h -7 V 14 M 0,21 h 7 v 7 H 0 v -7 m 14,0 h 7 v 7 h -7 v -7 m 7,0 h 7 v 7 h -7 v -7 m 7,0 h 7 v 7 h -7 v -7 m 14,0 h 7 v 7 h -7 v -7 m 14,0 h 7 v 7 h -7 v -7 m 14,0 h 7 v 7 h -7 v -7 m 14,0 h 7 v 7 h -7 v -7 m 7,0 h 7 v 7 h -7 v -7 m 14,0 h 7 v 7 h -7 v -7 m 21,0 h 7 v 7 h -7 v -7 m 28,0 h 7 v 7 h -7 v -7 m 14,0 h 7 v 7 h -7 v -7 m 7,0 h 7 v 7 h -7 v -7 m 7,0 h 7 v 7 h -7 v -7 m 14,0 h 7 v 7 h -7 V 21 M 0,28 h 7 v 7 H 0 v -7 m 14,0 h 7 v 7 h -7 v -7 m 7,0 h 7 v 7 h -7 v -7 m 7,0 h 7 v 7 h -7 v -7 m 14,0 h 7 v 7 h -7 v -7 m 14,0 h 7 v 7 h -7 v -7 m 14,0 h 7 v 7 h -7 v -7 m 42,0 h 7 v 7 h -7 v -7 m 28,0 h 7 v 7 h -7 v -7 m 14,0 h 7 v 7 h -7 v -7 m 14,0 h 7 v 7 h -7 v -7 m 7,0 h 7 v 7 h -7 v -7 m 7,0 h 7 v 7 h -7 v -7 m 14,0 h 7 v 7 h -7 V 28 M 0,35 h 7 v 7 H 0 v -7 m 42,0 h 7 v 7 h -7 v -7 m 14,0 h 7 v 7 h -7 v -7 m 14,0 h 7 v 7 h -7 v -7 m 21,0 h 7 v 7 h -7 v -7 m 14,0 h 7 v 7 h -7 v -7 m 21,0 h 7 v 7 h -7 v -7 m 14,0 h 7 v 7 h -7 v -7 m 14,0 h 7 v 7 h -7 v -7 m 42,0 h 7 v 7 h -7 V 35 M 0,42 h 7 v 7 H 0 v -7 m 7,0 h 7 v 7 H 7 v -7 m 7,0 h 7 v 7 h -7 v -7 m 7,0 h 7 v 7 h -7 v -7 m 7,0 h 7 v 7 h -7 v -7 m 7,0 h 7 v 7 h -7 v -7 m 7,0 h 7 v 7 h -7 v -7 m 14,0 h 7 v 7 h -7 v -7 m 14,0 h 7 v 7 h -7 v -7 m 14,0 h 7 v 7 h -7 v -7 m 14,0 h 7 v 7 h -7 v -7 m 14,0 h 7 v 7 h -7 v -7 m 14,0 h 7 v 7 h -7 v -7 m 14,0 h 7 v 7 h -7 v -7 m 14,0 h 7 v 7 h -7 v -7 m 7,0 h 7 v 7 h -7 v -7 m 7,0 h 7 v 7 h -7 v -7 m 7,0 h 7 v 7 h -7 v -7 m 7,0 h 7 v 7 h -7 v -7 m 7,0 h 7 v 7 h -7 v -7 m 7,0 h 7 v 7 h -7 V 42 M 56,49 h 7 v 7 h -7 v -7 m 28,0 h 7 v 7 h -7 v -7 m 14,0 h 7 v 7 h -7 v -7 m 28,0 h 7 v 7 h -7 v -7 m 7,0 h 7 v 7 h -7 V 49 M 0,56 h 7 v 7 H 0 v -7 m 14,0 h 7 v 7 h -7 v -7 m 7,0 h 7 v 7 h -7 v -7 m 7,0 h 7 v 7 h -7 v -7 m 7,0 h 7 v 7 h -7 v -7 m 7,0 h 7 v 7 h -7 v -7 m 21,0 h 7 v 7 h -7 v -7 m 21,0 h 7 v 7 h -7 v -7 m 21,0 h 7 v 7 h -7 v -7 m 7,0 h 7 v 7 h -7 v -7 m 14,0 h 7 v 7 h -7 v -7 m 14,0 h 7 v 7 h -7 v -7 m 14,0 h 7 v 7 h -7 v -7 m 7,0 h 7 v 7 h -7 v -7 m 7,0 h 7 v 7 h -7 v -7 m 7,0 h 7 v 7 h -7 v -7 m 7,0 h 7 v 7 h -7 V 56 M 7,63 h 7 v 7 H 7 v -7 m 21,0 h 7 v 7 h -7 v -7 m 7,0 h 7 v 7 h -7 v -7 m 14,0 h 7 v 7 h -7 v -7 m 7,0 h 7 v 7 h -7 v -7 m 14,0 h 7 v 7 h -7 v -7 m 28,0 h 7 v 7 h -7 v -7 m 35,0 h 7 v 7 h -7 v -7 m 14,0 h 7 v 7 h -7 v -7 m 14,0 h 7 v 7 h -7 v -7 m 7,0 h 7 v 7 h -7 v -7 m 7,0 h 7 v 7 h -7 v -7 m 21,0 h 7 v 7 h -7 V 63 M 0,70 h 7 v 7 H 0 v -7 m 14,0 h 7 v 7 h -7 v -7 m 28,0 h 7 v 7 h -7 v -7 m 7,0 h 7 v 7 h -7 v -7 m 14,0 h 7 v 7 h -7 v -7 m 7,0 h 7 v 7 h -7 v -7 m 14,0 h 7 v 7 h -7 v -7 m 7,0 h 7 v 7 h -7 v -7 m 14,0 h 7 v 7 h -7 v -7 m 7,0 h 7 v 7 h -7 v -7 m 14,0 h 7 v 7 h -7 v -7 m 14,0 h 7 v 7 h -7 v -7 m 35,0 h 7 v 7 h -7 v -7 m 7,0 h 7 v 7 h -7 v -7 m 7,0 h 7 v 7 h -7 V 70 M 21,77 h 7 v 7 h -7 v -7 m 35,0 h 7 v 7 h -7 v -7 m 7,0 h 7 v 7 h -7 v -7 m 7,0 h 7 v 7 h -7 v -7 m 28,0 h 7 v 7 h -7 v -7 m 21,0 h 7 v 7 h -7 v -7 m 7,0 h 7 v 7 h -7 v -7 m 14,0 h 7 v 7 h -7 v -7 m 21,0 h 7 v 7 h -7 v -7 m 7,0 h 7 v 7 h -7 V 77 M 0,84 h 7 v 7 H 0 v -7 m 7,0 h 7 v 7 H 7 v -7 m 7,0 h 7 v 7 h -7 v -7 m 14,0 h 7 v 7 h -7 v -7 m 7,0 h 7 v 7 h -7 v -7 m 7,0 h 7 v 7 h -7 v -7 m 7,0 h 7 v 7 h -7 v -7 m 14,0 h 7 v 7 h -7 v -7 m 7,0 h 7 v 7 h -7 v -7 m 7,0 h 7 v 7 h -7 v -7 m 7,0 h 7 v 7 h -7 v -7 m 7,0 h 7 v 7 h -7 v -7 m 21,0 h 7 v 7 h -7 v -7 m 7,0 h 7 v 7 h -7 v -7 m 21,0 h 7 v 7 h -7 v -7 m 7,0 h 7 v 7 h -7 v -7 m 28,0 h 7 v 7 h -7 v -7 m 7,0 h 7 v 7 h -7 v -7 m 7,0 h 7 v 7 h -7 V 84 M 0,91 h 7 v 7 H 0 v -7 m 14,0 h 7 v 7 h -7 v -7 m 7,0 h 7 v 7 h -7 v -7 m 28,0 h 7 v 7 h -7 v -7 m 7,0 h 7 v 7 h -7 v -7 m 14,0 h 7 v 7 h -7 v -7 m 7,0 h 7 v 7 h -7 v -7 m 14,0 h 7 v 7 h -7 v -7 m 14,0 h 7 v 7 h -7 v -7 m 7,0 h 7 v 7 h -7 v -7 m 7,0 h 7 v 7 h -7 v -7 m 14,0 h 7 v 7 h -7 v -7 m 21,0 h 7 v 7 h -7 v -7 m 7,0 h 7 v 7 h -7 v -7 m 7,0 h 7 v 7 h -7 v -7 m 21,0 h 7 v 7 h -7 V 91 M 21,98 h 7 v 7 h -7 v -7 m 7,0 h 7 v 7 h -7 v -7 m 14,0 h 7 v 7 h -7 v -7 m 7,0 h 7 v 7 h -7 v -7 m 14,0 h 7 v 7 h -7 v -7 m 7,0 h 7 v 7 h -7 v -7 m 56,0 h 7 v 7 h -7 v -7 m 14,0 h 7 v 7 h -7 v -7 m 7,0 h 7 v 7 h -7 v -7 m 7,0 h 7 v 7 h -7 v -7 m 14,0 h 7 v 7 h -7 v -7 m 7,0 h 7 v 7 h -7 v -7 m 7,0 h 7 v 7 h -7 V 98 M 0,105 h 7 v 7 H 0 v -7 m 7,0 h 7 v 7 H 7 v -7 m 7,0 h 7 v 7 h -7 v -7 m 14,0 h 7 v 7 h -7 v -7 m 21,0 h 7 v 7 h -7 v -7 m 35,0 h 7 v 7 h -7 v -7 m 7,0 h 7 v 7 h -7 v -7 m 7,0 h 7 v 7 h -7 v -7 m 63,0 h 7 v 7 h -7 v -7 m 7,0 h 7 v 7 h -7 v -7 m 7,0 h 7 v 7 h -7 v -7 m 14,0 h 7 v 7 h -7 v -7 M 0,112 h 7 v 7 H 0 v -7 m 7,0 h 7 v 7 H 7 v -7 m 14,0 h 7 v 7 h -7 v -7 m 14,0 h 7 v 7 h -7 v -7 m 7,0 h 7 v 7 h -7 v -7 m 7,0 h 7 v 7 h -7 v -7 m 28,0 h 7 v 7 h -7 v -7 m 7,0 h 7 v 7 h -7 v -7 m 7,0 h 7 v 7 h -7 v -7 m 14,0 h 7 v 7 h -7 v -7 m 14,0 h 7 v 7 h -7 v -7 m 28,0 h 7 v 7 h -7 v -7 m 14,0 h 7 v 7 h -7 v -7 m 28,0 h 7 v 7 h -7 v -7 m 7,0 h 7 v 7 h -7 v -7 M 0,119 h 7 v 7 H 0 v -7 m 21,0 h 7 v 7 h -7 v -7 m 7,0 h 7 v 7 h -7 v -7 m 7,0 h 7 v 7 h -7 v -7 m 14,0 h 7 v 7 h -7 v -7 m 14,0 h 7 v 7 h -7 v -7 m 7,0 h 7 v 7 h -7 v -7 m 7,0 h 7 v 7 h -7 v -7 m 21,0 h 7 v 7 h -7 v -7 m 28,0 h 7 v 7 h -7 v -7 m 7,0 h 7 v 7 h -7 v -7 m 7,0 h 7 v 7 h -7 v -7 m 14,0 h 7 v 7 h -7 v -7 m 14,0 h 7 v 7 h -7 v -7 m 28,0 h 7 v 7 h -7 v -7 M 0,126 h 7 v 7 H 0 v -7 m 21,0 h 7 v 7 h -7 v -7 m 14,0 h 7 v 7 h -7 v -7 m 7,0 h 7 v 7 h -7 v -7 m 7,0 h 7 v 7 h -7 v -7 m 14,0 h 7 v 7 h -7 v -7 m 7,0 h 7 v 7 h -7 v -7 m 7,0 h 7 v 7 h -7 v -7 m 28,0 h 7 v 7 h -7 v -7 m 42,0 h 7 v 7 h -7 v -7 m 21,0 h 7 v 7 h -7 v -7 m 14,0 h 7 v 7 h -7 v -7 M 0,133 h 7 v 7 H 0 v -7 m 14,0 h 7 v 7 h -7 v -7 m 7,0 h 7 v 7 h -7 v -7 m 35,0 h 7 v 7 h -7 v -7 m 21,0 h 7 v 7 h -7 v -7 m 14,0 h 7 v 7 h -7 v -7 m 7,0 h 7 v 7 h -7 v -7 m 7,0 h 7 v 7 h -7 v -7 m 21,0 h 7 v 7 h -7 v -7 m 14,0 h 7 v 7 h -7 v -7 m 28,0 h 7 v 7 h -7 v -7 m 21,0 h 7 v 7 h -7 v -7 M 0,140 h 7 v 7 H 0 v -7 m 14,0 h 7 v 7 h -7 v -7 m 7,0 h 7 v 7 h -7 v -7 m 14,0 h 7 v 7 h -7 v -7 m 7,0 h 7 v 7 h -7 v -7 m 14,0 h 7 v 7 h -7 v -7 m 7,0 h 7 v 7 h -7 v -7 m 7,0 h 7 v 7 h -7 v -7 m 21,0 h 7 v 7 h -7 v -7 m 14,0 h 7 v 7 h -7 v -7 m 7,0 h 7 v 7 h -7 v -7 m 14,0 h 7 v 7 h -7 v -7 m 14,0 h 7 v 7 h -7 v -7 m 7,0 h 7 v 7 h -7 v -7 m 7,0 h 7 v 7 h -7 v -7 m 7,0 h 7 v 7 h -7 v -7 m 7,0 h 7 v 7 h -7 v -7 m 7,0 h 7 v 7 h -7 v -7 m 7,0 h 7 v 7 h -7 v -7 m 7,0 h 7 v 7 h -7 v -7 m -133,7 h 7 v 7 h -7 v -7 m 21,0 h 7 v 7 h -7 v -7 m 7,0 h 7 v 7 h -7 v -7 m 14,0 h 7 v 7 h -7 v -7 m 7,0 h 7 v 7 h -7 v -7 m 21,0 h 7 v 7 h -7 v -7 m 7,0 h 7 v 7 h -7 v -7 m 7,0 h 7 v 7 h -7 v -7 m 28,0 h 7 v 7 h -7 v -7 m 28,0 h 7 v 7 h -7 v -7 M 0,154 h 7 v 7 H 0 v -7 m 7,0 h 7 v 7 H 7 v -7 m 7,0 h 7 v 7 h -7 v -7 m 7,0 h 7 v 7 h -7 v -7 m 7,0 h 7 v 7 h -7 v -7 m 7,0 h 7 v 7 h -7 v -7 m 7,0 h 7 v 7 h -7 v -7 m 21,0 h 7 v 7 h -7 v -7 m 21,0 h 7 v 7 h -7 v -7 m 21,0 h 7 v 7 h -7 v -7 m 14,0 h 7 v 7 h -7 v -7 m 7,0 h 7 v 7 h -7 v -7 m 7,0 h 7 v 7 h -7 v -7 m 7,0 h 7 v 7 h -7 v -7 m 14,0 h 7 v 7 h -7 v -7 m 14,0 h 7 v 7 h -7 v -7 m 7,0 h 7 v 7 h -7 v -7 m 14,0 h 7 v 7 h -7 v -7 M 0,161 h 7 v 7 H 0 v -7 m 42,0 h 7 v 7 h -7 v -7 m 14,0 h 7 v 7 h -7 v -7 m 7,0 h 7 v 7 h -7 v -7 m 21,0 h 7 v 7 h -7 v -7 m 21,0 h 7 v 7 h -7 v -7 m 7,0 h 7 v 7 h -7 v -7 m 28,0 h 7 v 7 h -7 v -7 m 28,0 h 7 v 7 h -7 v -7 m 28,0 h 7 v 7 h -7 v -7 M 0,168 h 7 v 7 H 0 v -7 m 14,0 h 7 v 7 h -7 v -7 m 7,0 h 7 v 7 h -7 v -7 m 7,0 h 7 v 7 h -7 v -7 m 14,0 h 7 v 7 h -7 v -7 m 14,0 h 7 v 7 h -7 v -7 m 14,0 h 7 v 7 h -7 v -7 m 14,0 h 7 v 7 h -7 v -7 m 21,0 h 7 v 7 h -7 v -7 m 14,0 h 7 v 7 h -7 v -7 m 21,0 h 7 v 7 h -7 v -7 m 7,0 h 7 v 7 h -7 v -7 m 7,0 h 7 v 7 h -7 v -7 m 7,0 h 7 v 7 h -7 v -7 m 7,0 h 7 v 7 h -7 v -7 m 7,0 h 7 v 7 h -7 v -7 m 7,0 h 7 v 7 h -7 v -7 M 0,175 h 7 v 7 H 0 v -7 m 14,0 h 7 v 7 h -7 v -7 m 7,0 h 7 v 7 h -7 v -7 m 7,0 h 7 v 7 h -7 v -7 m 14,0 h 7 v 7 h -7 v -7 m 14,0 h 7 v 7 h -7 v -7 m 21,0 h 7 v 7 h -7 v -7 m 7,0 h 7 v 7 h -7 v -7 m 7,0 h 7 v 7 h -7 v -7 m 21,0 h 7 v 7 h -7 v -7 m 14,0 h 7 v 7 h -7 v -7 m 14,0 h 7 v 7 h -7 v -7 m 21,0 h 7 v 7 h -7 v -7 m 14,0 h 7 v 7 h -7 v -7 M 0,182 h 7 v 7 H 0 v -7 m 14,0 h 7 v 7 h -7 v -7 m 7,0 h 7 v 7 h -7 v -7 m 7,0 h 7 v 7 h -7 v -7 m 14,0 h 7 v 7 h -7 v -7 m 14,0 h 7 v 7 h -7 v -7 m 7,0 h 7 v 7 h -7 v -7 m 7,0 h 7 v 7 h -7 v -7 m 28,0 h 7 v 7 h -7 v -7 m 7,0 h 7 v 7 h -7 v -7 m 7,0 h 7 v 7 h -7 v -7 m 14,0 h 7 v 7 h -7 v -7 m 7,0 h 7 v 7 h -7 v -7 m 14,0 h 7 v 7 h -7 v -7 m 21,0 h 7 v 7 h -7 v -7 m 21,0 h 7 v 7 h -7 v -7 M 0,189 h 7 v 7 H 0 v -7 m 42,0 h 7 v 7 h -7 v -7 m 21,0 h 7 v 7 h -7 v -7 m 21,0 h 7 v 7 h -7 v -7 m 14,0 h 7 v 7 h -7 v -7 m 7,0 h 7 v 7 h -7 v -7 m 28,0 h 7 v 7 h -7 v -7 m 7,0 h 7 v 7 h -7 v -7 m 7,0 h 7 v 7 h -7 v -7 m 28,0 h 7 v 7 h -7 v -7 m 14,0 h 7 v 7 h -7 v -7 M 0,196 h 7 v 7 H 0 v -7 m 7,0 h 7 v 7 H 7 v -7 m 7,0 h 7 v 7 h -7 v -7 m 7,0 h 7 v 7 h -7 v -7 m 7,0 h 7 v 7 h -7 v -7 m 7,0 h 7 v 7 h -7 v -7 m 7,0 h 7 v 7 h -7 v -7 m 14,0 h 7 v 7 h -7 v -7 m 14,0 h 7 v 7 h -7 v -7 m 7,0 h 7 v 7 h -7 v -7 m 14,0 h 7 v 7 h -7 v -7 m 14,0 h 7 v 7 h -7 v -7 m 7,0 h 7 v 7 h -7 v -7 m 7,0 h 7 v 7 h -7 v -7 m 7,0 h 7 v 7 h -7 v -7 m 42,0 h 7 v 7 h -7 v -7"
     id="path1" />
  <circle
     cx="101.5"
     cy="101.5"
     r="35"
     fill="#26a17b"
     id="circle1"
     style="stroke-width:0.999998" />
  <g
     fill="#ffffff"
     id="g2"
     transform="matrix(0.56270096,0,0,0.56270096,64.567122,57.028055)"
     style="stroke-width:1.77714">
    <path
       d="m 73.295,81.633 v -0.01 c -0.43,0.03 -2.65,0.16 -7.59,0.16 -3.95,0 -6.72,-0.11 -7.7,-0.16 v 0.01 c -15.19,-0.67 -26.52,-3.31 -26.52,-6.48 0,-3.16 11.34,-5.81 26.52,-6.48 v 10.33 c 0.99,0.07 3.84,0.24 7.77,0.24 4.72,0 7.08,-0.2 7.52,-0.24 v -10.32 c 15.16,0.68 26.46,3.32 26.46,6.48 0,3.16 -11.31,5.8 -26.46,6.48 m 0,-14.03 v -9.24 h 21.15 v -14.09 h -57.58 v 14.09 h 21.15 v 9.24 c -17.19,0.79 -30.11,4.19 -30.11,8.27 0,4.08 12.93,7.48 30.11,8.28 v 29.62 h 15.29 v -29.62 c 17.16,-0.79 30.06,-4.19 30.06,-8.27 0,-4.07 -12.9,-7.48 -30.06,-8.27"
       id="path1-6"
       style="stroke-width:1.77714" />
  </g>
</svg>
