<?xml version="1.0" encoding="UTF-8" standalone="no"?>
<svg
   version="1.1"
   width="203"
   height="204"
   viewBox="0 0 203 204"
   shape-rendering="crispEdges"
   id="svg1"
   sodipodi:docname="xmr.svg"
   inkscape:version="1.3.2 (091e20ef0f, 2023-11-25, custom)"
   xmlns:inkscape="http://www.inkscape.org/namespaces/inkscape"
   xmlns:sodipodi="http://sodipodi.sourceforge.net/DTD/sodipodi-0.dtd"
   xmlns="http://www.w3.org/2000/svg"
   xmlns:svg="http://www.w3.org/2000/svg">
  <defs
     id="defs1" />
  <sodipodi:namedview
     id="namedview1"
     pagecolor="#505050"
     bordercolor="#ffffff"
     borderopacity="1"
     inkscape:showpageshadow="0"
     inkscape:pageopacity="0"
     inkscape:pagecheckerboard="1"
     inkscape:deskcolor="#d1d1d1"
     inkscape:zoom="2.7302034"
     inkscape:cx="-9.8893731"
     inkscape:cy="36.810444"
     inkscape:window-width="1874"
     inkscape:window-height="1258"
     inkscape:window-x="2910"
     inkscape:window-y="425"
     inkscape:window-maximized="0"
     inkscape:current-layer="svg1" />
  <path
     class="qrcode"
     fill="#000000"
     d="M 0,0 H 4.951219 V 4.97561 H 0 V 0 m 4.951219,0 h 4.95122 V 4.97561 H 4.951219 V 0 m 4.95122,0 h 4.95122 V 4.97561 H 9.902439 V 0 m 4.95122,0 h 4.951219 V 4.97561 H 14.853659 V 0 m 4.951219,0 h 4.95122 v 4.97561 h -4.95122 V 0 m 4.95122,0 h 4.951219 V 4.97561 H 24.756098 V 0 m 4.951219,0 h 4.95122 v 4.97561 h -4.95122 V 0 m 9.902439,0 h 4.951219 V 4.97561 H 39.609756 V 0 m 4.951219,0 h 4.95122 v 4.97561 h -4.95122 V 0 m 14.853659,0 h 4.951219 V 4.97561 H 59.414634 V 0 M 74.26829,0 h 4.95122 V 4.97561 H 74.26829 V 0 m 4.95122,0 h 4.95122 V 4.97561 H 79.21951 V 0 m 9.90244,0 h 4.95122 V 4.97561 H 89.12195 V 0 m 4.95122,0 h 4.95122 V 4.97561 H 94.07317 V 0 m 4.95122,0 h 4.95122 V 4.97561 H 99.02439 V 0 m 9.90244,0 h 4.95122 v 4.97561 h -4.95122 V 0 m 4.95122,0 h 4.95122 v 4.97561 h -4.95122 V 0 m 14.85366,0 h 4.95122 v 4.97561 h -4.95122 V 0 m 9.90244,0 h 4.95122 v 4.97561 h -4.95122 V 0 m 14.85365,0 h 4.95122 V 4.97561 H 153.4878 V 0 m 4.95122,0 h 4.95122 v 4.97561 h -4.95122 V 0 m 9.90244,0 h 4.95122 v 4.97561 h -4.95122 V 0 m 4.95122,0 h 4.95122 v 4.97561 h -4.95122 V 0 m 4.95122,0 h 4.95122 V 4.97561 H 178.2439 V 0 m 4.95122,0 h 4.95122 v 4.97561 h -4.95122 V 0 m 4.95122,0 h 4.95122 v 4.97561 h -4.95122 V 0 m 4.95122,0 h 4.95122 v 4.97561 h -4.95122 V 0 m 4.95122,0 H 203 v 4.97561 h -4.95122 V 0 M 0,4.97561 H 4.951219 V 9.951219 H 0 V 4.97561 m 29.707317,0 h 4.95122 v 4.975609 h -4.95122 V 4.97561 m 9.902439,0 h 4.951219 V 9.951219 H 39.609756 V 4.97561 m 9.902439,0 h 4.951219 V 9.951219 H 49.512195 V 4.97561 m 9.902439,0 h 4.951219 V 9.951219 H 59.414634 V 4.97561 m 4.951219,0 h 4.95122 v 4.975609 h -4.95122 V 4.97561 m 4.95122,0 H 74.26829 V 9.951219 H 69.317073 V 4.97561 m 9.902437,0 h 4.95122 V 9.951219 H 79.21951 V 4.97561 m 4.95122,0 h 4.95122 V 9.951219 H 84.17073 V 4.97561 m 19.80488,0 h 4.95122 v 4.975609 h -4.95122 V 4.97561 m 4.95122,0 h 4.95122 v 4.975609 h -4.95122 V 4.97561 m 14.85366,0 h 4.95122 v 4.975609 h -4.95122 V 4.97561 m 4.95122,0 h 4.95122 v 4.975609 h -4.95122 V 4.97561 m 9.90244,0 h 4.95122 v 4.975609 h -4.95122 V 4.97561 m 19.80487,0 h 4.95122 v 4.975609 h -4.95122 V 4.97561 m 9.90244,0 h 4.95122 v 4.975609 h -4.95122 V 4.97561 m 29.70732,0 H 203 v 4.975609 h -4.95122 V 4.97561 M 0,9.951219 h 4.951219 v 4.97561 H 0 v -4.97561 m 9.902439,0 h 4.95122 v 4.97561 h -4.95122 v -4.97561 m 4.95122,0 h 4.951219 v 4.97561 h -4.951219 v -4.97561 m 4.951219,0 h 4.95122 v 4.97561 h -4.95122 v -4.97561 m 9.902439,0 h 4.95122 v 4.97561 h -4.95122 v -4.97561 m 29.707317,0 h 4.951219 v 4.97561 h -4.951219 v -4.97561 m 19.804876,0 h 4.95122 v 4.97561 h -4.95122 v -4.97561 m 9.90244,0 h 4.95122 v 4.97561 h -4.95122 v -4.97561 m 4.95122,0 h 4.95122 v 4.97561 h -4.95122 v -4.97561 m 9.90244,0 h 4.95122 v 4.97561 h -4.95122 v -4.97561 m 4.95122,0 h 4.95122 v 4.97561 h -4.95122 v -4.97561 m 9.90244,0 h 4.95122 v 4.97561 h -4.95122 v -4.97561 m 4.95122,0 h 4.95122 v 4.97561 h -4.95122 v -4.97561 m 9.90244,0 h 4.95122 v 4.97561 h -4.95122 v -4.97561 m 4.95122,0 h 4.95122 v 4.97561 h -4.95122 v -4.97561 m 9.90243,0 h 4.95122 v 4.97561 h -4.95122 v -4.97561 m 19.80488,0 h 4.95122 v 4.97561 h -4.95122 v -4.97561 m 9.90244,0 h 4.95122 v 4.97561 h -4.95122 v -4.97561 m 4.95122,0 h 4.95122 v 4.97561 h -4.95122 v -4.97561 m 4.95122,0 h 4.95122 v 4.97561 h -4.95122 v -4.97561 m 9.90244,0 H 203 v 4.97561 h -4.95122 V 9.951219 M 0,14.926829 h 4.951219 v 4.97561 H 0 v -4.97561 m 9.902439,0 h 4.95122 v 4.97561 h -4.95122 v -4.97561 m 4.95122,0 h 4.951219 v 4.97561 h -4.951219 v -4.97561 m 4.951219,0 h 4.95122 v 4.97561 h -4.95122 v -4.97561 m 9.902439,0 h 4.95122 v 4.97561 h -4.95122 v -4.97561 m 9.902439,0 h 4.951219 v 4.97561 h -4.951219 v -4.97561 m 39.609754,0 h 4.95122 v 4.97561 h -4.95122 v -4.97561 m 9.90244,0 h 4.95122 v 4.97561 h -4.95122 v -4.97561 m 4.95122,0 h 4.95122 v 4.97561 h -4.95122 v -4.97561 m 4.95122,0 h 4.95122 v 4.97561 h -4.95122 v -4.97561 m 4.95122,0 h 4.95122 v 4.97561 h -4.95122 v -4.97561 m 4.95122,0 h 4.95122 v 4.97561 h -4.95122 v -4.97561 m 4.95122,0 h 4.95122 v 4.97561 h -4.95122 v -4.97561 m 9.90244,0 h 4.95122 v 4.97561 h -4.95122 v -4.97561 m 4.95122,0 h 4.95122 v 4.97561 h -4.95122 v -4.97561 m 4.95122,0 h 4.95122 v 4.97561 h -4.95122 v -4.97561 m 34.65853,0 h 4.95122 v 4.97561 h -4.95122 v -4.97561 m 9.90244,0 h 4.95122 v 4.97561 h -4.95122 v -4.97561 m 4.95122,0 h 4.95122 v 4.97561 h -4.95122 v -4.97561 m 4.95122,0 h 4.95122 v 4.97561 h -4.95122 v -4.97561 m 9.90244,0 H 203 v 4.97561 h -4.95122 v -4.97561 M 0,19.902439 h 4.951219 v 4.97561 H 0 v -4.97561 m 9.902439,0 h 4.95122 v 4.97561 h -4.95122 v -4.97561 m 4.95122,0 h 4.951219 v 4.97561 h -4.951219 v -4.97561 m 4.951219,0 h 4.95122 v 4.97561 h -4.95122 v -4.97561 m 9.902439,0 h 4.95122 v 4.97561 h -4.95122 v -4.97561 m 19.804878,0 h 4.951219 v 4.97561 h -4.951219 v -4.97561 m 4.951219,0 h 4.95122 v 4.97561 h -4.95122 v -4.97561 m 4.95122,0 h 4.951219 v 4.97561 h -4.951219 v -4.97561 m 19.804876,0 h 4.95122 v 4.97561 h -4.95122 v -4.97561 m 4.95122,0 h 4.95122 v 4.97561 h -4.95122 v -4.97561 m 4.95122,0 h 4.95122 v 4.97561 h -4.95122 v -4.97561 m 4.95122,0 h 4.95122 v 4.97561 h -4.95122 v -4.97561 m 29.70732,0 h 4.95122 v 4.97561 h -4.95122 v -4.97561 m 14.85366,0 h 4.95122 v 4.97561 h -4.95122 v -4.97561 m 4.95122,0 h 4.95121 v 4.97561 h -4.95121 v -4.97561 m 9.90243,0 h 4.95122 v 4.97561 h -4.95122 v -4.97561 m 14.85366,0 h 4.95122 v 4.97561 h -4.95122 v -4.97561 m 9.90244,0 h 4.95122 v 4.97561 h -4.95122 v -4.97561 m 4.95122,0 h 4.95122 v 4.97561 h -4.95122 v -4.97561 m 4.95122,0 h 4.95122 v 4.97561 h -4.95122 v -4.97561 m 9.90244,0 H 203 v 4.97561 h -4.95122 v -4.97561 M 0,24.878049 h 4.951219 v 4.975609 H 0 v -4.975609 m 29.707317,0 h 4.95122 v 4.975609 h -4.95122 v -4.975609 m 24.756097,0 h 4.95122 v 4.975609 h -4.95122 v -4.975609 m 14.853659,0 h 4.951217 v 4.975609 h -4.951217 v -4.975609 m 4.951217,0 h 4.95122 v 4.975609 h -4.95122 v -4.975609 m 19.80488,0 h 4.95122 v 4.975609 h -4.95122 v -4.975609 m 9.90244,0 h 4.95122 v 4.975609 h -4.95122 v -4.975609 m 19.80488,0 h 4.95122 v 4.975609 h -4.95122 v -4.975609 m 14.85366,0 h 4.95122 v 4.975609 h -4.95122 v -4.975609 m 9.90243,0 h 4.95122 v 4.975609 h -4.95122 v -4.975609 m 4.95122,0 h 4.95122 v 4.975609 h -4.95122 v -4.975609 m 14.85366,0 h 4.95122 v 4.975609 h -4.95122 v -4.975609 m 29.70732,0 H 203 v 4.975609 h -4.95122 V 24.878049 M 0,29.853658 h 4.951219 v 4.97561 H 0 v -4.97561 m 4.951219,0 h 4.95122 v 4.97561 h -4.95122 v -4.97561 m 4.95122,0 h 4.95122 v 4.97561 h -4.95122 v -4.97561 m 4.95122,0 h 4.951219 v 4.97561 h -4.951219 v -4.97561 m 4.951219,0 h 4.95122 v 4.97561 h -4.95122 v -4.97561 m 4.95122,0 h 4.951219 v 4.97561 h -4.951219 v -4.97561 m 4.951219,0 h 4.95122 v 4.97561 h -4.95122 v -4.97561 m 9.902439,0 h 4.951219 v 4.97561 h -4.951219 v -4.97561 m 9.902439,0 h 4.951219 v 4.97561 h -4.951219 v -4.97561 m 9.902439,0 h 4.951219 v 4.97561 h -4.951219 v -4.97561 m 9.902439,0 h 4.951217 v 4.97561 h -4.951217 v -4.97561 m 9.902437,0 h 4.95122 v 4.97561 h -4.95122 v -4.97561 m 9.90244,0 h 4.95122 v 4.97561 h -4.95122 v -4.97561 m 9.90244,0 h 4.95122 v 4.97561 h -4.95122 v -4.97561 m 9.90244,0 h 4.95122 v 4.97561 h -4.95122 v -4.97561 m 9.90244,0 h 4.95122 v 4.97561 h -4.95122 v -4.97561 m 9.90244,0 h 4.95122 v 4.97561 h -4.95122 v -4.97561 m 9.90244,0 h 4.95122 v 4.97561 h -4.95122 v -4.97561 m 9.90243,0 h 4.95122 v 4.97561 h -4.95122 v -4.97561 m 9.90244,0 h 4.95122 v 4.97561 h -4.95122 v -4.97561 m 9.90244,0 h 4.95122 v 4.97561 h -4.95122 v -4.97561 m 4.95122,0 h 4.95122 v 4.97561 h -4.95122 v -4.97561 m 4.95122,0 h 4.95122 v 4.97561 h -4.95122 v -4.97561 m 4.95122,0 h 4.95122 v 4.97561 h -4.95122 v -4.97561 m 4.95122,0 h 4.95122 v 4.97561 h -4.95122 v -4.97561 m 4.95122,0 h 4.95122 v 4.97561 h -4.95122 v -4.97561 m 4.95122,0 H 203 v 4.97561 h -4.95122 v -4.97561 m -158.439024,4.97561 h 4.951219 v 4.97561 h -4.951219 v -4.97561 m 4.951219,0 h 4.95122 v 4.97561 h -4.95122 v -4.97561 m 4.95122,0 h 4.951219 v 4.97561 h -4.951219 v -4.97561 m 4.951219,0 h 4.95122 v 4.97561 h -4.95122 v -4.97561 m 14.853659,0 h 4.951217 v 4.97561 h -4.951217 v -4.97561 m 4.951217,0 h 4.95122 v 4.97561 h -4.95122 v -4.97561 m 4.95122,0 h 4.95122 v 4.97561 h -4.95122 v -4.97561 m 4.95122,0 h 4.95122 v 4.97561 h -4.95122 v -4.97561 m 4.95122,0 h 4.95122 v 4.97561 h -4.95122 v -4.97561 m 4.95122,0 h 4.95122 v 4.97561 h -4.95122 v -4.97561 m 4.95122,0 h 4.95122 v 4.97561 h -4.95122 v -4.97561 m 9.90244,0 h 4.95122 v 4.97561 h -4.95122 v -4.97561 m 9.90244,0 h 4.95122 v 4.97561 h -4.95122 v -4.97561 m 9.90244,0 h 4.95122 v 4.97561 h -4.95122 v -4.97561 m 14.85366,0 h 4.95121 v 4.97561 h -4.95121 v -4.97561 m 4.95121,0 h 4.95122 v 4.97561 h -4.95122 v -4.97561 m 9.90244,0 h 4.95122 v 4.97561 h -4.95122 v -4.97561 M 0,39.804878 h 4.951219 v 4.97561 H 0 v -4.97561 m 9.902439,0 h 4.95122 v 4.97561 h -4.95122 v -4.97561 m 4.95122,0 h 4.951219 v 4.97561 h -4.951219 v -4.97561 m 9.902439,0 h 4.951219 v 4.97561 h -4.951219 v -4.97561 m 4.951219,0 h 4.95122 v 4.97561 h -4.95122 v -4.97561 m 4.95122,0 h 4.951219 v 4.97561 h -4.951219 v -4.97561 m 9.902438,0 h 4.95122 v 4.97561 h -4.95122 v -4.97561 m 14.853659,0 h 4.951219 v 4.97561 h -4.951219 v -4.97561 m 4.951219,0 h 4.95122 v 4.97561 h -4.95122 v -4.97561 m 24.756097,0 h 4.95122 v 4.97561 h -4.95122 v -4.97561 m 4.95122,0 h 4.95122 v 4.97561 h -4.95122 v -4.97561 m 24.7561,0 h 4.95122 v 4.97561 h -4.95122 v -4.97561 m 9.90244,0 h 4.95122 v 4.97561 h -4.95122 v -4.97561 m 14.85366,0 h 4.95121 v 4.97561 h -4.95121 v -4.97561 m 9.90243,0 h 4.95122 v 4.97561 h -4.95122 v -4.97561 m 14.85366,0 h 4.95122 v 4.97561 h -4.95122 v -4.97561 m 14.85366,0 h 4.95122 v 4.97561 h -4.95122 v -4.97561 m 9.90244,0 h 4.95122 v 4.97561 h -4.95122 v -4.97561 m 4.95122,0 H 203 v 4.97561 h -4.95122 v -4.97561 M 0,44.780488 h 4.951219 v 4.975609 H 0 v -4.975609 m 4.951219,0 h 4.95122 v 4.975609 h -4.95122 v -4.975609 m 14.853659,0 h 4.95122 v 4.975609 h -4.95122 v -4.975609 m 14.853659,0 h 4.951219 v 4.975609 h -4.951219 v -4.975609 m 4.951219,0 h 4.951219 v 4.975609 h -4.951219 v -4.975609 m 9.902439,0 h 4.951219 v 4.975609 h -4.951219 v -4.975609 m 24.756095,0 h 4.95122 v 4.975609 h -4.95122 v -4.975609 m 4.95122,0 h 4.95122 v 4.975609 h -4.95122 v -4.975609 m 14.85366,0 h 4.95122 v 4.975609 h -4.95122 v -4.975609 m 4.95122,0 h 4.95122 v 4.975609 h -4.95122 v -4.975609 m 4.95122,0 h 4.95122 v 4.975609 h -4.95122 v -4.975609 m 4.95122,0 h 4.95122 v 4.975609 h -4.95122 v -4.975609 m 4.95122,0 h 4.95122 v 4.975609 h -4.95122 v -4.975609 m 4.95122,0 h 4.95122 v 4.975609 h -4.95122 v -4.975609 m 9.90244,0 h 4.95122 v 4.975609 h -4.95122 v -4.975609 m 14.85366,0 h 4.95121 v 4.975609 h -4.95121 v -4.975609 m 9.90243,0 h 4.95122 v 4.975609 h -4.95122 v -4.975609 m 4.95122,0 h 4.95122 v 4.975609 h -4.95122 v -4.975609 m 9.90244,0 h 4.95122 v 4.975609 h -4.95122 v -4.975609 m 9.90244,0 h 4.95122 v 4.975609 h -4.95122 v -4.975609 m 4.95122,0 h 4.95122 v 4.975609 h -4.95122 v -4.975609 m 9.90244,0 h 4.95122 v 4.975609 h -4.95122 V 44.780488 M 4.951219,49.756097 h 4.95122 v 4.97561 h -4.95122 v -4.97561 m 24.756098,0 h 4.95122 v 4.97561 h -4.95122 v -4.97561 m 9.902439,0 h 4.951219 v 4.97561 h -4.951219 v -4.97561 m 4.951219,0 h 4.95122 v 4.97561 h -4.95122 v -4.97561 m 4.95122,0 h 4.951219 v 4.97561 h -4.951219 v -4.97561 m 4.951219,0 h 4.95122 v 4.97561 h -4.95122 v -4.97561 m 4.95122,0 h 4.951219 v 4.97561 h -4.951219 v -4.97561 m 4.951219,0 h 4.95122 v 4.97561 h -4.95122 v -4.97561 m 24.756097,0 h 4.95122 v 4.97561 h -4.95122 v -4.97561 m 19.80488,0 h 4.95122 v 4.97561 h -4.95122 v -4.97561 m 4.95122,0 h 4.95122 v 4.97561 h -4.95122 v -4.97561 m 4.95122,0 h 4.95122 v 4.97561 h -4.95122 v -4.97561 m 4.95122,0 h 4.95122 v 4.97561 h -4.95122 v -4.97561 m 14.85366,0 h 4.95122 v 4.97561 h -4.95122 v -4.97561 m 9.90243,0 h 4.95122 v 4.97561 h -4.95122 v -4.97561 m 9.90244,0 h 4.95122 v 4.97561 h -4.95122 v -4.97561 m 14.85366,0 h 4.95122 v 4.97561 h -4.95122 v -4.97561 m 14.85366,0 h 4.95122 v 4.97561 h -4.95122 v -4.97561 m 4.95122,0 h 4.95122 v 4.97561 h -4.95122 v -4.97561 M 0,54.731707 h 4.951219 v 4.97561 H 0 v -4.97561 m 4.951219,0 h 4.95122 v 4.97561 h -4.95122 v -4.97561 m 4.95122,0 h 4.95122 v 4.97561 h -4.95122 v -4.97561 m 9.902439,0 h 4.95122 v 4.97561 h -4.95122 v -4.97561 m 14.853659,0 h 4.951219 v 4.97561 h -4.951219 v -4.97561 m 14.853658,0 h 4.951219 v 4.97561 h -4.951219 v -4.97561 m 9.902439,0 h 4.951219 v 4.97561 h -4.951219 v -4.97561 m 9.902439,0 h 4.951217 v 4.97561 h -4.951217 v -4.97561 m 4.951217,0 h 4.95122 v 4.97561 h -4.95122 v -4.97561 m 4.95122,0 h 4.95122 v 4.97561 h -4.95122 v -4.97561 m 19.80488,0 h 4.95122 v 4.97561 h -4.95122 v -4.97561 m 14.85366,0 h 4.95122 v 4.97561 h -4.95122 v -4.97561 m 9.90244,0 h 4.95122 v 4.97561 h -4.95122 v -4.97561 m 9.90244,0 h 4.95122 v 4.97561 h -4.95122 v -4.97561 m 4.95122,0 h 4.95122 v 4.97561 h -4.95122 v -4.97561 m 9.90243,0 h 4.95122 v 4.97561 h -4.95122 v -4.97561 m 14.85366,0 h 4.95122 v 4.97561 h -4.95122 v -4.97561 m 14.85366,0 h 4.95122 v 4.97561 h -4.95122 v -4.97561 m 4.95122,0 h 4.95122 v 4.97561 h -4.95122 v -4.97561 M 9.902439,59.707317 h 4.95122 v 4.97561 h -4.95122 v -4.97561 m 4.95122,0 h 4.951219 v 4.97561 h -4.951219 v -4.97561 m 4.951219,0 h 4.95122 v 4.97561 h -4.95122 v -4.97561 m 9.902439,0 h 4.95122 v 4.97561 h -4.95122 v -4.97561 m 19.804878,0 h 4.951219 v 4.97561 h -4.951219 v -4.97561 m 4.951219,0 h 4.95122 v 4.97561 h -4.95122 v -4.97561 m 29.707316,0 h 4.95122 v 4.97561 h -4.95122 v -4.97561 m 24.7561,0 h 4.95122 v 4.97561 h -4.95122 v -4.97561 m 4.95122,0 h 4.95122 v 4.97561 h -4.95122 v -4.97561 m 14.85366,0 h 4.95122 v 4.97561 h -4.95122 v -4.97561 m 4.95122,0 h 4.95122 v 4.97561 h -4.95122 v -4.97561 m 24.75609,0 h 4.95122 v 4.97561 h -4.95122 v -4.97561 m 14.85366,0 h 4.95122 v 4.97561 h -4.95122 v -4.97561 m 4.95122,0 h 4.95122 v 4.97561 h -4.95122 v -4.97561 m 4.95122,0 h 4.95122 v 4.97561 h -4.95122 v -4.97561 m 4.95122,0 h 4.95122 v 4.97561 h -4.95122 v -4.97561 m 4.95122,0 h 4.95122 v 4.97561 h -4.95122 v -4.97561 m 4.95122,0 H 203 v 4.97561 h -4.95122 v -4.97561 M 0,64.682927 h 4.951219 v 4.975609 H 0 v -4.975609 m 9.902439,0 h 4.95122 v 4.975609 h -4.95122 v -4.975609 m 14.853659,0 h 4.951219 v 4.975609 h -4.951219 v -4.975609 m 19.804877,0 h 4.95122 v 4.975609 h -4.95122 v -4.975609 m 14.853659,0 h 4.951219 v 4.975609 h -4.951219 v -4.975609 m 4.951219,0 h 4.95122 v 4.975609 h -4.95122 v -4.975609 m 9.902437,0 h 4.95122 v 4.975609 h -4.95122 v -4.975609 m 14.85366,0 h 4.95122 v 4.975609 h -4.95122 v -4.975609 m 14.85366,0 h 4.95122 v 4.975609 h -4.95122 v -4.975609 m 9.90244,0 h 4.95122 v 4.975609 h -4.95122 v -4.975609 m 14.85366,0 h 4.95122 v 4.975609 h -4.95122 v -4.975609 m 4.95122,0 h 4.95122 v 4.975609 h -4.95122 v -4.975609 m 4.95122,0 h 4.95122 v 4.975609 h -4.95122 v -4.975609 m 4.95122,0 h 4.95121 v 4.975609 h -4.95121 v -4.975609 m 19.80487,0 h 4.95122 v 4.975609 h -4.95122 v -4.975609 m 19.80488,0 h 4.95122 v 4.975609 h -4.95122 v -4.975609 m 4.95122,0 h 4.95122 v 4.975609 h -4.95122 v -4.975609 m 9.90244,0 H 203 v 4.975609 h -4.95122 V 64.682927 M 9.902439,69.658536 h 4.95122 v 4.975614 h -4.95122 v -4.975614 m 9.902439,0 h 4.95122 v 4.975614 h -4.95122 v -4.975614 m 9.902439,0 h 4.95122 v 4.975614 h -4.95122 v -4.975614 m 34.658536,0 h 4.95122 v 4.975614 h -4.95122 v -4.975614 m 9.902437,0 h 4.95122 v 4.975614 h -4.95122 v -4.975614 m 9.90244,0 h 4.95122 v 4.975614 h -4.95122 v -4.975614 m 4.95122,0 h 4.95122 v 4.975614 h -4.95122 v -4.975614 m 19.80488,0 h 4.95122 v 4.975614 h -4.95122 v -4.975614 m 9.90244,0 h 4.95122 v 4.975614 h -4.95122 v -4.975614 m 4.95122,0 h 4.95122 v 4.975614 h -4.95122 v -4.975614 m 14.85366,0 h 4.95122 v 4.975614 h -4.95122 v -4.975614 m 9.90243,0 h 4.95122 v 4.975614 h -4.95122 v -4.975614 m 4.95122,0 h 4.95122 v 4.975614 h -4.95122 v -4.975614 m 4.95122,0 h 4.95122 v 4.975614 h -4.95122 v -4.975614 m 4.95122,0 h 4.95122 v 4.975614 h -4.95122 v -4.975614 m 29.70732,0 h 4.95122 v 4.975614 h -4.95122 v -4.975614 m 4.95122,0 H 203 v 4.975614 h -4.95122 V 69.658536 M 9.902439,74.63415 h 4.95122 v 4.97561 h -4.95122 v -4.97561 m 4.95122,0 h 4.951219 v 4.97561 h -4.951219 v -4.97561 m 19.804878,0 h 4.951219 v 4.97561 h -4.951219 v -4.97561 m 9.902438,0 h 4.95122 v 4.97561 h -4.95122 v -4.97561 m 14.853659,0 h 4.951219 v 4.97561 h -4.951219 v -4.97561 m 9.902439,0 h 4.951217 v 4.97561 h -4.951217 v -4.97561 m 19.804877,0 h 4.95122 v 4.97561 h -4.95122 v -4.97561 m 4.95122,0 h 4.95122 v 4.97561 h -4.95122 v -4.97561 m 4.95122,0 h 4.95122 v 4.97561 h -4.95122 v -4.97561 m 19.80488,0 h 4.95122 v 4.97561 h -4.95122 v -4.97561 m 19.80488,0 h 4.95122 v 4.97561 h -4.95122 v -4.97561 m 14.85365,0 h 4.95122 v 4.97561 h -4.95122 v -4.97561 m 14.85366,0 h 4.95122 v 4.97561 h -4.95122 v -4.97561 m 4.95122,0 h 4.95122 v 4.97561 h -4.95122 v -4.97561 m 4.95122,0 h 4.95122 v 4.97561 h -4.95122 v -4.97561 m 4.95122,0 h 4.95122 v 4.97561 h -4.95122 v -4.97561 m 9.90244,0 h 4.95122 v 4.97561 h -4.95122 V 74.63415 M 0,79.60976 h 4.951219 v 4.97561 H 0 v -4.97561 m 4.951219,0 h 4.95122 v 4.97561 h -4.95122 v -4.97561 m 4.95122,0 h 4.95122 v 4.97561 h -4.95122 v -4.97561 m 4.95122,0 h 4.951219 v 4.97561 h -4.951219 v -4.97561 m 14.853658,0 h 4.95122 v 4.97561 h -4.95122 v -4.97561 m 14.853658,0 h 4.95122 v 4.97561 h -4.95122 v -4.97561 m 24.756098,0 h 4.951217 v 4.97561 h -4.951217 v -4.97561 m 9.902437,0 h 4.95122 v 4.97561 h -4.95122 v -4.97561 m 4.95122,0 h 4.95122 v 4.97561 h -4.95122 v -4.97561 m 4.95122,0 h 4.95122 v 4.97561 h -4.95122 v -4.97561 m 4.95122,0 h 4.95122 v 4.97561 h -4.95122 v -4.97561 m 14.85366,0 h 4.95122 v 4.97561 h -4.95122 v -4.97561 m 4.95122,0 h 4.95122 v 4.97561 h -4.95122 v -4.97561 m 9.90244,0 h 4.95122 v 4.97561 h -4.95122 v -4.97561 m 4.95122,0 h 4.95122 v 4.97561 h -4.95122 v -4.97561 m 9.90244,0 h 4.95122 v 4.97561 h -4.95122 v -4.97561 m 14.85365,0 h 4.95122 v 4.97561 h -4.95122 v -4.97561 m 4.95122,0 h 4.95122 v 4.97561 h -4.95122 v -4.97561 m 4.95122,0 h 4.95122 v 4.97561 h -4.95122 v -4.97561 m 9.90244,0 h 4.95122 v 4.97561 h -4.95122 v -4.97561 m 4.95122,0 h 4.95122 v 4.97561 h -4.95122 v -4.97561 m 4.95122,0 h 4.95122 v 4.97561 h -4.95122 v -4.97561 m 4.95122,0 h 4.95122 v 4.97561 h -4.95122 v -4.97561 m 4.95122,0 h 4.95122 v 4.97561 h -4.95122 V 79.60976 M 0,84.58537 h 4.951219 v 4.97561 H 0 v -4.97561 m 14.853659,0 h 4.951219 v 4.97561 h -4.951219 v -4.97561 m 4.951219,0 h 4.95122 v 4.97561 h -4.95122 v -4.97561 m 24.756097,0 h 4.95122 v 4.97561 h -4.95122 v -4.97561 m 4.95122,0 h 4.951219 v 4.97561 h -4.951219 v -4.97561 m 4.951219,0 h 4.95122 v 4.97561 h -4.95122 v -4.97561 m 4.95122,0 h 4.951219 v 4.97561 h -4.951219 v -4.97561 m 4.951219,0 h 4.95122 v 4.97561 h -4.95122 v -4.97561 m 4.95122,0 h 4.951217 v 4.97561 h -4.951217 v -4.97561 m 4.951217,0 h 4.95122 v 4.97561 h -4.95122 v -4.97561 m 4.95122,0 h 4.95122 v 4.97561 h -4.95122 v -4.97561 m 4.95122,0 h 4.95122 v 4.97561 h -4.95122 v -4.97561 m 4.95122,0 h 4.95122 v 4.97561 h -4.95122 v -4.97561 m 9.90244,0 h 4.95122 v 4.97561 h -4.95122 v -4.97561 m 14.85366,0 h 4.95122 v 4.97561 h -4.95122 v -4.97561 m 4.95122,0 h 4.95122 v 4.97561 h -4.95122 v -4.97561 m 29.70731,0 h 4.95122 v 4.97561 h -4.95122 v -4.97561 m 4.95122,0 h 4.95122 v 4.97561 h -4.95122 v -4.97561 m 4.95122,0 h 4.95122 v 4.97561 h -4.95122 v -4.97561 m 4.95122,0 h 4.95122 v 4.97561 h -4.95122 v -4.97561 m 4.95122,0 h 4.95122 v 4.97561 h -4.95122 v -4.97561 m 4.95122,0 h 4.95122 v 4.97561 h -4.95122 v -4.97561 m 9.90244,0 h 4.95122 v 4.97561 h -4.95122 v -4.97561 m 14.85366,0 H 203 v 4.97561 h -4.95122 V 84.58537 M 0,89.56098 h 4.951219 v 4.97561 H 0 v -4.97561 m 4.951219,0 h 4.95122 v 4.97561 h -4.95122 v -4.97561 m 9.90244,0 h 4.951219 v 4.97561 h -4.951219 v -4.97561 m 14.853658,0 h 4.95122 v 4.97561 h -4.95122 v -4.97561 m 14.853658,0 h 4.95122 v 4.97561 h -4.95122 v -4.97561 m 4.95122,0 h 4.951219 v 4.97561 h -4.951219 v -4.97561 m 29.707315,0 h 4.95122 v 4.97561 h -4.95122 v -4.97561 m 4.95122,0 h 4.95122 v 4.97561 h -4.95122 v -4.97561 m 19.80488,0 h 4.95122 v 4.97561 h -4.95122 v -4.97561 m 29.70732,0 h 4.95122 v 4.97561 h -4.95122 v -4.97561 m 9.90244,0 h 4.95121 v 4.97561 h -4.95121 v -4.97561 m 4.95121,0 h 4.95122 v 4.97561 h -4.95122 v -4.97561 m 9.90244,0 h 4.95122 v 4.97561 h -4.95122 v -4.97561 m 14.85366,0 h 4.95122 v 4.97561 h -4.95122 v -4.97561 m 4.95122,0 h 4.95122 v 4.97561 h -4.95122 v -4.97561 m 4.95122,0 h 4.95122 v 4.97561 h -4.95122 v -4.97561 m 4.95122,0 h 4.95122 v 4.97561 h -4.95122 V 89.56098 M 4.951219,94.53659 h 4.95122 v 4.9756 h -4.95122 v -4.9756 m 9.90244,0 h 4.951219 v 4.9756 h -4.951219 v -4.9756 m 19.804878,0 h 4.951219 v 4.9756 h -4.951219 v -4.9756 m 9.902438,0 h 4.95122 v 4.9756 h -4.95122 v -4.9756 m 14.853659,0 h 4.951219 v 4.9756 h -4.951219 v -4.9756 m 4.951219,0 h 4.95122 v 4.9756 h -4.95122 v -4.9756 m 4.95122,0 h 4.951217 v 4.9756 h -4.951217 v -4.9756 m 4.951217,0 h 4.95122 v 4.9756 h -4.95122 v -4.9756 m 34.65854,0 h 4.95122 v 4.9756 h -4.95122 v -4.9756 m 4.95122,0 h 4.95122 v 4.9756 h -4.95122 v -4.9756 m 14.85366,0 h 4.95122 v 4.9756 h -4.95122 v -4.9756 m 4.95122,0 h 4.95122 v 4.9756 h -4.95122 v -4.9756 m 9.90244,0 h 4.95121 v 4.9756 h -4.95121 v -4.9756 m 4.95121,0 h 4.95122 v 4.9756 h -4.95122 v -4.9756 m 9.90244,0 h 4.95122 v 4.9756 h -4.95122 v -4.9756 m 4.95122,0 h 4.95122 v 4.9756 h -4.95122 v -4.9756 m 9.90244,0 h 4.95122 v 4.9756 h -4.95122 v -4.9756 m 14.85366,0 h 4.95122 v 4.9756 h -4.95122 v -4.9756 m 4.95122,0 h 4.95122 v 4.9756 h -4.95122 v -4.9756 M 9.902439,99.51219 h 4.95122 v 4.97561 h -4.95122 v -4.97561 m 19.804878,0 h 4.95122 v 4.97561 h -4.95122 v -4.97561 m 4.95122,0 h 4.951219 v 4.97561 h -4.951219 v -4.97561 m 4.951219,0 h 4.951219 v 4.97561 h -4.951219 v -4.97561 m 4.951219,0 h 4.95122 v 4.97561 h -4.95122 v -4.97561 m 19.804878,0 h 4.95122 v 4.97561 h -4.95122 v -4.97561 m 9.902437,0 h 4.95122 v 4.97561 h -4.95122 v -4.97561 m 4.95122,0 h 4.95122 v 4.97561 h -4.95122 v -4.97561 m 9.90244,0 h 4.95122 v 4.97561 h -4.95122 v -4.97561 m 4.95122,0 h 4.95122 v 4.97561 h -4.95122 v -4.97561 m 14.85366,0 h 4.95122 v 4.97561 h -4.95122 v -4.97561 m 4.95122,0 h 4.95122 v 4.97561 h -4.95122 v -4.97561 m 14.85366,0 h 4.95122 v 4.97561 h -4.95122 v -4.97561 m 19.80487,0 h 4.95122 v 4.97561 h -4.95122 v -4.97561 m 4.95122,0 h 4.95122 v 4.97561 h -4.95122 v -4.97561 m 4.95122,0 h 4.95122 v 4.97561 h -4.95122 v -4.97561 m 9.90244,0 h 4.95122 v 4.97561 h -4.95122 v -4.97561 m 9.90244,0 h 4.95122 v 4.97561 h -4.95122 v -4.97561 m 9.90244,0 h 4.95122 v 4.97561 h -4.95122 v -4.97561 m 4.95122,0 h 4.95122 v 4.97561 h -4.95122 V 99.51219 M 9.902439,104.4878 h 4.95122 v 4.97561 h -4.95122 v -4.97561 m 4.95122,0 h 4.951219 v 4.97561 h -4.951219 v -4.97561 m 4.951219,0 h 4.95122 v 4.97561 h -4.95122 v -4.97561 m 4.95122,0 h 4.951219 v 4.97561 h -4.951219 v -4.97561 m 9.902439,0 h 4.951219 v 4.97561 h -4.951219 v -4.97561 m 4.951219,0 h 4.951219 v 4.97561 h -4.951219 v -4.97561 m 9.902439,0 h 4.951219 v 4.97561 h -4.951219 v -4.97561 m 4.951219,0 h 4.95122 v 4.97561 h -4.95122 v -4.97561 m 9.902439,0 h 4.95122 v 4.97561 h -4.95122 v -4.97561 m 4.95122,0 h 4.951217 v 4.97561 h -4.951217 v -4.97561 m 4.951217,0 h 4.95122 v 4.97561 h -4.95122 v -4.97561 m 4.95122,0 h 4.95122 v 4.97561 h -4.95122 v -4.97561 m 9.90244,0 h 4.95122 v 4.97561 h -4.95122 v -4.97561 m 9.90244,0 h 4.95122 v 4.97561 h -4.95122 v -4.97561 m 4.95122,0 h 4.95122 v 4.97561 h -4.95122 v -4.97561 m 4.95122,0 h 4.95122 v 4.97561 h -4.95122 v -4.97561 m 4.95122,0 h 4.95122 v 4.97561 h -4.95122 v -4.97561 m 14.85366,0 h 4.95122 v 4.97561 h -4.95122 v -4.97561 m 4.95122,0 h 4.95122 v 4.97561 h -4.95122 v -4.97561 m 4.95122,0 h 4.95122 v 4.97561 h -4.95122 v -4.97561 m 14.85365,0 h 4.95122 v 4.97561 h -4.95122 v -4.97561 m 4.95122,0 h 4.95122 v 4.97561 h -4.95122 v -4.97561 m 9.90244,0 h 4.95122 v 4.97561 h -4.95122 v -4.97561 m 4.95122,0 h 4.95122 v 4.97561 h -4.95122 v -4.97561 m 4.95122,0 h 4.95122 v 4.97561 h -4.95122 v -4.97561 m 4.95122,0 h 4.95122 v 4.97561 h -4.95122 v -4.97561 m 14.85366,0 H 203 v 4.97561 h -4.95122 V 104.4878 M 4.951219,109.46341 h 4.95122 v 4.97561 h -4.95122 v -4.97561 m 9.90244,0 h 4.951219 v 4.97561 h -4.951219 v -4.97561 m 14.853658,0 h 4.95122 v 4.97561 h -4.95122 v -4.97561 m 9.902439,0 h 4.951219 v 4.97561 h -4.951219 v -4.97561 m 4.951219,0 h 4.95122 v 4.97561 h -4.95122 v -4.97561 m 4.95122,0 h 4.951219 v 4.97561 h -4.951219 v -4.97561 m 14.853658,0 h 4.95122 v 4.97561 h -4.95122 v -4.97561 m 4.95122,0 h 4.951217 v 4.97561 h -4.951217 v -4.97561 m 34.658537,0 h 4.95122 v 4.97561 h -4.95122 v -4.97561 m 9.90244,0 h 4.95122 v 4.97561 h -4.95122 v -4.97561 m 4.95122,0 h 4.95122 v 4.97561 h -4.95122 v -4.97561 m 4.95122,0 h 4.95122 v 4.97561 h -4.95122 v -4.97561 m 14.85366,0 h 4.95122 v 4.97561 h -4.95122 v -4.97561 m 9.90243,0 h 4.95122 v 4.97561 h -4.95122 v -4.97561 m 9.90244,0 h 4.95122 v 4.97561 h -4.95122 v -4.97561 m 9.90244,0 h 4.95122 v 4.97561 h -4.95122 v -4.97561 m 4.95122,0 h 4.95122 v 4.97561 h -4.95122 v -4.97561 m 4.95122,0 h 4.95122 v 4.97561 h -4.95122 v -4.97561 M 4.951219,114.43902 h 4.95122 v 4.97561 h -4.95122 v -4.97561 m 4.95122,0 h 4.95122 v 4.97561 h -4.95122 v -4.97561 m 24.756098,0 h 4.951219 v 4.97561 h -4.951219 v -4.97561 m 19.804877,0 h 4.95122 v 4.97561 h -4.95122 v -4.97561 m 14.853659,0 h 4.951217 v 4.97561 h -4.951217 v -4.97561 m 4.951217,0 h 4.95122 v 4.97561 h -4.95122 v -4.97561 m 4.95122,0 h 4.95122 v 4.97561 h -4.95122 v -4.97561 m 19.80488,0 h 4.95122 v 4.97561 h -4.95122 v -4.97561 m 14.85366,0 h 4.95122 v 4.97561 h -4.95122 v -4.97561 m 4.95122,0 h 4.95122 v 4.97561 h -4.95122 v -4.97561 m 4.95122,0 h 4.95122 v 4.97561 h -4.95122 v -4.97561 m 4.95122,0 h 4.95122 v 4.97561 h -4.95122 v -4.97561 m 9.90244,0 h 4.95122 v 4.97561 h -4.95122 v -4.97561 m 9.90243,0 h 4.95122 v 4.97561 h -4.95122 v -4.97561 m 19.80488,0 h 4.95122 v 4.97561 h -4.95122 v -4.97561 m 14.85366,0 h 4.95122 v 4.97561 h -4.95122 v -4.97561 m 14.85366,0 H 203 v 4.97561 h -4.95122 v -4.97561 M 0,119.41463 h 4.951219 v 4.97561 H 0 v -4.97561 m 4.951219,0 h 4.95122 v 4.97561 h -4.95122 v -4.97561 m 4.95122,0 h 4.95122 v 4.97561 h -4.95122 v -4.97561 m 4.95122,0 h 4.951219 v 4.97561 h -4.951219 v -4.97561 m 9.902439,0 h 4.951219 v 4.97561 h -4.951219 v -4.97561 m 4.951219,0 h 4.95122 v 4.97561 h -4.95122 v -4.97561 m 4.95122,0 h 4.951219 v 4.97561 h -4.951219 v -4.97561 m 4.951219,0 h 4.951219 v 4.97561 h -4.951219 v -4.97561 m 9.902439,0 h 4.951219 v 4.97561 h -4.951219 v -4.97561 m 9.902439,0 h 4.951219 v 4.97561 h -4.951219 v -4.97561 m 4.951219,0 h 4.95122 v 4.97561 h -4.95122 v -4.97561 m 39.609757,0 h 4.95122 v 4.97561 h -4.95122 v -4.97561 m 4.95122,0 h 4.95122 v 4.97561 h -4.95122 v -4.97561 m 9.90244,0 h 4.95122 v 4.97561 h -4.95122 v -4.97561 m 9.90244,0 h 4.95122 v 4.97561 h -4.95122 v -4.97561 m 9.90244,0 h 4.95122 v 4.97561 h -4.95122 v -4.97561 m 4.95122,0 h 4.95121 v 4.97561 h -4.95121 v -4.97561 m 9.90243,0 h 4.95122 v 4.97561 h -4.95122 v -4.97561 m 19.80488,0 h 4.95122 v 4.97561 h -4.95122 v -4.97561 m 4.95122,0 h 4.95122 v 4.97561 h -4.95122 v -4.97561 m 4.95122,0 h 4.95122 v 4.97561 h -4.95122 v -4.97561 m 4.95122,0 h 4.95122 v 4.97561 h -4.95122 v -4.97561 M 0,124.39024 h 4.951219 v 4.97561 H 0 v -4.97561 m 14.853659,0 h 4.951219 v 4.97561 h -4.951219 v -4.97561 m 9.902439,0 h 4.951219 v 4.97561 h -4.951219 v -4.97561 m 34.658536,0 h 4.951219 v 4.97561 h -4.951219 v -4.97561 m 4.951219,0 h 4.95122 v 4.97561 h -4.95122 v -4.97561 m 4.95122,0 h 4.951217 v 4.97561 h -4.951217 v -4.97561 m 4.951217,0 h 4.95122 v 4.97561 h -4.95122 v -4.97561 m 4.95122,0 h 4.95122 v 4.97561 h -4.95122 v -4.97561 m 4.95122,0 h 4.95122 v 4.97561 h -4.95122 v -4.97561 m 19.80488,0 h 4.95122 v 4.97561 h -4.95122 v -4.97561 m 4.95122,0 h 4.95122 v 4.97561 h -4.95122 v -4.97561 m 9.90244,0 h 4.95122 v 4.97561 h -4.95122 v -4.97561 m 4.95122,0 h 4.95122 v 4.97561 h -4.95122 v -4.97561 m 9.90244,0 h 4.95122 v 4.97561 h -4.95122 v -4.97561 m 14.85365,0 h 4.95122 v 4.97561 h -4.95122 v -4.97561 m 4.95122,0 h 4.95122 v 4.97561 h -4.95122 v -4.97561 m 9.90244,0 h 4.95122 v 4.97561 h -4.95122 v -4.97561 m 4.95122,0 h 4.95122 v 4.97561 h -4.95122 v -4.97561 m 19.80488,0 h 4.95122 v 4.97561 h -4.95122 v -4.97561 m 4.95122,0 h 4.95122 v 4.97561 h -4.95122 v -4.97561 m 4.95122,0 H 203 v 4.97561 h -4.95122 v -4.97561 M 0,129.36585 h 4.951219 v 4.97561 H 0 v -4.97561 m 14.853659,0 h 4.951219 v 4.97561 h -4.951219 v -4.97561 m 14.853658,0 h 4.95122 v 4.97561 h -4.95122 v -4.97561 m 9.902439,0 h 4.951219 v 4.97561 h -4.951219 v -4.97561 m 9.902439,0 h 4.951219 v 4.97561 h -4.951219 v -4.97561 m 9.902439,0 h 4.951219 v 4.97561 h -4.951219 v -4.97561 m 9.902439,0 h 4.951217 v 4.97561 h -4.951217 v -4.97561 m 14.853657,0 h 4.95122 v 4.97561 h -4.95122 v -4.97561 m 4.95122,0 h 4.95122 v 4.97561 h -4.95122 v -4.97561 m 4.95122,0 h 4.95122 v 4.97561 h -4.95122 v -4.97561 m 14.85366,0 h 4.95122 v 4.97561 h -4.95122 v -4.97561 m 14.85366,0 h 4.95122 v 4.97561 h -4.95122 v -4.97561 m 4.95122,0 h 4.95122 v 4.97561 h -4.95122 v -4.97561 m 24.75609,0 h 4.95122 v 4.97561 h -4.95122 v -4.97561 m 4.95122,0 h 4.95122 v 4.97561 h -4.95122 v -4.97561 m 19.80488,0 h 4.95122 v 4.97561 h -4.95122 v -4.97561 m 9.90244,0 h 4.95122 v 4.97561 h -4.95122 v -4.97561 m 4.95122,0 h 4.95122 v 4.97561 h -4.95122 v -4.97561 m 4.95122,0 H 203 v 4.97561 h -4.95122 v -4.97561 M 9.902439,134.34146 h 4.95122 v 4.97561 h -4.95122 v -4.97561 m 4.95122,0 h 4.951219 v 4.97561 h -4.951219 v -4.97561 m 24.756097,0 h 4.951219 v 4.97561 h -4.951219 v -4.97561 m 14.853658,0 h 4.95122 v 4.97561 h -4.95122 v -4.97561 m 14.853659,0 h 4.951217 v 4.97561 h -4.951217 v -4.97561 m 9.902437,0 h 4.95122 v 4.97561 h -4.95122 v -4.97561 m 14.85366,0 h 4.95122 v 4.97561 h -4.95122 v -4.97561 m 9.90244,0 h 4.95122 v 4.97561 h -4.95122 v -4.97561 m 4.95122,0 h 4.95122 v 4.97561 h -4.95122 v -4.97561 m 4.95122,0 h 4.95122 v 4.97561 h -4.95122 v -4.97561 m 4.95122,0 h 4.95122 v 4.97561 h -4.95122 v -4.97561 m 9.90244,0 h 4.95122 v 4.97561 h -4.95122 v -4.97561 m 19.80487,0 h 4.95122 v 4.97561 h -4.95122 v -4.97561 m 4.95122,0 h 4.95122 v 4.97561 h -4.95122 v -4.97561 m 9.90244,0 h 4.95122 v 4.97561 h -4.95122 v -4.97561 m 4.95122,0 h 4.95122 v 4.97561 h -4.95122 v -4.97561 m 14.85366,0 h 4.95122 v 4.97561 h -4.95122 v -4.97561 M 4.951219,139.31707 h 4.95122 v 4.97561 h -4.95122 v -4.97561 m 4.95122,0 h 4.95122 v 4.97561 h -4.95122 v -4.97561 m 4.95122,0 h 4.951219 v 4.97561 h -4.951219 v -4.97561 m 14.853658,0 h 4.95122 v 4.97561 h -4.95122 v -4.97561 m 29.707317,0 h 4.951219 v 4.97561 h -4.951219 v -4.97561 m 14.853656,0 h 4.95122 v 4.97561 h -4.95122 v -4.97561 m 4.95122,0 h 4.95122 v 4.97561 h -4.95122 v -4.97561 m 4.95122,0 h 4.95122 v 4.97561 h -4.95122 v -4.97561 m 4.95122,0 h 4.95122 v 4.97561 h -4.95122 v -4.97561 m 4.95122,0 h 4.95122 v 4.97561 h -4.95122 v -4.97561 m 9.90244,0 h 4.95122 v 4.97561 h -4.95122 v -4.97561 m 4.95122,0 h 4.95122 v 4.97561 h -4.95122 v -4.97561 m 14.85366,0 h 4.95122 v 4.97561 h -4.95122 v -4.97561 m 14.85366,0 h 4.95122 v 4.97561 h -4.95122 v -4.97561 m 4.95122,0 h 4.95121 v 4.97561 h -4.95121 v -4.97561 m 4.95121,0 h 4.95122 v 4.97561 h -4.95122 v -4.97561 m 9.90244,0 h 4.95122 v 4.97561 h -4.95122 v -4.97561 m 4.95122,0 h 4.95122 v 4.97561 h -4.95122 v -4.97561 m 14.85366,0 h 4.95122 v 4.97561 h -4.95122 v -4.97561 m 9.90244,0 h 4.95122 v 4.97561 h -4.95122 v -4.97561 m 9.90244,0 H 203 v 4.97561 h -4.95122 v -4.97561 M 9.902439,144.29268 h 4.95122 v 4.97561 h -4.95122 v -4.97561 m 4.95122,0 h 4.951219 v 4.97561 h -4.951219 v -4.97561 m 4.951219,0 h 4.95122 v 4.97561 h -4.95122 v -4.97561 m 14.853659,0 h 4.951219 v 4.97561 h -4.951219 v -4.97561 m 14.853658,0 h 4.951219 v 4.97561 h -4.951219 v -4.97561 m 19.804878,0 h 4.951217 v 4.97561 h -4.951217 v -4.97561 m 4.951217,0 h 4.95122 v 4.97561 h -4.95122 v -4.97561 m 14.85366,0 h 4.95122 v 4.97561 h -4.95122 v -4.97561 m 4.95122,0 h 4.95122 v 4.97561 h -4.95122 v -4.97561 m 9.90244,0 h 4.95122 v 4.97561 h -4.95122 v -4.97561 m 4.95122,0 h 4.95122 v 4.97561 h -4.95122 v -4.97561 m 9.90244,0 h 4.95122 v 4.97561 h -4.95122 v -4.97561 m 4.95122,0 h 4.95122 v 4.97561 h -4.95122 v -4.97561 m 4.95122,0 h 4.95122 v 4.97561 h -4.95122 v -4.97561 m 4.95122,0 h 4.95122 v 4.97561 h -4.95122 v -4.97561 m 4.95122,0 h 4.95122 v 4.97561 h -4.95122 v -4.97561 m 4.95122,0 h 4.95121 v 4.97561 h -4.95121 v -4.97561 m 4.95121,0 h 4.95122 v 4.97561 h -4.95122 v -4.97561 m 9.90244,0 h 4.95122 v 4.97561 h -4.95122 v -4.97561 m 9.90244,0 h 4.95122 v 4.97561 h -4.95122 v -4.97561 m 4.95122,0 h 4.95122 v 4.97561 h -4.95122 v -4.97561 m 9.90244,0 h 4.95122 v 4.97561 h -4.95122 v -4.97561 m 4.95122,0 h 4.95122 v 4.97561 h -4.95122 v -4.97561 M 0,149.26829 h 4.951219 v 4.97561 H 0 v -4.97561 m 9.902439,0 h 4.95122 v 4.97561 h -4.95122 v -4.97561 m 4.95122,0 h 4.951219 v 4.97561 h -4.951219 v -4.97561 m 4.951219,0 h 4.95122 v 4.97561 h -4.95122 v -4.97561 m 9.902439,0 h 4.95122 v 4.97561 h -4.95122 v -4.97561 m 14.853658,0 h 4.95122 v 4.97561 h -4.95122 v -4.97561 m 4.95122,0 h 4.951219 v 4.97561 h -4.951219 v -4.97561 m 4.951219,0 h 4.95122 v 4.97561 h -4.95122 v -4.97561 m 9.902439,0 h 4.95122 v 4.97561 h -4.95122 v -4.97561 m 14.853657,0 h 4.95122 v 4.97561 h -4.95122 v -4.97561 m 19.80488,0 h 4.95122 v 4.97561 h -4.95122 v -4.97561 m 4.95122,0 h 4.95122 v 4.97561 h -4.95122 v -4.97561 m 4.95122,0 h 4.95122 v 4.97561 h -4.95122 v -4.97561 m 4.95122,0 h 4.95122 v 4.97561 h -4.95122 v -4.97561 m 4.95122,0 h 4.95122 v 4.97561 h -4.95122 v -4.97561 m 14.85366,0 h 4.95122 v 4.97561 h -4.95122 v -4.97561 m 4.95122,0 h 4.95122 v 4.97561 h -4.95122 v -4.97561 m 9.90243,0 h 4.95122 v 4.97561 h -4.95122 v -4.97561 m 14.85366,0 h 4.95122 v 4.97561 h -4.95122 v -4.97561 m 4.95122,0 h 4.95122 v 4.97561 h -4.95122 v -4.97561 m 9.90244,0 h 4.95122 v 4.97561 h -4.95122 v -4.97561 m 9.90244,0 h 4.95122 v 4.97561 h -4.95122 v -4.97561 M 9.902439,154.2439 h 4.95122 v 4.97561 h -4.95122 v -4.97561 m 4.95122,0 h 4.951219 v 4.97561 h -4.951219 v -4.97561 m 4.951219,0 h 4.95122 v 4.97561 h -4.95122 v -4.97561 m 39.609756,0 h 4.951219 v 4.97561 h -4.951219 v -4.97561 m 14.853656,0 h 4.95122 v 4.97561 h -4.95122 v -4.97561 m 9.90244,0 h 4.95122 v 4.97561 h -4.95122 v -4.97561 m 14.85366,0 h 4.95122 v 4.97561 h -4.95122 v -4.97561 m 9.90244,0 h 4.95122 v 4.97561 h -4.95122 v -4.97561 m 9.90244,0 h 4.95122 v 4.97561 h -4.95122 v -4.97561 m 9.90244,0 h 4.95122 v 4.97561 h -4.95122 v -4.97561 m 4.95122,0 h 4.95122 v 4.97561 h -4.95122 v -4.97561 m 9.90244,0 h 4.95121 v 4.97561 h -4.95121 v -4.97561 m 4.95121,0 h 4.95122 v 4.97561 h -4.95122 v -4.97561 m 4.95122,0 h 4.95122 v 4.97561 h -4.95122 v -4.97561 m 4.95122,0 h 4.95122 v 4.97561 h -4.95122 v -4.97561 m 4.95122,0 h 4.95122 v 4.97561 h -4.95122 v -4.97561 m 24.7561,0 h 4.95122 v 4.97561 h -4.95122 v -4.97561 m 4.95122,0 h 4.95122 v 4.97561 h -4.95122 V 154.2439 M 4.951219,159.21951 h 4.95122 v 4.97561 h -4.95122 v -4.97561 m 4.95122,0 h 4.95122 v 4.97561 h -4.95122 v -4.97561 m 19.804878,0 h 4.95122 v 4.97561 h -4.95122 v -4.97561 m 4.95122,0 h 4.951219 v 4.97561 h -4.951219 v -4.97561 m 4.951219,0 h 4.951219 v 4.97561 h -4.951219 v -4.97561 m 9.902439,0 h 4.951219 v 4.97561 h -4.951219 v -4.97561 m 9.902439,0 h 4.951219 v 4.97561 h -4.951219 v -4.97561 m 4.951219,0 h 4.95122 v 4.97561 h -4.95122 v -4.97561 m 4.95122,0 h 4.951217 v 4.97561 h -4.951217 v -4.97561 m 9.902437,0 h 4.95122 v 4.97561 h -4.95122 v -4.97561 m 4.95122,0 h 4.95122 v 4.97561 h -4.95122 v -4.97561 m 4.95122,0 h 4.95122 v 4.97561 h -4.95122 v -4.97561 m 4.95122,0 h 4.95122 v 4.97561 h -4.95122 v -4.97561 m 4.95122,0 h 4.95122 v 4.97561 h -4.95122 v -4.97561 m 4.95122,0 h 4.95122 v 4.97561 h -4.95122 v -4.97561 m 9.90244,0 h 4.95122 v 4.97561 h -4.95122 v -4.97561 m 4.95122,0 h 4.95122 v 4.97561 h -4.95122 v -4.97561 m 19.80488,0 h 4.95122 v 4.97561 h -4.95122 v -4.97561 m 4.95122,0 h 4.95121 v 4.97561 h -4.95121 v -4.97561 m 9.90243,0 h 4.95122 v 4.97561 h -4.95122 v -4.97561 m 4.95122,0 h 4.95122 v 4.97561 h -4.95122 v -4.97561 m 4.95122,0 h 4.95122 v 4.97561 h -4.95122 v -4.97561 m 4.95122,0 h 4.95122 v 4.97561 h -4.95122 v -4.97561 m 4.95122,0 h 4.95122 v 4.97561 h -4.95122 v -4.97561 m 4.95122,0 h 4.95122 v 4.97561 h -4.95122 v -4.97561 m 9.90244,0 h 4.95122 v 4.97561 h -4.95122 v -4.97561 m 4.95122,0 h 4.95122 v 4.97561 h -4.95122 v -4.97561 m 4.95122,0 H 203 v 4.97561 h -4.95122 v -4.97561 m -158.439024,4.97561 h 4.951219 v 4.97561 h -4.951219 v -4.97561 m 9.902439,0 h 4.951219 v 4.97561 h -4.951219 v -4.97561 m 24.756095,0 h 4.95122 v 4.97561 h -4.95122 v -4.97561 m 4.95122,0 h 4.95122 v 4.97561 h -4.95122 v -4.97561 m 9.90244,0 h 4.95122 v 4.97561 h -4.95122 v -4.97561 m 19.80488,0 h 4.95122 v 4.97561 h -4.95122 v -4.97561 m 9.90244,0 h 4.95122 v 4.97561 h -4.95122 v -4.97561 m 4.95122,0 h 4.95122 v 4.97561 h -4.95122 v -4.97561 m 4.95122,0 h 4.95122 v 4.97561 h -4.95122 v -4.97561 m 9.90244,0 h 4.95122 v 4.97561 h -4.95122 v -4.97561 m 19.80487,0 h 4.95122 v 4.97561 h -4.95122 v -4.97561 m 19.80488,0 h 4.95122 v 4.97561 h -4.95122 v -4.97561 m 14.85366,0 h 4.95122 v 4.97561 h -4.95122 v -4.97561 m 4.95122,0 H 203 v 4.97561 h -4.95122 v -4.97561 M 0,169.17073 h 4.951219 v 4.97561 H 0 v -4.97561 m 4.951219,0 h 4.95122 v 4.97561 h -4.95122 v -4.97561 m 4.95122,0 h 4.95122 v 4.97561 h -4.95122 v -4.97561 m 4.95122,0 h 4.951219 v 4.97561 h -4.951219 v -4.97561 m 4.951219,0 h 4.95122 v 4.97561 h -4.95122 v -4.97561 m 4.95122,0 h 4.951219 v 4.97561 h -4.951219 v -4.97561 m 4.951219,0 h 4.95122 v 4.97561 h -4.95122 v -4.97561 m 9.902439,0 h 4.951219 v 4.97561 h -4.951219 v -4.97561 m 4.951219,0 h 4.95122 v 4.97561 h -4.95122 v -4.97561 m 24.756098,0 h 4.951217 v 4.97561 h -4.951217 v -4.97561 m 9.902437,0 h 4.95122 v 4.97561 h -4.95122 v -4.97561 m 4.95122,0 h 4.95122 v 4.97561 h -4.95122 v -4.97561 m 14.85366,0 h 4.95122 v 4.97561 h -4.95122 v -4.97561 m 4.95122,0 h 4.95122 v 4.97561 h -4.95122 v -4.97561 m 4.95122,0 h 4.95122 v 4.97561 h -4.95122 v -4.97561 m 4.95122,0 h 4.95122 v 4.97561 h -4.95122 v -4.97561 m 14.85366,0 h 4.95122 v 4.97561 h -4.95122 v -4.97561 m 9.90244,0 h 4.95122 v 4.97561 h -4.95122 v -4.97561 m 19.80487,0 h 4.95122 v 4.97561 h -4.95122 v -4.97561 m 9.90244,0 h 4.95122 v 4.97561 h -4.95122 v -4.97561 m 9.90244,0 h 4.95122 v 4.97561 h -4.95122 v -4.97561 m 4.95122,0 h 4.95122 v 4.97561 h -4.95122 v -4.97561 m 9.90244,0 h 4.95122 v 4.97561 h -4.95122 v -4.97561 M 0,174.14634 h 4.951219 v 4.97561 H 0 v -4.97561 m 29.707317,0 h 4.95122 v 4.97561 h -4.95122 v -4.97561 m 9.902439,0 h 4.951219 v 4.97561 h -4.951219 v -4.97561 m 9.902439,0 h 4.951219 v 4.97561 h -4.951219 v -4.97561 m 14.853658,0 h 4.95122 v 4.97561 h -4.95122 v -4.97561 m 24.756097,0 h 4.95122 v 4.97561 h -4.95122 v -4.97561 m 4.95122,0 h 4.95122 v 4.97561 h -4.95122 v -4.97561 m 4.95122,0 h 4.95122 v 4.97561 h -4.95122 v -4.97561 m 4.95122,0 h 4.95122 v 4.97561 h -4.95122 v -4.97561 m 4.95122,0 h 4.95122 v 4.97561 h -4.95122 v -4.97561 m 4.95122,0 h 4.95122 v 4.97561 h -4.95122 v -4.97561 m 4.95122,0 h 4.95122 v 4.97561 h -4.95122 v -4.97561 m 4.95122,0 h 4.95122 v 4.97561 h -4.95122 v -4.97561 m 9.90244,0 h 4.95122 v 4.97561 h -4.95122 v -4.97561 m 14.85365,0 h 4.95122 v 4.97561 h -4.95122 v -4.97561 m 9.90244,0 h 4.95122 v 4.97561 h -4.95122 v -4.97561 m 19.80488,0 h 4.95122 v 4.97561 h -4.95122 v -4.97561 m 19.80488,0 H 203 v 4.97561 h -4.95122 v -4.97561 M 0,179.12195 h 4.951219 v 4.97561 H 0 v -4.97561 m 9.902439,0 h 4.95122 v 4.97561 h -4.95122 v -4.97561 m 4.95122,0 h 4.951219 v 4.97561 h -4.951219 v -4.97561 m 4.951219,0 h 4.95122 v 4.97561 h -4.95122 v -4.97561 m 9.902439,0 h 4.95122 v 4.97561 h -4.95122 v -4.97561 m 19.804878,0 h 4.951219 v 4.97561 h -4.951219 v -4.97561 m 4.951219,0 h 4.95122 v 4.97561 h -4.95122 v -4.97561 m 9.902439,0 h 4.95122 v 4.97561 h -4.95122 v -4.97561 m 9.902437,0 h 4.95122 v 4.97561 h -4.95122 v -4.97561 m 14.85366,0 h 4.95122 v 4.97561 h -4.95122 v -4.97561 m 9.90244,0 h 4.95122 v 4.97561 h -4.95122 v -4.97561 m 4.95122,0 h 4.95122 v 4.97561 h -4.95122 v -4.97561 m 4.95122,0 h 4.95122 v 4.97561 h -4.95122 v -4.97561 m 4.95122,0 h 4.95122 v 4.97561 h -4.95122 v -4.97561 m 19.80488,0 h 4.95122 v 4.97561 h -4.95122 v -4.97561 m 4.95122,0 h 4.95122 v 4.97561 h -4.95122 v -4.97561 m 4.95122,0 h 4.95121 v 4.97561 h -4.95121 v -4.97561 m 14.85365,0 h 4.95122 v 4.97561 h -4.95122 v -4.97561 m 4.95122,0 h 4.95122 v 4.97561 h -4.95122 v -4.97561 m 4.95122,0 h 4.95122 v 4.97561 h -4.95122 v -4.97561 m 4.95122,0 h 4.95122 v 4.97561 h -4.95122 v -4.97561 m 4.95122,0 h 4.95122 v 4.97561 h -4.95122 v -4.97561 m 4.95122,0 h 4.95122 v 4.97561 h -4.95122 v -4.97561 m 4.95122,0 h 4.95122 v 4.97561 h -4.95122 v -4.97561 m 4.95122,0 h 4.95122 v 4.97561 h -4.95122 v -4.97561 m 4.95122,0 H 203 v 4.97561 h -4.95122 v -4.97561 M 0,184.09756 h 4.951219 v 4.97561 H 0 v -4.97561 m 9.902439,0 h 4.95122 v 4.97561 h -4.95122 v -4.97561 m 4.95122,0 h 4.951219 v 4.97561 h -4.951219 v -4.97561 m 4.951219,0 h 4.95122 v 4.97561 h -4.95122 v -4.97561 m 9.902439,0 h 4.95122 v 4.97561 h -4.95122 v -4.97561 m 9.902439,0 h 4.951219 v 4.97561 h -4.951219 v -4.97561 m 14.853658,0 h 4.95122 v 4.97561 h -4.95122 v -4.97561 m 4.95122,0 h 4.951219 v 4.97561 h -4.951219 v -4.97561 m 14.853656,0 h 4.95122 v 4.97561 h -4.95122 v -4.97561 m 4.95122,0 h 4.95122 v 4.97561 h -4.95122 v -4.97561 m 9.90244,0 h 4.95122 v 4.97561 h -4.95122 v -4.97561 m 39.60976,0 h 4.95122 v 4.97561 h -4.95122 v -4.97561 m 4.95122,0 h 4.95122 v 4.97561 h -4.95122 v -4.97561 m 4.95122,0 h 4.95122 v 4.97561 h -4.95122 v -4.97561 m 4.95122,0 h 4.95121 v 4.97561 h -4.95121 v -4.97561 m 14.85365,0 h 4.95122 v 4.97561 h -4.95122 v -4.97561 m 4.95122,0 h 4.95122 v 4.97561 h -4.95122 v -4.97561 m 9.90244,0 h 4.95122 v 4.97561 h -4.95122 v -4.97561 m 4.95122,0 h 4.95122 v 4.97561 h -4.95122 v -4.97561 m 4.95122,0 h 4.95122 v 4.97561 h -4.95122 v -4.97561 m 4.95122,0 h 4.95122 v 4.97561 h -4.95122 v -4.97561 M 0,189.07317 h 4.951219 v 4.97561 H 0 v -4.97561 m 9.902439,0 h 4.95122 v 4.97561 h -4.95122 v -4.97561 m 4.95122,0 h 4.951219 v 4.97561 h -4.951219 v -4.97561 m 4.951219,0 h 4.95122 v 4.97561 h -4.95122 v -4.97561 m 9.902439,0 h 4.95122 v 4.97561 h -4.95122 v -4.97561 m 9.902439,0 h 4.951219 v 4.97561 h -4.951219 v -4.97561 m 14.853658,0 h 4.95122 v 4.97561 h -4.95122 v -4.97561 m 4.95122,0 h 4.951219 v 4.97561 h -4.951219 v -4.97561 m 14.853656,0 h 4.95122 v 4.97561 h -4.95122 v -4.97561 m 14.85366,0 h 4.95122 v 4.97561 h -4.95122 v -4.97561 m 4.95122,0 h 4.95122 v 4.97561 h -4.95122 v -4.97561 m 4.95122,0 h 4.95122 v 4.97561 h -4.95122 v -4.97561 m 24.7561,0 h 4.95122 v 4.97561 h -4.95122 v -4.97561 m 4.95122,0 h 4.95122 v 4.97561 h -4.95122 v -4.97561 m 19.80487,0 h 4.95122 v 4.97561 h -4.95122 v -4.97561 m 14.85366,0 h 4.95122 v 4.97561 h -4.95122 v -4.97561 m 4.95122,0 h 4.95122 v 4.97561 h -4.95122 v -4.97561 m 4.95122,0 h 4.95122 v 4.97561 h -4.95122 v -4.97561 m 19.80488,0 h 4.95122 v 4.97561 h -4.95122 v -4.97561 m 4.95122,0 H 203 v 4.97561 h -4.95122 v -4.97561 M 0,194.04878 h 4.951219 v 4.97561 H 0 v -4.97561 m 29.707317,0 h 4.95122 v 4.97561 h -4.95122 v -4.97561 m 19.804878,0 h 4.951219 v 4.97561 h -4.951219 v -4.97561 m 4.951219,0 h 4.95122 v 4.97561 h -4.95122 v -4.97561 m 9.902439,0 h 4.95122 v 4.97561 h -4.95122 v -4.97561 m 9.902437,0 h 4.95122 v 4.97561 h -4.95122 v -4.97561 m 24.7561,0 h 4.95122 v 4.97561 h -4.95122 v -4.97561 m 4.95122,0 h 4.95122 v 4.97561 h -4.95122 v -4.97561 m 24.7561,0 h 4.95122 v 4.97561 h -4.95122 v -4.97561 m 4.95122,0 h 4.95122 v 4.97561 h -4.95122 v -4.97561 m 4.95122,0 h 4.95122 v 4.97561 h -4.95122 v -4.97561 m 44.56097,0 h 4.95122 v 4.97561 h -4.95122 v -4.97561 m 9.90244,0 h 4.95122 v 4.97561 h -4.95122 v -4.97561 M 0,199.02439 H 4.951219 V 204 H 0 v -4.97561 m 4.951219,0 h 4.95122 V 204 h -4.95122 v -4.97561 m 4.95122,0 h 4.95122 V 204 h -4.95122 v -4.97561 m 4.95122,0 h 4.951219 V 204 h -4.951219 v -4.97561 m 4.951219,0 h 4.95122 V 204 h -4.95122 v -4.97561 m 4.95122,0 h 4.951219 V 204 h -4.951219 v -4.97561 m 4.951219,0 h 4.95122 V 204 h -4.95122 v -4.97561 m 9.902439,0 h 4.951219 V 204 h -4.951219 v -4.97561 m 4.951219,0 h 4.95122 V 204 h -4.95122 v -4.97561 m 9.902439,0 h 4.95122 V 204 h -4.95122 v -4.97561 m 4.95122,0 h 4.951219 V 204 h -4.951219 v -4.97561 m 4.951219,0 h 4.95122 V 204 h -4.95122 v -4.97561 m 4.95122,0 H 74.26829 V 204 h -4.951217 v -4.97561 m 4.951217,0 h 4.95122 V 204 h -4.95122 v -4.97561 m 4.95122,0 h 4.95122 V 204 h -4.95122 v -4.97561 m 14.85366,0 h 4.95122 V 204 h -4.95122 v -4.97561 m 4.95122,0 h 4.95122 V 204 h -4.95122 v -4.97561 m 4.95122,0 h 4.95122 V 204 h -4.95122 v -4.97561 m 4.95122,0 h 4.95122 V 204 h -4.95122 v -4.97561 m 4.95122,0 h 4.95122 V 204 h -4.95122 v -4.97561 m 4.95122,0 h 4.95122 V 204 h -4.95122 v -4.97561 m 4.95122,0 h 4.95122 V 204 h -4.95122 v -4.97561 m 24.75609,0 h 4.95122 V 204 h -4.95122 v -4.97561 m 4.95122,0 h 4.95122 V 204 h -4.95122 v -4.97561 m 4.95122,0 h 4.95122 V 204 h -4.95122 v -4.97561 m 9.90244,0 h 4.95122 V 204 h -4.95122 v -4.97561 m 9.90244,0 h 4.95122 V 204 h -4.95122 v -4.97561 m 4.95122,0 h 4.95122 V 204 h -4.95122 v -4.97561 m 4.95122,0 h 4.95122 V 204 h -4.95122 v -4.97561 m 4.95122,0 h 4.95122 V 204 h -4.95122 v -4.97561"
     id="path1"
     style="stroke-width:1" />
  <g
     id="g2"
     transform="matrix(0.78011968,0,0,0.78650809,72.71085,72.9751)"
     style="stroke-width:1.27663">
    <path
       id="path1-7"
       style="fill:#f9f9f9;fill-rule:evenodd;stroke:#ffffff;stroke-width:19.614;stroke-linecap:round;stroke-linejoin:round;paint-order:markers stroke fill"
       d="M 65.350898,36.903499 A 28.447396,28.448009 0 0 1 36.94266,65.35148 28.447396,28.448009 0 0 1 8.4562115,36.981818 28.447396,28.448009 0 0 1 36.786025,8.4557329 28.447396,28.448009 0 0 1 65.350467,36.746861" />
    <path
       d="M 36.903,0 C 16.526,0 0,16.524 0,36.902 0,40.976 0.66,44.894 1.88,48.559 H 12.916 V 17.51 L 36.903,41.497 60.89,17.51 v 31.049 h 11.037 c 1.22,-3.665 1.88,-7.583 1.88,-11.657 C 73.807,16.524 57.281,0 36.903,0"
       id="path22"
       style="fill:#ff6600;stroke-width:1.27663" />
    <path
       d="m 20.9194,36.5427 v 19.537 h -15.55 c 6.478,10.628 18.178,17.726 31.533,17.726 13.355,0 25.056,-7.098 31.533,-17.726 h -15.549 v -19.537 l -15.984,15.984 z"
       id="path26"
       style="fill:#4c4c4c;stroke-width:1.27663" />
  </g>
</svg>
